%TF.GenerationSoftware,KiCad,Pcbnew,9.0.6*%
%TF.CreationDate,2025-12-04T14:52:28+01:00*%
%TF.ProjectId,ExtensionBoardBasic,45787465-6e73-4696-9f6e-426f61726442,rev?*%
%TF.SameCoordinates,Original*%
%TF.FileFunction,Paste,Top*%
%TF.FilePolarity,Positive*%
%FSLAX46Y46*%
G04 Gerber Fmt 4.6, Leading zero omitted, Abs format (unit mm)*
G04 Created by KiCad (PCBNEW 9.0.6) date 2025-12-04 14:52:28*
%MOMM*%
%LPD*%
G01*
G04 APERTURE LIST*
%ADD10R,11.430000X5.080000*%
%ADD11R,1.450000X1.000000*%
%ADD12R,0.700000X0.600000*%
%ADD13R,0.600000X0.700000*%
%ADD14R,0.600000X0.500000*%
%ADD15R,0.600000X0.900000*%
%ADD16R,1.000000X0.700000*%
%ADD17R,0.300000X1.150000*%
%ADD18R,0.500000X1.150000*%
%ADD19R,0.500000X1.100000*%
G04 APERTURE END LIST*
D10*
%TO.C,*%
X174744580Y-129751934D03*
%TD*%
D11*
%TO.C,F1*%
X155440580Y-55105604D03*
X155440580Y-53205604D03*
%TD*%
D12*
%TO.C,C1*%
X153027580Y-59989614D03*
X153027580Y-58989624D03*
%TD*%
D13*
%TO.C,C2*%
X157972600Y-57203594D03*
X156972610Y-57203594D03*
%TD*%
%TO.C,R1*%
X145526600Y-60251594D03*
X144526610Y-60251594D03*
%TD*%
%TO.C,R2*%
X150630580Y-58981594D03*
X151630580Y-58981594D03*
%TD*%
D14*
%TO.C,U1*%
X147124570Y-60394594D03*
X147124570Y-62394594D03*
X149024590Y-60394594D03*
D15*
X149024590Y-62194594D03*
%TD*%
D16*
%TO.C,U2*%
X156694580Y-59616594D03*
X154694580Y-60566604D03*
X154694580Y-58666584D03*
%TD*%
D17*
%TO.C,USB1*%
X148057610Y-57076594D03*
X147557590Y-57076594D03*
X147057620Y-57076594D03*
X146557590Y-57076594D03*
X148557590Y-57076594D03*
X149057610Y-57076594D03*
X149557580Y-57076594D03*
X146057620Y-57076594D03*
D18*
X150207570Y-57076594D03*
X151007620Y-57076594D03*
X145407580Y-57076594D03*
D19*
X144607580Y-57076594D03*
%TD*%
D10*
%TO.C,*%
X174744580Y-102227584D03*
%TD*%
%TO.C,*%
X122039580Y-108993234D03*
%TD*%
%TO.C,*%
X122039580Y-102112114D03*
%TD*%
%TO.C,*%
X174744580Y-109108694D03*
%TD*%
%TO.C,*%
X122039580Y-115874294D03*
%TD*%
%TO.C,*%
X122039580Y-129636474D03*
%TD*%
%TO.C,*%
X122039580Y-122755404D03*
%TD*%
%TO.C,*%
X174744580Y-122870874D03*
%TD*%
%TO.C,*%
X174744580Y-136633054D03*
%TD*%
%TO.C,*%
X174744580Y-115989764D03*
%TD*%
%TO.C,*%
X122039580Y-136517584D03*
%TD*%
M02*
