%TF.GenerationSoftware,KiCad,Pcbnew,9.0.6*%
%TF.CreationDate,2025-12-04T14:52:28+01:00*%
%TF.ProjectId,ExtensionBoardBasic,45787465-6e73-4696-9f6e-426f61726442,rev?*%
%TF.SameCoordinates,Original*%
%TF.FileFunction,Copper,L3,Inr*%
%TF.FilePolarity,Positive*%
%FSLAX46Y46*%
G04 Gerber Fmt 4.6, Leading zero omitted, Abs format (unit mm)*
G04 Created by KiCad (PCBNEW 9.0.6) date 2025-12-04 14:52:28*
%MOMM*%
%LPD*%
G01*
G04 APERTURE LIST*
%TA.AperFunction,ComponentPad*%
%ADD10C,1.600000*%
%TD*%
%TA.AperFunction,ComponentPad*%
%ADD11R,1.900000X1.574800*%
%TD*%
%TA.AperFunction,ComponentPad*%
%ADD12C,1.900000*%
%TD*%
%TA.AperFunction,ComponentPad*%
%ADD13R,1.700000X1.574800*%
%TD*%
%TA.AperFunction,ComponentPad*%
%ADD14C,1.700000*%
%TD*%
%TA.AperFunction,ComponentPad*%
%ADD15O,1.000000X2.100000*%
%TD*%
%TA.AperFunction,ComponentPad*%
%ADD16O,1.000000X1.850000*%
%TD*%
%TA.AperFunction,ViaPad*%
%ADD17C,1.270000*%
%TD*%
%TA.AperFunction,ViaPad*%
%ADD18C,4.572000*%
%TD*%
G04 APERTURE END LIST*
D10*
%TO.N,GND*%
%TO.C,J3*%
X166022610Y-149217584D03*
X163482610Y-149217584D03*
X160942610Y-149217584D03*
X158402610Y-149217584D03*
X155862610Y-149217584D03*
X153322610Y-149217584D03*
X150782610Y-149217584D03*
X148242610Y-149217584D03*
X145702610Y-149217584D03*
X143162610Y-149217584D03*
X140622610Y-149217584D03*
X138082600Y-149217584D03*
X135542600Y-149217584D03*
X133002600Y-149217584D03*
X130462600Y-149217584D03*
%TO.N,+5*%
X166022610Y-151757584D03*
X163482610Y-151757584D03*
X160942610Y-151757584D03*
X158402610Y-151757584D03*
X155862610Y-151757584D03*
%TO.N,+3.3*%
X153322610Y-151757584D03*
X150782610Y-151757584D03*
X148242610Y-151757584D03*
X145702610Y-151757584D03*
X143162610Y-151757584D03*
X140622610Y-151757584D03*
X138082600Y-151757584D03*
X135542600Y-151757584D03*
X133002600Y-151757584D03*
X130462600Y-151757584D03*
%TO.N,//IO44*%
X166022610Y-154297584D03*
%TO.N,//IO43*%
X163482610Y-154297584D03*
%TO.N,//IO38*%
X160942610Y-154297584D03*
%TO.N,//IO18*%
X158402610Y-154297584D03*
%TO.N,//IO17*%
X155862610Y-154297584D03*
%TO.N,//IO15*%
X153322610Y-154297584D03*
%TO.N,//IO10*%
X150782610Y-154297584D03*
%TO.N,//IO9*%
X148242610Y-154297584D03*
%TO.N,//IO8*%
X145702580Y-154297584D03*
%TO.N,//IO7*%
X143162580Y-154297584D03*
%TO.N,//IO6*%
X140622610Y-154297584D03*
%TO.N,//IO5*%
X138082600Y-154297584D03*
%TO.N,//IO4*%
X135542600Y-154297584D03*
%TO.N,//IO02*%
X133002600Y-154297584D03*
%TO.N,//IO01*%
X130462600Y-154297584D03*
%TD*%
D11*
%TO.N,GND*%
%TO.C,J2*%
X166022580Y-92651584D03*
D12*
%TO.N,+5*%
X166022580Y-95191584D03*
%TO.N,GND*%
X163482580Y-92651584D03*
%TO.N,+5*%
X163482580Y-95191584D03*
%TO.N,GND*%
X160942580Y-92651584D03*
%TO.N,+5*%
X160942580Y-95191584D03*
%TO.N,GND*%
X158402580Y-92651584D03*
%TO.N,+5*%
X158402580Y-95191584D03*
%TO.N,GND*%
X155862580Y-92651584D03*
%TO.N,+5*%
X155862580Y-95191584D03*
%TO.N,GND*%
X153322580Y-92651584D03*
%TO.N,+3.3*%
X153322580Y-95191584D03*
%TO.N,GND*%
X150782580Y-92651584D03*
%TO.N,+3.3*%
X150782580Y-95191584D03*
%TO.N,GND*%
X148242580Y-92651584D03*
%TO.N,+3.3*%
X148242580Y-95191584D03*
%TO.N,GND*%
X145702580Y-92651584D03*
%TO.N,+3.3*%
X145702580Y-95191584D03*
%TO.N,GND*%
X143162580Y-92651584D03*
%TO.N,+3.3*%
X143162580Y-95191584D03*
%TO.N,GND*%
X140622580Y-92651584D03*
%TO.N,+3.3*%
X140622580Y-95191584D03*
%TO.N,GND*%
X138082580Y-92651584D03*
%TO.N,+3.3*%
X138082580Y-95191584D03*
%TO.N,GND*%
X135542580Y-92651584D03*
%TO.N,+3.3*%
X135542580Y-95191584D03*
%TO.N,GND*%
X133002580Y-92651584D03*
%TO.N,+3.3*%
X133002580Y-95191584D03*
%TO.N,GND*%
X130462580Y-92651584D03*
%TO.N,+3.3*%
X130462580Y-95191584D03*
%TD*%
D13*
%TO.N,//IO01*%
%TO.C,J1*%
X130462580Y-88079584D03*
D14*
%TO.N,//IO02*%
X133002580Y-88079584D03*
%TO.N,//IO4*%
X135542580Y-88079584D03*
%TO.N,//IO5*%
X138082580Y-88079584D03*
%TO.N,//IO6*%
X140622580Y-88079584D03*
%TO.N,//IO7*%
X143162580Y-88079584D03*
%TO.N,//IO8*%
X145702580Y-88079584D03*
%TO.N,//IO9*%
X148242580Y-88079584D03*
%TO.N,//IO10*%
X150782580Y-88079584D03*
%TO.N,//IO15*%
X153322580Y-88079584D03*
%TO.N,//IO17*%
X155862580Y-88079584D03*
%TO.N,//IO18*%
X158402580Y-88079584D03*
%TO.N,//IO38*%
X160942580Y-88079584D03*
%TO.N,//IO43*%
X163482580Y-88079584D03*
%TO.N,//IO44*%
X166022580Y-88079584D03*
%TD*%
D15*
%TO.N,GND*%
%TO.C,USB1*%
X152127610Y-56526584D03*
X143487590Y-56526584D03*
D16*
X152127610Y-52376574D03*
X143487590Y-52376574D03*
%TD*%
D17*
%TO.N,//IO4*%
X170782180Y-126484584D03*
X173195180Y-133190184D03*
X158793380Y-155973984D03*
%TO.N,//IO7*%
X143172380Y-156989984D03*
D18*
%TO.N,//IO01*%
X174617580Y-149662084D03*
D17*
%TO.N,//IO02*%
X171442580Y-147998384D03*
%TO.N,//IO8*%
X166108580Y-146931584D03*
%TO.N,//IO9*%
X163949580Y-144518584D03*
X149852580Y-146169584D03*
%TO.N,//IO8*%
X146804580Y-147058584D03*
D18*
%TO.N,//IO6*%
X121531580Y-155821584D03*
D17*
%TO.N,//IO8*%
X179189580Y-97401584D03*
X150487580Y-83812584D03*
%TO.N,//IO9*%
X150741580Y-85580574D03*
%TO.N,//IO18*%
X169766180Y-105656584D03*
%TO.N,//IO10*%
X154541570Y-83304584D03*
%TO.N,//IO9*%
X177538580Y-96512584D03*
%TO.N,//IO6*%
X140378380Y-83304584D03*
%TO.N,//IO01*%
X170871180Y-157383584D03*
%TO.N,//IO10*%
X162222380Y-150487584D03*
D18*
%TO.N,//IO02*%
X174617580Y-155567584D03*
D17*
%TO.N,+5*%
X158996580Y-60952584D03*
X136390580Y-102227584D03*
D18*
X174617580Y-143756584D03*
D17*
%TO.N,+3.3*%
X131691580Y-136898584D03*
%TO.N,+5*%
X145026580Y-105529584D03*
X117213580Y-98036584D03*
X117086580Y-140581584D03*
D18*
X121531580Y-149916084D03*
D17*
%TO.N,+3.3*%
X132986980Y-106342384D03*
%TO.N,GND*%
X143487590Y-60251594D03*
X157167780Y-90340384D03*
X127221180Y-119499584D03*
D18*
X121531580Y-144010584D03*
%TD*%
M02*
