%TF.GenerationSoftware,KiCad,Pcbnew,9.0.6*%
%TF.CreationDate,2025-12-04T14:52:28+01:00*%
%TF.ProjectId,ExtensionBoardBasic,45787465-6e73-4696-9f6e-426f61726442,rev?*%
%TF.SameCoordinates,Original*%
%TF.FileFunction,Soldermask,Top*%
%TF.FilePolarity,Negative*%
%FSLAX46Y46*%
G04 Gerber Fmt 4.6, Leading zero omitted, Abs format (unit mm)*
G04 Created by KiCad (PCBNEW 9.0.6) date 2025-12-04 14:52:28*
%MOMM*%
%LPD*%
G01*
G04 APERTURE LIST*
G04 Aperture macros list*
%AMRoundRect*
0 Rectangle with rounded corners*
0 $1 Rounding radius*
0 $2 $3 $4 $5 $6 $7 $8 $9 X,Y pos of 4 corners*
0 Add a 4 corners polygon primitive as box body*
4,1,4,$2,$3,$4,$5,$6,$7,$8,$9,$2,$3,0*
0 Add four circle primitives for the rounded corners*
1,1,$1+$1,$2,$3*
1,1,$1+$1,$4,$5*
1,1,$1+$1,$6,$7*
1,1,$1+$1,$8,$9*
0 Add four rect primitives between the rounded corners*
20,1,$1+$1,$2,$3,$4,$5,0*
20,1,$1+$1,$4,$5,$6,$7,0*
20,1,$1+$1,$6,$7,$8,$9,0*
20,1,$1+$1,$8,$9,$2,$3,0*%
G04 Aperture macros list end*
%ADD10RoundRect,0.060000X-5.715000X-2.540000X5.715000X-2.540000X5.715000X2.540000X-5.715000X2.540000X0*%
%ADD11C,1.803200*%
%ADD12RoundRect,0.101600X0.950000X0.787400X-0.950000X0.787400X-0.950000X-0.787400X0.950000X-0.787400X0*%
%ADD13C,2.103200*%
%ADD14RoundRect,0.101600X-0.850000X-0.787400X0.850000X-0.787400X0.850000X0.787400X-0.850000X0.787400X0*%
%ADD15C,1.903200*%
%ADD16RoundRect,0.101600X-0.725000X0.500000X-0.725000X-0.500000X0.725000X-0.500000X0.725000X0.500000X0*%
%ADD17RoundRect,0.060000X-0.350000X0.300000X-0.350000X-0.300000X0.350000X-0.300000X0.350000X0.300000X0*%
%ADD18RoundRect,0.060000X-0.300000X-0.350000X0.300000X-0.350000X0.300000X0.350000X-0.300000X0.350000X0*%
%ADD19RoundRect,0.060000X0.300000X0.350000X-0.300000X0.350000X-0.300000X-0.350000X0.300000X-0.350000X0*%
%ADD20RoundRect,0.101600X0.300000X-0.250000X0.300000X0.250000X-0.300000X0.250000X-0.300000X-0.250000X0*%
%ADD21RoundRect,0.101600X0.300000X-0.450000X0.300000X0.450000X-0.300000X0.450000X-0.300000X-0.450000X0*%
%ADD22RoundRect,0.101600X-0.500000X0.350000X-0.500000X-0.350000X0.500000X-0.350000X0.500000X0.350000X0*%
%ADD23RoundRect,0.060000X0.150000X0.575000X-0.150000X0.575000X-0.150000X-0.575000X0.150000X-0.575000X0*%
%ADD24RoundRect,0.060000X0.250000X0.575000X-0.250000X0.575000X-0.250000X-0.575000X0.250000X-0.575000X0*%
%ADD25RoundRect,0.060000X0.250000X0.550000X-0.250000X0.550000X-0.250000X-0.550000X0.250000X-0.550000X0*%
%ADD26C,0.203200*%
%ADD27O,1.203200X2.303200*%
%ADD28O,1.203200X2.053200*%
G04 APERTURE END LIST*
D10*
%TO.C,*%
X174744580Y-129751934D03*
%TD*%
D11*
%TO.C,J3*%
X166022610Y-149217584D03*
X163482610Y-149217584D03*
X160942610Y-149217584D03*
X158402610Y-149217584D03*
X155862610Y-149217584D03*
X153322610Y-149217584D03*
X150782610Y-149217584D03*
X148242610Y-149217584D03*
X145702610Y-149217584D03*
X143162610Y-149217584D03*
X140622610Y-149217584D03*
X138082600Y-149217584D03*
X135542600Y-149217584D03*
X133002600Y-149217584D03*
X130462600Y-149217584D03*
X166022610Y-151757584D03*
X163482610Y-151757584D03*
X160942610Y-151757584D03*
X158402610Y-151757584D03*
X155862610Y-151757584D03*
X153322610Y-151757584D03*
X150782610Y-151757584D03*
X148242610Y-151757584D03*
X145702610Y-151757584D03*
X143162610Y-151757584D03*
X140622610Y-151757584D03*
X138082600Y-151757584D03*
X135542600Y-151757584D03*
X133002600Y-151757584D03*
X130462600Y-151757584D03*
X166022610Y-154297584D03*
X163482610Y-154297584D03*
X160942610Y-154297584D03*
X158402610Y-154297584D03*
X155862610Y-154297584D03*
X153322610Y-154297584D03*
X150782610Y-154297584D03*
X148242610Y-154297584D03*
X145702580Y-154297584D03*
X143162580Y-154297584D03*
X140622610Y-154297584D03*
X138082600Y-154297584D03*
X135542600Y-154297584D03*
X133002600Y-154297584D03*
X130462600Y-154297584D03*
%TD*%
D12*
%TO.C,J2*%
X166022580Y-92651584D03*
D13*
X166022580Y-95191584D03*
X163482580Y-92651584D03*
X163482580Y-95191584D03*
X160942580Y-92651584D03*
X160942580Y-95191584D03*
X158402580Y-92651584D03*
X158402580Y-95191584D03*
X155862580Y-92651584D03*
X155862580Y-95191584D03*
X153322580Y-92651584D03*
X153322580Y-95191584D03*
X150782580Y-92651584D03*
X150782580Y-95191584D03*
X148242580Y-92651584D03*
X148242580Y-95191584D03*
X145702580Y-92651584D03*
X145702580Y-95191584D03*
X143162580Y-92651584D03*
X143162580Y-95191584D03*
X140622580Y-92651584D03*
X140622580Y-95191584D03*
X138082580Y-92651584D03*
X138082580Y-95191584D03*
X135542580Y-92651584D03*
X135542580Y-95191584D03*
X133002580Y-92651584D03*
X133002580Y-95191584D03*
X130462580Y-92651584D03*
X130462580Y-95191584D03*
%TD*%
D14*
%TO.C,J1*%
X130462580Y-88079584D03*
D15*
X133002580Y-88079584D03*
X135542580Y-88079584D03*
X138082580Y-88079584D03*
X140622580Y-88079584D03*
X143162580Y-88079584D03*
X145702580Y-88079584D03*
X148242580Y-88079584D03*
X150782580Y-88079584D03*
X153322580Y-88079584D03*
X155862580Y-88079584D03*
X158402580Y-88079584D03*
X160942580Y-88079584D03*
X163482580Y-88079584D03*
X166022580Y-88079584D03*
%TD*%
D16*
%TO.C,F1*%
X155440580Y-55105604D03*
X155440580Y-53205604D03*
%TD*%
D17*
%TO.C,C1*%
X153027580Y-59989614D03*
X153027580Y-58989624D03*
%TD*%
D18*
%TO.C,C2*%
X157972600Y-57203594D03*
X156972610Y-57203594D03*
%TD*%
%TO.C,R1*%
X145526600Y-60251594D03*
X144526610Y-60251594D03*
%TD*%
D19*
%TO.C,R2*%
X150630580Y-58981594D03*
X151630580Y-58981594D03*
%TD*%
D20*
%TO.C,U1*%
X147124570Y-60394594D03*
X147124570Y-62394594D03*
X149024590Y-60394594D03*
D21*
X149024590Y-62194594D03*
%TD*%
D22*
%TO.C,U2*%
X156694580Y-59616594D03*
X154694580Y-60566604D03*
X154694580Y-58666584D03*
%TD*%
D23*
%TO.C,USB1*%
X148057610Y-57076594D03*
X147557590Y-57076594D03*
X147057620Y-57076594D03*
X146557590Y-57076594D03*
X148557590Y-57076594D03*
X149057610Y-57076594D03*
X149557580Y-57076594D03*
X146057620Y-57076594D03*
D24*
X150207570Y-57076594D03*
X151007620Y-57076594D03*
X145407580Y-57076594D03*
D25*
X144607580Y-57076594D03*
D26*
X144917610Y-55976574D03*
D27*
X152127610Y-56526584D03*
X143487590Y-56526584D03*
D28*
X152127610Y-52376574D03*
X143487590Y-52376574D03*
D26*
X150697590Y-55976574D03*
%TD*%
D10*
%TO.C,*%
X174744580Y-102227584D03*
%TD*%
%TO.C,*%
X122039580Y-108993234D03*
%TD*%
%TO.C,*%
X122039580Y-102112114D03*
%TD*%
%TO.C,*%
X174744580Y-109108694D03*
%TD*%
%TO.C,*%
X122039580Y-115874294D03*
%TD*%
%TO.C,*%
X122039580Y-129636474D03*
%TD*%
%TO.C,*%
X122039580Y-122755404D03*
%TD*%
%TO.C,*%
X174744580Y-122870874D03*
%TD*%
%TO.C,*%
X174744580Y-136633054D03*
%TD*%
%TO.C,*%
X174744580Y-115989764D03*
%TD*%
%TO.C,*%
X122039580Y-136517584D03*
%TD*%
M02*
