M48
; DRILL file {KiCad 9.0.6} date 2025-12-04T14:52:31+0100
; FORMAT={-:-/ absolute / metric / decimal}
; #@! TF.CreationDate,2025-12-04T14:52:31+01:00
; #@! TF.GenerationSoftware,Kicad,Pcbnew,9.0.6
; #@! TF.FileFunction,Plated,1,4,PTH
FMAT,2
METRIC
; #@! TA.AperFunction,Plated,PTH,ComponentDrill
T1C0.650
; #@! TA.AperFunction,Plated,PTH,ComponentDrill
T2C0.700
; #@! TA.AperFunction,Plated,PTH,ViaDrill
T3C0.711
; #@! TA.AperFunction,Plated,PTH,ComponentDrill
T4C1.020
; #@! TA.AperFunction,Plated,PTH,ComponentDrill
T5C1.100
; #@! TA.AperFunction,Plated,PTH,ViaDrill
T6C4.000
%
G90
G05
T2
X144.918Y-55.977
X150.698Y-55.977
T3
X117.087Y-140.582
X117.214Y-98.037
X127.221Y-119.5
X131.692Y-136.899
X132.987Y-106.342
X136.391Y-102.228
X140.378Y-83.305
X143.172Y-156.99
X143.488Y-60.252
X145.027Y-105.53
X146.805Y-147.059
X149.853Y-146.17
X150.488Y-83.813
X150.742Y-85.581
X154.542Y-83.305
X157.168Y-90.34
X158.793Y-155.974
X158.997Y-60.953
X162.222Y-150.488
X163.95Y-144.519
X166.109Y-146.932
X169.766Y-105.657
X170.782Y-126.485
X170.871Y-157.384
X171.443Y-147.998
X173.195Y-133.19
X177.539Y-96.513
X179.19Y-97.402
T4
X130.463Y-149.218
X130.463Y-151.758
X130.463Y-154.298
X133.003Y-149.218
X133.003Y-151.758
X133.003Y-154.298
X135.543Y-149.218
X135.543Y-151.758
X135.543Y-154.298
X138.083Y-149.218
X138.083Y-151.758
X138.083Y-154.298
X140.623Y-149.218
X140.623Y-151.758
X140.623Y-154.298
X143.163Y-149.218
X143.163Y-151.758
X143.163Y-154.298
X145.703Y-149.218
X145.703Y-151.758
X145.703Y-154.298
X148.243Y-149.218
X148.243Y-151.758
X148.243Y-154.298
X150.783Y-149.218
X150.783Y-151.758
X150.783Y-154.298
X153.323Y-149.218
X153.323Y-151.758
X153.323Y-154.298
X155.863Y-149.218
X155.863Y-151.758
X155.863Y-154.298
X158.403Y-149.218
X158.403Y-151.758
X158.403Y-154.298
X160.943Y-149.218
X160.943Y-151.758
X160.943Y-154.298
X163.483Y-149.218
X163.483Y-151.758
X163.483Y-154.298
X166.023Y-149.218
X166.023Y-151.758
X166.023Y-154.298
T5
X130.463Y-88.08
X130.463Y-92.652
X130.463Y-95.192
X133.003Y-88.08
X133.003Y-92.652
X133.003Y-95.192
X135.543Y-88.08
X135.543Y-92.652
X135.543Y-95.192
X138.083Y-88.08
X138.083Y-92.652
X138.083Y-95.192
X140.623Y-88.08
X140.623Y-92.652
X140.623Y-95.192
X143.163Y-88.08
X143.163Y-92.652
X143.163Y-95.192
X145.703Y-88.08
X145.703Y-92.652
X145.703Y-95.192
X148.243Y-88.08
X148.243Y-92.652
X148.243Y-95.192
X150.783Y-88.08
X150.783Y-92.652
X150.783Y-95.192
X153.323Y-88.08
X153.323Y-92.652
X153.323Y-95.192
X155.863Y-88.08
X155.863Y-92.652
X155.863Y-95.192
X158.403Y-88.08
X158.403Y-92.652
X158.403Y-95.192
X160.943Y-88.08
X160.943Y-92.652
X160.943Y-95.192
X163.483Y-88.08
X163.483Y-92.652
X163.483Y-95.192
X166.023Y-88.08
X166.023Y-92.652
X166.023Y-95.192
T6
X121.532Y-144.011
X121.532Y-149.916
X121.532Y-155.822
X174.618Y-143.757
X174.618Y-149.662
X174.618Y-155.568
T1
G00X143.488Y-52.777
M15
G01X143.488Y-51.977
M16
G05
G00X143.488Y-57.077
M15
G01X143.488Y-55.977
M16
G05
G00X152.128Y-52.777
M15
G01X152.128Y-51.977
M16
G05
G00X152.128Y-57.077
M15
G01X152.128Y-55.977
M16
G05
M30
