%TF.GenerationSoftware,KiCad,Pcbnew,9.0.6*%
%TF.CreationDate,2025-12-04T14:52:28+01:00*%
%TF.ProjectId,ExtensionBoardBasic,45787465-6e73-4696-9f6e-426f61726442,rev?*%
%TF.SameCoordinates,Original*%
%TF.FileFunction,Copper,L1,Top*%
%TF.FilePolarity,Positive*%
%FSLAX46Y46*%
G04 Gerber Fmt 4.6, Leading zero omitted, Abs format (unit mm)*
G04 Created by KiCad (PCBNEW 9.0.6) date 2025-12-04 14:52:28*
%MOMM*%
%LPD*%
G01*
G04 APERTURE LIST*
%TA.AperFunction,SMDPad,CuDef*%
%ADD10R,11.430000X5.080000*%
%TD*%
%TA.AperFunction,ComponentPad*%
%ADD11C,1.600000*%
%TD*%
%TA.AperFunction,ComponentPad*%
%ADD12R,1.900000X1.574800*%
%TD*%
%TA.AperFunction,ComponentPad*%
%ADD13C,1.900000*%
%TD*%
%TA.AperFunction,ComponentPad*%
%ADD14R,1.700000X1.574800*%
%TD*%
%TA.AperFunction,ComponentPad*%
%ADD15C,1.700000*%
%TD*%
%TA.AperFunction,SMDPad,CuDef*%
%ADD16R,1.450000X1.000000*%
%TD*%
%TA.AperFunction,SMDPad,CuDef*%
%ADD17R,0.700000X0.600000*%
%TD*%
%TA.AperFunction,SMDPad,CuDef*%
%ADD18R,0.600000X0.700000*%
%TD*%
%TA.AperFunction,SMDPad,CuDef*%
%ADD19R,0.600000X0.500000*%
%TD*%
%TA.AperFunction,SMDPad,CuDef*%
%ADD20R,0.600000X0.900000*%
%TD*%
%TA.AperFunction,SMDPad,CuDef*%
%ADD21R,1.000000X0.700000*%
%TD*%
%TA.AperFunction,SMDPad,CuDef*%
%ADD22R,0.300000X1.150000*%
%TD*%
%TA.AperFunction,SMDPad,CuDef*%
%ADD23R,0.500000X1.150000*%
%TD*%
%TA.AperFunction,SMDPad,CuDef*%
%ADD24R,0.500000X1.100000*%
%TD*%
%TA.AperFunction,ComponentPad*%
%ADD25O,1.000000X2.100000*%
%TD*%
%TA.AperFunction,ComponentPad*%
%ADD26O,1.000000X1.850000*%
%TD*%
%TA.AperFunction,ViaPad*%
%ADD27C,1.270000*%
%TD*%
%TA.AperFunction,ViaPad*%
%ADD28C,4.572000*%
%TD*%
%TA.AperFunction,Conductor*%
%ADD29C,0.254000*%
%TD*%
G04 APERTURE END LIST*
D10*
%TO.P,,3*%
%TO.N,//IO4*%
X174744580Y-129751934D03*
%TD*%
D11*
%TO.P,J3,45,45*%
%TO.N,GND*%
X166022610Y-149217584D03*
%TO.P,J3,44,44*%
X163482610Y-149217584D03*
%TO.P,J3,43,43*%
X160942610Y-149217584D03*
%TO.P,J3,42,42*%
X158402610Y-149217584D03*
%TO.P,J3,41,41*%
X155862610Y-149217584D03*
%TO.P,J3,40,40*%
X153322610Y-149217584D03*
%TO.P,J3,39,39*%
X150782610Y-149217584D03*
%TO.P,J3,38,38*%
X148242610Y-149217584D03*
%TO.P,J3,37,37*%
X145702610Y-149217584D03*
%TO.P,J3,36,36*%
X143162610Y-149217584D03*
%TO.P,J3,35,35*%
X140622610Y-149217584D03*
%TO.P,J3,34,34*%
X138082600Y-149217584D03*
%TO.P,J3,33,33*%
X135542600Y-149217584D03*
%TO.P,J3,32,32*%
X133002600Y-149217584D03*
%TO.P,J3,31,31*%
X130462600Y-149217584D03*
%TO.P,J3,30,30*%
%TO.N,+5*%
X166022610Y-151757584D03*
%TO.P,J3,29,29*%
X163482610Y-151757584D03*
%TO.P,J3,28,28*%
X160942610Y-151757584D03*
%TO.P,J3,27,27*%
X158402610Y-151757584D03*
%TO.P,J3,26,26*%
X155862610Y-151757584D03*
%TO.P,J3,25,25*%
%TO.N,+3.3*%
X153322610Y-151757584D03*
%TO.P,J3,24,24*%
X150782610Y-151757584D03*
%TO.P,J3,23,23*%
X148242610Y-151757584D03*
%TO.P,J3,22,22*%
X145702610Y-151757584D03*
%TO.P,J3,21,21*%
X143162610Y-151757584D03*
%TO.P,J3,20,20*%
X140622610Y-151757584D03*
%TO.P,J3,19,19*%
X138082600Y-151757584D03*
%TO.P,J3,18,18*%
X135542600Y-151757584D03*
%TO.P,J3,17,17*%
X133002600Y-151757584D03*
%TO.P,J3,16,16*%
X130462600Y-151757584D03*
%TO.P,J3,15,15*%
%TO.N,//IO44*%
X166022610Y-154297584D03*
%TO.P,J3,14,14*%
%TO.N,//IO43*%
X163482610Y-154297584D03*
%TO.P,J3,13,13*%
%TO.N,//IO38*%
X160942610Y-154297584D03*
%TO.P,J3,12,12*%
%TO.N,//IO18*%
X158402610Y-154297584D03*
%TO.P,J3,11,11*%
%TO.N,//IO17*%
X155862610Y-154297584D03*
%TO.P,J3,10,10*%
%TO.N,//IO15*%
X153322610Y-154297584D03*
%TO.P,J3,9,9*%
%TO.N,//IO10*%
X150782610Y-154297584D03*
%TO.P,J3,8,8*%
%TO.N,//IO9*%
X148242610Y-154297584D03*
%TO.P,J3,7,7*%
%TO.N,//IO8*%
X145702580Y-154297584D03*
%TO.P,J3,6,6*%
%TO.N,//IO7*%
X143162580Y-154297584D03*
%TO.P,J3,5,5*%
%TO.N,//IO6*%
X140622610Y-154297584D03*
%TO.P,J3,4,4*%
%TO.N,//IO5*%
X138082600Y-154297584D03*
%TO.P,J3,3,3*%
%TO.N,//IO4*%
X135542600Y-154297584D03*
%TO.P,J3,2,2*%
%TO.N,//IO02*%
X133002600Y-154297584D03*
%TO.P,J3,1,1*%
%TO.N,//IO01*%
X130462600Y-154297584D03*
%TD*%
D12*
%TO.P,J2,1,1*%
%TO.N,GND*%
X166022580Y-92651584D03*
D13*
%TO.P,J2,2,2*%
%TO.N,+5*%
X166022580Y-95191584D03*
%TO.P,J2,3,3*%
%TO.N,GND*%
X163482580Y-92651584D03*
%TO.P,J2,4,4*%
%TO.N,+5*%
X163482580Y-95191584D03*
%TO.P,J2,5,5*%
%TO.N,GND*%
X160942580Y-92651584D03*
%TO.P,J2,6,6*%
%TO.N,+5*%
X160942580Y-95191584D03*
%TO.P,J2,7,7*%
%TO.N,GND*%
X158402580Y-92651584D03*
%TO.P,J2,8,8*%
%TO.N,+5*%
X158402580Y-95191584D03*
%TO.P,J2,9,9*%
%TO.N,GND*%
X155862580Y-92651584D03*
%TO.P,J2,10,10*%
%TO.N,+5*%
X155862580Y-95191584D03*
%TO.P,J2,11,11*%
%TO.N,GND*%
X153322580Y-92651584D03*
%TO.P,J2,12,12*%
%TO.N,+3.3*%
X153322580Y-95191584D03*
%TO.P,J2,13,13*%
%TO.N,GND*%
X150782580Y-92651584D03*
%TO.P,J2,14,14*%
%TO.N,+3.3*%
X150782580Y-95191584D03*
%TO.P,J2,15,15*%
%TO.N,GND*%
X148242580Y-92651584D03*
%TO.P,J2,16,16*%
%TO.N,+3.3*%
X148242580Y-95191584D03*
%TO.P,J2,17,17*%
%TO.N,GND*%
X145702580Y-92651584D03*
%TO.P,J2,18,18*%
%TO.N,+3.3*%
X145702580Y-95191584D03*
%TO.P,J2,19,19*%
%TO.N,GND*%
X143162580Y-92651584D03*
%TO.P,J2,20,20*%
%TO.N,+3.3*%
X143162580Y-95191584D03*
%TO.P,J2,21,21*%
%TO.N,GND*%
X140622580Y-92651584D03*
%TO.P,J2,22,22*%
%TO.N,+3.3*%
X140622580Y-95191584D03*
%TO.P,J2,23,23*%
%TO.N,GND*%
X138082580Y-92651584D03*
%TO.P,J2,24,24*%
%TO.N,+3.3*%
X138082580Y-95191584D03*
%TO.P,J2,25,25*%
%TO.N,GND*%
X135542580Y-92651584D03*
%TO.P,J2,26,26*%
%TO.N,+3.3*%
X135542580Y-95191584D03*
%TO.P,J2,27,27*%
%TO.N,GND*%
X133002580Y-92651584D03*
%TO.P,J2,28,28*%
%TO.N,+3.3*%
X133002580Y-95191584D03*
%TO.P,J2,29,29*%
%TO.N,GND*%
X130462580Y-92651584D03*
%TO.P,J2,30,30*%
%TO.N,+3.3*%
X130462580Y-95191584D03*
%TD*%
D14*
%TO.P,J1,1,1*%
%TO.N,//IO01*%
X130462580Y-88079584D03*
D15*
%TO.P,J1,2,2*%
%TO.N,//IO02*%
X133002580Y-88079584D03*
%TO.P,J1,3,3*%
%TO.N,//IO4*%
X135542580Y-88079584D03*
%TO.P,J1,4,4*%
%TO.N,//IO5*%
X138082580Y-88079584D03*
%TO.P,J1,5,5*%
%TO.N,//IO6*%
X140622580Y-88079584D03*
%TO.P,J1,6,6*%
%TO.N,//IO7*%
X143162580Y-88079584D03*
%TO.P,J1,7,7*%
%TO.N,//IO8*%
X145702580Y-88079584D03*
%TO.P,J1,8,8*%
%TO.N,//IO9*%
X148242580Y-88079584D03*
%TO.P,J1,9,9*%
%TO.N,//IO10*%
X150782580Y-88079584D03*
%TO.P,J1,10,10*%
%TO.N,//IO15*%
X153322580Y-88079584D03*
%TO.P,J1,11,11*%
%TO.N,//IO17*%
X155862580Y-88079584D03*
%TO.P,J1,12,12*%
%TO.N,//IO18*%
X158402580Y-88079584D03*
%TO.P,J1,13,13*%
%TO.N,//IO38*%
X160942580Y-88079584D03*
%TO.P,J1,14,14*%
%TO.N,//IO43*%
X163482580Y-88079584D03*
%TO.P,J1,15,15*%
%TO.N,//IO44*%
X166022580Y-88079584D03*
%TD*%
D16*
%TO.P,F1,2,2*%
%TO.N,//fuse*%
X155440580Y-55105604D03*
%TO.P,F1,1,1*%
%TO.N,+5*%
X155440580Y-53205604D03*
%TD*%
D17*
%TO.P,C1,2,2*%
%TO.N,+3.3*%
X153027580Y-59989614D03*
%TO.P,C1,1,1*%
%TO.N,GND*%
X153027580Y-58989624D03*
%TD*%
D18*
%TO.P,C2,2,2*%
%TO.N,+5*%
X157972600Y-57203594D03*
%TO.P,C2,1,1*%
%TO.N,GND*%
X156972610Y-57203594D03*
%TD*%
%TO.P,R1,2,2*%
%TO.N,Net-(USB1-CC2)*%
X145526600Y-60251594D03*
%TO.P,R1,1,1*%
%TO.N,GND*%
X144526610Y-60251594D03*
%TD*%
%TO.P,R2,2,2*%
%TO.N,Net-(USB1-CC1)*%
X150630580Y-58981594D03*
%TO.P,R2,1,1*%
%TO.N,GND*%
X151630580Y-58981594D03*
%TD*%
D19*
%TO.P,U1,3,I/O_2*%
%TO.N,D_P*%
X147124570Y-60394594D03*
%TO.P,U1,4,Vcc*%
%TO.N,+5*%
X147124570Y-62394594D03*
%TO.P,U1,2,I/O_1*%
%TO.N,D_N*%
X149024590Y-60394594D03*
D20*
%TO.P,U1,1,GND*%
%TO.N,GND*%
X149024590Y-62194594D03*
%TD*%
D21*
%TO.P,U2,3,VIN*%
%TO.N,+5*%
X156694580Y-59616594D03*
%TO.P,U2,2,VOUT*%
%TO.N,+3.3*%
X154694580Y-60566604D03*
%TO.P,U2,1,VSS*%
%TO.N,GND*%
X154694580Y-58666584D03*
%TD*%
D22*
%TO.P,USB1,A6,DP1*%
%TO.N,D_P*%
X148057610Y-57076594D03*
%TO.P,USB1,A7,DN1*%
%TO.N,D_N*%
X147557590Y-57076594D03*
%TO.P,USB1,B6,DP2*%
%TO.N,D_P*%
X147057620Y-57076594D03*
%TO.P,USB1,B8,SBU2*%
%TO.N,unconnected-(USB1-SBU2-PadB8)*%
X146557590Y-57076594D03*
%TO.P,USB1,B7,DN2*%
%TO.N,D_N*%
X148557590Y-57076594D03*
%TO.P,USB1,A5,CC1*%
%TO.N,Net-(USB1-CC1)*%
X149057610Y-57076594D03*
%TO.P,USB1,A8,SBU1*%
%TO.N,unconnected-(USB1-SBU1-PadA8)*%
X149557580Y-57076594D03*
%TO.P,USB1,B5,CC2*%
%TO.N,Net-(USB1-CC2)*%
X146057620Y-57076594D03*
D23*
%TO.P,USB1,A4B9,VBUS*%
%TO.N,//fuse*%
X150207570Y-57076594D03*
%TO.P,USB1,A1B12,GND*%
%TO.N,GND*%
X151007620Y-57076594D03*
%TO.P,USB1,B4A9,VBUS*%
%TO.N,//fuse*%
X145407580Y-57076594D03*
D24*
%TO.P,USB1,B1A12,GND*%
%TO.N,GND*%
X144607580Y-57076594D03*
D25*
%TO.P,USB1,A1B12,GND*%
X152127610Y-56526584D03*
%TO.P,USB1,B1A12,GND*%
X143487590Y-56526584D03*
D26*
%TO.P,USB1,A1B12,GND*%
X152127610Y-52376574D03*
%TO.P,USB1,B1A12,GND*%
X143487590Y-52376574D03*
%TD*%
D10*
%TO.P,,3*%
%TO.N,GND*%
X174744580Y-102227584D03*
%TD*%
%TO.P,,3*%
%TO.N,+3.3*%
X122039580Y-108993234D03*
%TD*%
%TO.P,,3*%
%TO.N,+5*%
X122039580Y-102112114D03*
%TD*%
%TO.P,,3*%
%TO.N,GND*%
X174744580Y-109108694D03*
%TD*%
%TO.P,,3*%
%TO.N,GND*%
X122039580Y-115874294D03*
%TD*%
%TO.P,,3*%
%TO.N,//IO6*%
X122039580Y-129636474D03*
%TD*%
%TO.P,,3*%
%TO.N,GND*%
X122039580Y-122755404D03*
%TD*%
%TO.P,,3*%
%TO.N,//IO02*%
X174744580Y-122870874D03*
%TD*%
%TO.P,,3*%
%TO.N,//IO5*%
X174744580Y-136633054D03*
%TD*%
%TO.P,,3*%
%TO.N,//IO01*%
X174744580Y-115989764D03*
%TD*%
%TO.P,,3*%
%TO.N,//IO7*%
X122039580Y-136517584D03*
%TD*%
D27*
%TO.N,//IO4*%
X170782180Y-126484584D03*
X173195180Y-133190184D03*
X158793380Y-155973984D03*
%TO.N,//IO7*%
X143172380Y-156989984D03*
D28*
%TO.N,//IO01*%
X174617580Y-149662084D03*
D27*
%TO.N,//IO02*%
X171442580Y-147998384D03*
%TO.N,//IO8*%
X166108580Y-146931584D03*
%TO.N,//IO9*%
X163949580Y-144518584D03*
X149852580Y-146169584D03*
%TO.N,//IO8*%
X146804580Y-147058584D03*
D28*
%TO.N,//IO6*%
X121531580Y-155821584D03*
D27*
%TO.N,//IO8*%
X179189580Y-97401584D03*
X150487580Y-83812584D03*
%TO.N,//IO9*%
X150741580Y-85580574D03*
%TO.N,//IO18*%
X169766180Y-105656584D03*
%TO.N,//IO10*%
X154541570Y-83304584D03*
%TO.N,//IO9*%
X177538580Y-96512584D03*
%TO.N,//IO6*%
X140378380Y-83304584D03*
%TO.N,//IO01*%
X170871180Y-157383584D03*
%TO.N,//IO10*%
X162222380Y-150487584D03*
D28*
%TO.N,//IO02*%
X174617580Y-155567584D03*
D27*
%TO.N,+5*%
X158996580Y-60952584D03*
X136390580Y-102227584D03*
D28*
X174617580Y-143756584D03*
D27*
%TO.N,+3.3*%
X131691580Y-136898584D03*
%TO.N,+5*%
X145026580Y-105529584D03*
X117213580Y-98036584D03*
X117086580Y-140581584D03*
D28*
X121531580Y-149916084D03*
D27*
%TO.N,+3.3*%
X132986980Y-106342384D03*
%TO.N,GND*%
X143487590Y-60251594D03*
X157167780Y-90340384D03*
X127221180Y-119499584D03*
D28*
X121531580Y-144010584D03*
%TD*%
D29*
%TO.N,//IO7*%
X124935180Y-152951384D02*
X124935180Y-136517584D01*
%TO.N,//IO5*%
X135237570Y-90924584D02*
X138082580Y-88079584D01*
X129278580Y-90924584D02*
X135237570Y-90924584D01*
X128745180Y-91457984D02*
X129278580Y-90924584D01*
X128745180Y-97325384D02*
X128745180Y-91457984D01*
X128745180Y-97325384D02*
X130650180Y-99230384D01*
X130650180Y-99230384D02*
X138422580Y-99230384D01*
X138422580Y-99230384D02*
X139123770Y-99931574D01*
X139123770Y-103836924D02*
X139123770Y-99931574D01*
X128897580Y-114063124D02*
X139123770Y-103836924D01*
X128897580Y-152392584D02*
X128897580Y-114063124D01*
X128897580Y-152392584D02*
X129532580Y-153027584D01*
X129532580Y-153027584D02*
X136812630Y-153027584D01*
X136812630Y-153027584D02*
X138082630Y-154297584D01*
X138082630Y-154297584D02*
X139263630Y-153116584D01*
X139263630Y-153116584D02*
X146550580Y-153116584D01*
X146550580Y-153116584D02*
X146883630Y-153449634D01*
X146883630Y-154808424D02*
X146883630Y-153449634D01*
X146883630Y-154808424D02*
X147566580Y-155491384D01*
X147566580Y-155491384D02*
X156710580Y-155491384D01*
X156710580Y-155491384D02*
X157218580Y-154983384D01*
X157218580Y-154983384D02*
X157218580Y-153611784D01*
X157218580Y-153611784D02*
X157726580Y-153103784D01*
X157726580Y-153103784D02*
X159250580Y-153103784D01*
X159250580Y-153103784D02*
X159758580Y-153611784D01*
X159758580Y-155465984D02*
X159758580Y-153611784D01*
X159758580Y-155465984D02*
X163466980Y-159174384D01*
X163466980Y-159174384D02*
X171493380Y-159174384D01*
X171493380Y-159174384D02*
X171950580Y-158717184D01*
X171950580Y-158717184D02*
X171950580Y-154424584D01*
X171950580Y-154424584D02*
X173474580Y-152900584D01*
X173474580Y-152900584D02*
X175938380Y-152900584D01*
X175938380Y-152900584D02*
X177284580Y-151554384D01*
X177284580Y-151554384D02*
X177284580Y-148455584D01*
X175811380Y-146982384D02*
X177284580Y-148455584D01*
X173296780Y-146982384D02*
X175811380Y-146982384D01*
X171950580Y-145636184D02*
X173296780Y-146982384D01*
%TO.N,//IO4*%
X170782180Y-129751934D02*
X170782180Y-126484584D01*
X170782180Y-129751934D02*
X174744580Y-129751934D01*
X174744580Y-131259784D02*
X174744580Y-129751934D01*
X174100330Y-131259784D02*
X174744580Y-131259784D01*
X173195180Y-133190184D02*
X173195180Y-132164934D01*
X173195180Y-132164934D02*
X174100330Y-131259784D01*
X146068690Y-155973984D02*
X158793380Y-155973984D01*
X145687690Y-155592984D02*
X146068690Y-155973984D01*
X136838030Y-155592984D02*
X145687690Y-155592984D01*
X135542630Y-154297584D02*
X136838030Y-155592984D01*
%TO.N,//IO01*%
X168775580Y-115989764D02*
X174744580Y-115989764D01*
%TO.N,//IO7*%
X128973780Y-156989984D02*
X143172380Y-156989984D01*
X124935180Y-152951384D02*
X128973780Y-156989984D01*
X122039580Y-136517584D02*
X124935180Y-136517584D01*
%TO.N,//fuse*%
X150207570Y-57777584D02*
X150537770Y-58107784D01*
X150207570Y-57777584D02*
X150207570Y-57076594D01*
X150537770Y-58107784D02*
X153306980Y-58107784D01*
X153306980Y-58107784D02*
X155211980Y-56202784D01*
X155211980Y-56202784D02*
X155211980Y-55105604D01*
X154470400Y-55105604D02*
X155211980Y-55105604D01*
X155211980Y-55105604D02*
X155440580Y-55105604D01*
X153332380Y-53967584D02*
X154470400Y-55105604D01*
X153332380Y-53967584D02*
X153332380Y-51732384D01*
X152646580Y-51046584D02*
X153332380Y-51732384D01*
X142969180Y-51046584D02*
X152646580Y-51046584D01*
X142588180Y-51427584D02*
X142969180Y-51046584D01*
X142588180Y-57574384D02*
X142588180Y-51427584D01*
X142588180Y-57574384D02*
X142994580Y-57980784D01*
X142994580Y-57980784D02*
X145407580Y-57980784D01*
X145407580Y-57980784D02*
X145407580Y-57076594D01*
%TO.N,//IO38*%
X160942580Y-88079584D02*
X164346130Y-91483134D01*
X164346130Y-91483134D02*
X167353590Y-91483134D01*
X167353590Y-123858734D02*
X167353590Y-91483134D01*
X167124580Y-124087734D02*
X167353590Y-123858734D01*
X167124580Y-145331384D02*
X167124580Y-124087734D01*
X167124580Y-145331384D02*
X168292980Y-146499784D01*
X168292980Y-151478184D02*
X168292980Y-146499784D01*
X166667380Y-153103784D02*
X168292980Y-151478184D01*
X162136380Y-153103784D02*
X166667380Y-153103784D01*
X160942580Y-154297584D02*
X162136380Y-153103784D01*
%TO.N,//IO43*%
X163482580Y-88079584D02*
X164879370Y-86682784D01*
X164879370Y-86682784D02*
X167378580Y-86682784D01*
X167378580Y-86682784D02*
X168394580Y-87698784D01*
X168394580Y-124722734D02*
X168394580Y-87698784D01*
X167886580Y-125230734D02*
X168394580Y-124722734D01*
X167886580Y-144063214D02*
X167886580Y-125230734D01*
X167886580Y-144063214D02*
X170045580Y-146222214D01*
X170045580Y-153840384D02*
X170045580Y-146222214D01*
X168394580Y-155491384D02*
X170045580Y-153840384D01*
X164676380Y-155491384D02*
X168394580Y-155491384D01*
X163482580Y-154297584D02*
X164676380Y-155491384D01*
%TO.N,//IO44*%
X166022580Y-88079584D02*
X167734590Y-89791594D01*
X167734590Y-124239734D02*
X167734590Y-89791594D01*
X167505580Y-124468734D02*
X167734590Y-124239734D01*
X167505580Y-144899584D02*
X167505580Y-124468734D01*
X167505580Y-144899584D02*
X169664580Y-147058584D01*
X169664580Y-150655524D02*
X169664580Y-147058584D01*
X166022530Y-154297584D02*
X169664580Y-150655524D01*
%TO.N,//IO8*%
X156636620Y-146931584D02*
X166108580Y-146931584D01*
X156255620Y-147312584D02*
X156636620Y-146931584D01*
X147058580Y-147312584D02*
X156255620Y-147312584D01*
X179189580Y-96766584D02*
X179189580Y-81780584D01*
X177030580Y-79621584D02*
X179189580Y-81780584D01*
X154678580Y-79621584D02*
X177030580Y-79621584D01*
X150487580Y-83812584D02*
X154678580Y-79621584D01*
%TO.N,//IO02*%
X171747380Y-147693584D02*
X171747380Y-146931584D01*
X171442580Y-147998384D02*
X171747380Y-147693584D01*
X171264780Y-146448984D02*
X171747380Y-146931584D01*
X171264780Y-146448984D02*
X171264780Y-141927784D01*
X168775580Y-139438584D02*
X171264780Y-141927784D01*
X168775580Y-139438584D02*
X168775580Y-127017984D01*
X168775580Y-127017984D02*
X169994780Y-125798784D01*
X169994780Y-125798784D02*
X169994780Y-122870874D01*
X169994780Y-122870874D02*
X174744580Y-122870874D01*
%TO.N,//IO10*%
X154541570Y-84320584D02*
X154541570Y-83304584D01*
X150782580Y-88079584D02*
X154541570Y-84320584D01*
X155186580Y-150487584D02*
X162222380Y-150487584D01*
X154678580Y-150995584D02*
X155186580Y-150487584D01*
X154678580Y-152519584D02*
X154678580Y-150995584D01*
X154170580Y-153027584D02*
X154678580Y-152519584D01*
X152052580Y-153027584D02*
X154170580Y-153027584D01*
X150782580Y-154297584D02*
X152052580Y-153027584D01*
%TO.N,//IO01*%
X170871180Y-153408484D02*
X174617580Y-149662084D01*
X171582280Y-149662084D02*
X174617580Y-149662084D01*
X170871180Y-157383584D02*
X170871180Y-153408484D01*
X170426580Y-148506384D02*
X171582280Y-149662084D01*
X170426580Y-148506384D02*
X170426580Y-145471084D01*
X168267580Y-143312084D02*
X170426580Y-145471084D01*
X168267580Y-143312084D02*
X168267580Y-126289964D01*
X168267580Y-126289964D02*
X168775580Y-125781964D01*
X168775580Y-125781964D02*
X168775580Y-115989764D01*
X129405580Y-154297584D02*
X130462630Y-154297584D01*
X128516580Y-153408584D02*
X129405580Y-154297584D01*
X128516580Y-153408584D02*
X128516580Y-113280594D01*
X128516580Y-113280594D02*
X138498780Y-103298394D01*
X138498780Y-103298394D02*
X138498780Y-100652784D01*
X137660580Y-99814584D02*
X138498780Y-100652784D01*
X129202380Y-99814584D02*
X137660580Y-99814584D01*
X128364180Y-98976384D02*
X129202380Y-99814584D01*
X128364180Y-98976384D02*
X128364180Y-88993984D01*
X128364180Y-88993984D02*
X129278580Y-88079584D01*
X129278580Y-88079584D02*
X130462580Y-88079584D01*
%TO.N,//IO9*%
X162298580Y-146169584D02*
X163949580Y-144518584D01*
X150106580Y-146169584D02*
X162298580Y-146169584D01*
X177538580Y-96258584D02*
X177538580Y-84066584D01*
X174998580Y-81526584D02*
X177538580Y-84066584D01*
X154795570Y-81526584D02*
X174998580Y-81526584D01*
X150741580Y-85580574D02*
X154795570Y-81526584D01*
%TO.N,//IO6*%
X140378380Y-87835384D02*
X140378380Y-83304584D01*
X140378380Y-87835384D02*
X140622580Y-88079584D01*
X121531580Y-155821584D02*
X124223980Y-158513984D01*
X124223980Y-158513984D02*
X144010580Y-158513984D01*
X144010580Y-158513984D02*
X144772580Y-157751984D01*
X144518580Y-155973984D02*
X144772580Y-157751984D01*
X129735780Y-155973984D02*
X144518580Y-155973984D01*
X128008580Y-154246784D02*
X129735780Y-155973984D01*
X128008580Y-154246784D02*
X128008580Y-129636474D01*
X122039580Y-129636474D02*
X128008580Y-129636474D01*
%TO.N,//IO18*%
X169410580Y-105656584D02*
X169766180Y-105656584D01*
X168775580Y-105021584D02*
X169410580Y-105656584D01*
X168775580Y-105021584D02*
X168775580Y-86301784D01*
X168648580Y-86174784D02*
X168775580Y-86301784D01*
X160307370Y-86174784D02*
X168648580Y-86174784D01*
X158402580Y-88079584D02*
X160307370Y-86174784D01*
%TO.N,Net-(USB1-CC2)*%
X146057620Y-60251594D02*
X146057620Y-57076594D01*
X145526600Y-60251594D02*
X146057620Y-60251594D01*
%TO.N,Net-(USB1-CC1)*%
X149057610Y-58234784D02*
X149057610Y-57076594D01*
X149057610Y-58234784D02*
X149804420Y-58981594D01*
X149804420Y-58981594D02*
X150630580Y-58981594D01*
%TO.N,+5*%
X157660590Y-59616594D02*
X158996580Y-60952584D01*
%TO.N,GND*%
X161641790Y-63238584D02*
X161790580Y-63089794D01*
X150068580Y-63238584D02*
X161641790Y-63238584D01*
X161790580Y-63089794D02*
X161790580Y-57828384D01*
X149024590Y-62194594D02*
X150068580Y-63238584D01*
X161790580Y-57828384D02*
X162171580Y-57447384D01*
X157574180Y-52341984D02*
X162171580Y-56939384D01*
X162171580Y-57447384D02*
X162171580Y-56939384D01*
%TO.N,+5*%
X156844580Y-59616594D02*
X157660590Y-59616594D01*
X156694580Y-59616594D02*
X156844580Y-59616594D01*
X156544580Y-59616594D02*
X156694580Y-59616594D01*
X156321580Y-59839594D02*
X156544580Y-59616594D01*
X156321580Y-60148824D02*
X156321580Y-59839594D01*
X155003250Y-61467154D02*
X156321580Y-60148824D01*
X148642820Y-61467154D02*
X155003250Y-61467154D01*
X148197480Y-61912494D02*
X148642820Y-61467154D01*
X148197480Y-61972684D02*
X148197480Y-61912494D01*
X147775570Y-62394594D02*
X148197480Y-61972684D01*
X147124570Y-62394594D02*
X147775570Y-62394594D01*
%TO.N,+3.3*%
X145691410Y-61811754D02*
X146550580Y-60952584D01*
X146550580Y-60952584D02*
X152014610Y-60952584D01*
X152014610Y-60952584D02*
X152977580Y-59989614D01*
X153027580Y-59989614D02*
X153077580Y-59989614D01*
X152977580Y-59989614D02*
X153027580Y-59989614D01*
X153654570Y-60566604D02*
X154694580Y-60566604D01*
X153077580Y-59989614D02*
X153654570Y-60566604D01*
X144899580Y-61811754D02*
X145691410Y-61811754D01*
X144899580Y-77346544D02*
X144899580Y-61811754D01*
X139362380Y-82883744D02*
X144899580Y-77346544D01*
%TO.N,GND*%
X158234580Y-85107984D02*
X173474580Y-85107984D01*
X157167780Y-86174784D02*
X158234580Y-85107984D01*
X174744580Y-102227584D02*
X174744580Y-86377984D01*
X157167780Y-90340384D02*
X157167780Y-86174784D01*
X173474580Y-85107984D02*
X174744580Y-86377984D01*
%TO.N,+3.3*%
X129131570Y-93327574D02*
X130995570Y-95191584D01*
X130995570Y-95191584D02*
X133002580Y-95191584D01*
X130462580Y-95191584D02*
X130995570Y-95191584D01*
%TO.N,+5*%
X156844580Y-59616594D02*
X157972600Y-58488564D01*
X157972600Y-58488564D02*
X157972600Y-57203594D01*
X157972600Y-57203594D02*
X157980580Y-57195614D01*
X157980580Y-57195614D02*
X157980580Y-54475584D01*
X155440580Y-53205584D02*
X156710580Y-53205584D01*
X156710580Y-53205584D02*
X157980580Y-54475584D01*
%TO.N,GND*%
X154830980Y-54348584D02*
X156431180Y-54348584D01*
X156431180Y-57203594D02*
X156431180Y-54348584D01*
%TO.N,+5*%
X122039580Y-102112114D02*
X136275110Y-102112114D01*
X136275110Y-102112114D02*
X136390580Y-102227584D01*
%TO.N,+3.3*%
X137391590Y-91320574D02*
X139362380Y-89349784D01*
X129786580Y-91320574D02*
X137391590Y-91320574D01*
X139362380Y-89349784D02*
X139362380Y-82883744D01*
X129131570Y-91975584D02*
X129786580Y-91320574D01*
X129131570Y-93327574D02*
X129131570Y-91975584D01*
%TO.N,+5*%
X162249800Y-141381964D02*
X162249800Y-141381964D01*
X161182830Y-140314994D02*
X162249800Y-141381964D01*
X162249800Y-141381964D02*
X167203600Y-146335764D01*
X161182830Y-140314994D02*
X161182830Y-120527444D01*
X166022600Y-151757584D02*
X167203600Y-150576584D01*
X167203600Y-150576584D02*
X167203600Y-146335764D01*
X166022530Y-151757584D02*
X166022600Y-151757584D01*
%TO.N,+3.3*%
X131691580Y-136898584D02*
X140622580Y-127967584D01*
X140622580Y-127967584D02*
X140622580Y-95191584D01*
X150782580Y-151757584D02*
X153322580Y-151757584D01*
X148242580Y-151757584D02*
X150782580Y-151757584D01*
X145702580Y-151757584D02*
X148242580Y-151757584D01*
X143162580Y-151757584D02*
X145702580Y-151757584D01*
X140622580Y-151757584D02*
X143162580Y-151757584D01*
X138082630Y-151757584D02*
X140622580Y-151757584D01*
X135542630Y-151757584D02*
X138082630Y-151757584D01*
X133002630Y-151757584D02*
X135542630Y-151757584D01*
X130462630Y-151757584D02*
X133002630Y-151757584D01*
%TO.N,+5*%
X163482580Y-151757584D02*
X166022530Y-151757584D01*
X160942580Y-151757584D02*
X163482580Y-151757584D01*
X158402580Y-151757584D02*
X160942580Y-151757584D01*
X155862580Y-151757584D02*
X158402580Y-151757584D01*
X145026580Y-105529584D02*
X146184970Y-105529584D01*
X146184970Y-105529584D02*
X161182830Y-120527444D01*
%TO.N,GND*%
X155862580Y-149217584D02*
X158402580Y-149217584D01*
X158402580Y-149217584D02*
X160942580Y-149217584D01*
X160942580Y-149217584D02*
X163482580Y-149217584D01*
X153322580Y-149217584D02*
X155862580Y-149217584D01*
X143162580Y-149217584D02*
X145702580Y-149217584D01*
X145702580Y-149217584D02*
X148242580Y-149217584D01*
X140622580Y-149217584D02*
X143162580Y-149217584D01*
%TO.N,+3.3*%
X150782580Y-95191584D02*
X153322580Y-95191584D01*
X148242580Y-95191584D02*
X150782580Y-95191584D01*
X145702580Y-95191584D02*
X148242580Y-95191584D01*
X143162580Y-95191584D02*
X145702580Y-95191584D01*
X140622580Y-95191584D02*
X143162580Y-95191584D01*
%TO.N,+5*%
X117213580Y-99699114D02*
X117213580Y-98036584D01*
X119626580Y-102112114D02*
X122039580Y-102112114D01*
X117213580Y-99699114D02*
X119626580Y-102112114D01*
X117086580Y-145471084D02*
X117086580Y-140835584D01*
X117086580Y-145471084D02*
X121531580Y-149916084D01*
%TO.N,GND*%
X149496980Y-91397174D02*
X149496980Y-84549184D01*
X149024590Y-84076794D02*
X149024590Y-62197184D01*
X149024590Y-84076794D02*
X149496980Y-84549184D01*
X148242580Y-92651584D02*
X149496980Y-91397174D01*
X149024590Y-62197184D02*
X149024590Y-62194594D01*
X174744580Y-109108694D02*
X174744580Y-102227584D01*
%TO.N,D_P*%
X147057620Y-57675014D02*
X147057620Y-57076594D01*
X147057620Y-58726634D02*
X147057620Y-57675014D01*
%TO.N,GND*%
X154322980Y-53840584D02*
X154830980Y-54348584D01*
X153809190Y-53326794D02*
X154322980Y-53840584D01*
X151007620Y-57076594D02*
X152127610Y-57076594D01*
X143487590Y-57091784D02*
X144607580Y-57091784D01*
X126865580Y-122755404D02*
X126865580Y-119855184D01*
X143487590Y-60251594D02*
X144526610Y-60251594D01*
X142207180Y-58448194D02*
X143487590Y-60251594D01*
X142207180Y-58448194D02*
X142207180Y-50817984D01*
X142207180Y-50817984D02*
X142486580Y-50538584D01*
X142486580Y-50538584D02*
X153154580Y-50538584D01*
X153154580Y-50538584D02*
X153809190Y-51193194D01*
X153809190Y-53326794D02*
X153809190Y-51193194D01*
%TO.N,+3.3*%
X122039580Y-108993234D02*
X130336130Y-108993234D01*
X130336130Y-108993234D02*
X132986980Y-106342384D01*
%TO.N,D_P*%
X147057620Y-58726634D02*
X147124570Y-58793584D01*
X147124570Y-60394594D02*
X147124570Y-58793584D01*
%TO.N,GND*%
X154678580Y-52341984D02*
X157574180Y-52341984D01*
X154322980Y-52697584D02*
X154678580Y-52341984D01*
X154322980Y-53840584D02*
X154322980Y-52697584D01*
X156431180Y-57203594D02*
X156972610Y-57203594D01*
%TO.N,D_P*%
X148057610Y-57929984D02*
X148057610Y-57076594D01*
X147312580Y-57929984D02*
X148057610Y-57929984D01*
X147057620Y-57675014D02*
X147312580Y-57929984D01*
%TO.N,GND*%
X122039580Y-122755404D02*
X126865580Y-122755404D01*
X126865580Y-119855184D02*
X127221180Y-119499584D01*
%TO.N,D_N*%
X148557590Y-57076594D02*
X148557590Y-55999584D01*
X148252790Y-55694784D02*
X148557590Y-55999584D01*
X148074580Y-55694784D02*
X148252790Y-55694784D01*
X147557590Y-56211774D02*
X148074580Y-55694784D01*
X147557590Y-57076594D02*
X147557590Y-56211774D01*
%TO.N,GND*%
X156972610Y-58031584D02*
X156972610Y-57203594D01*
X156337610Y-58666584D02*
X156972610Y-58031584D01*
X154694580Y-58666584D02*
X156337610Y-58666584D01*
X143487590Y-57091784D02*
X143487590Y-56526584D01*
X144607580Y-57091784D02*
X144607580Y-57076594D01*
X152127610Y-57076594D02*
X152127610Y-56526584D01*
X122039580Y-122755404D02*
X122039580Y-115874294D01*
%TO.N,D_N*%
X148557590Y-58504384D02*
X148557590Y-57076594D01*
X148557590Y-58504384D02*
X149024590Y-58971384D01*
X149024590Y-60394594D02*
X149024590Y-58971384D01*
%TO.N,GND*%
X143487590Y-56526584D02*
X143487590Y-52376574D01*
X152127610Y-56526584D02*
X152127610Y-52376574D01*
X154011020Y-58666584D02*
X154694580Y-58666584D01*
X153687980Y-58989624D02*
X154011020Y-58666584D01*
X153027580Y-58989624D02*
X153687980Y-58989624D01*
X152324410Y-58989624D02*
X153027580Y-58989624D01*
X152316380Y-58981594D02*
X152324410Y-58989624D01*
X151630580Y-58981594D02*
X152316380Y-58981594D01*
X163482580Y-149217584D02*
X166022530Y-149217584D01*
X150782580Y-149217584D02*
X153322580Y-149217584D01*
X148242580Y-149217584D02*
X150782580Y-149217584D01*
X138082630Y-149217584D02*
X140622580Y-149217584D01*
X135542630Y-149217584D02*
X138082630Y-149217584D01*
X133002630Y-149217584D02*
X135542630Y-149217584D01*
X130462630Y-149217584D02*
X133002630Y-149217584D01*
%TO.N,+5*%
X163482580Y-95191584D02*
X166022580Y-95191584D01*
X160942580Y-95191584D02*
X163482580Y-95191584D01*
X158402580Y-95191584D02*
X160942580Y-95191584D01*
X155862580Y-95191584D02*
X158402580Y-95191584D01*
%TO.N,+3.3*%
X138082580Y-95191584D02*
X140622580Y-95191584D01*
X135542580Y-95191584D02*
X138082580Y-95191584D01*
X133002580Y-95191584D02*
X135542580Y-95191584D01*
%TO.N,GND*%
X163482580Y-92651584D02*
X166022580Y-92651584D01*
X160942580Y-92651584D02*
X163482580Y-92651584D01*
X158402580Y-92651584D02*
X160942580Y-92651584D01*
X155862580Y-92651584D02*
X158402580Y-92651584D01*
X153322580Y-92651584D02*
X155862580Y-92651584D01*
X150782580Y-92651584D02*
X153322580Y-92651584D01*
X148242580Y-92651584D02*
X150782580Y-92651584D01*
X145702580Y-92651584D02*
X148242580Y-92651584D01*
X143162580Y-92651584D02*
X145702580Y-92651584D01*
X140622580Y-92651584D02*
X143162580Y-92651584D01*
X138082580Y-92651584D02*
X140622580Y-92651584D01*
X135542580Y-92651584D02*
X138082580Y-92651584D01*
X133002580Y-92651584D02*
X135542580Y-92651584D01*
X130462580Y-92651584D02*
X133002580Y-92651584D01*
%TO.N,//IO5*%
X171950580Y-145636184D02*
X171950580Y-136633054D01*
%TD*%
M02*
