%TF.GenerationSoftware,KiCad,Pcbnew,9.0.6*%
%TF.CreationDate,2025-12-04T14:52:28+01:00*%
%TF.ProjectId,ExtensionBoardBasic,45787465-6e73-4696-9f6e-426f61726442,rev?*%
%TF.SameCoordinates,Original*%
%TF.FileFunction,Copper,L4,Bot*%
%TF.FilePolarity,Positive*%
%FSLAX46Y46*%
G04 Gerber Fmt 4.6, Leading zero omitted, Abs format (unit mm)*
G04 Created by KiCad (PCBNEW 9.0.6) date 2025-12-04 14:52:28*
%MOMM*%
%LPD*%
G01*
G04 APERTURE LIST*
%TA.AperFunction,ComponentPad*%
%ADD10C,1.600000*%
%TD*%
%TA.AperFunction,ComponentPad*%
%ADD11R,1.900000X1.574800*%
%TD*%
%TA.AperFunction,ComponentPad*%
%ADD12C,1.900000*%
%TD*%
%TA.AperFunction,ComponentPad*%
%ADD13R,1.700000X1.574800*%
%TD*%
%TA.AperFunction,ComponentPad*%
%ADD14C,1.700000*%
%TD*%
%TA.AperFunction,ComponentPad*%
%ADD15O,1.000000X2.100000*%
%TD*%
%TA.AperFunction,ComponentPad*%
%ADD16O,1.000000X1.850000*%
%TD*%
%TA.AperFunction,ViaPad*%
%ADD17C,1.270000*%
%TD*%
%TA.AperFunction,ViaPad*%
%ADD18C,4.572000*%
%TD*%
%TA.AperFunction,Conductor*%
%ADD19C,0.254000*%
%TD*%
G04 APERTURE END LIST*
D10*
%TO.P,J3,45,45*%
%TO.N,GND*%
X166022610Y-149217584D03*
%TO.P,J3,44,44*%
X163482610Y-149217584D03*
%TO.P,J3,43,43*%
X160942610Y-149217584D03*
%TO.P,J3,42,42*%
X158402610Y-149217584D03*
%TO.P,J3,41,41*%
X155862610Y-149217584D03*
%TO.P,J3,40,40*%
X153322610Y-149217584D03*
%TO.P,J3,39,39*%
X150782610Y-149217584D03*
%TO.P,J3,38,38*%
X148242610Y-149217584D03*
%TO.P,J3,37,37*%
X145702610Y-149217584D03*
%TO.P,J3,36,36*%
X143162610Y-149217584D03*
%TO.P,J3,35,35*%
X140622610Y-149217584D03*
%TO.P,J3,34,34*%
X138082600Y-149217584D03*
%TO.P,J3,33,33*%
X135542600Y-149217584D03*
%TO.P,J3,32,32*%
X133002600Y-149217584D03*
%TO.P,J3,31,31*%
X130462600Y-149217584D03*
%TO.P,J3,30,30*%
%TO.N,+5*%
X166022610Y-151757584D03*
%TO.P,J3,29,29*%
X163482610Y-151757584D03*
%TO.P,J3,28,28*%
X160942610Y-151757584D03*
%TO.P,J3,27,27*%
X158402610Y-151757584D03*
%TO.P,J3,26,26*%
X155862610Y-151757584D03*
%TO.P,J3,25,25*%
%TO.N,+3.3*%
X153322610Y-151757584D03*
%TO.P,J3,24,24*%
X150782610Y-151757584D03*
%TO.P,J3,23,23*%
X148242610Y-151757584D03*
%TO.P,J3,22,22*%
X145702610Y-151757584D03*
%TO.P,J3,21,21*%
X143162610Y-151757584D03*
%TO.P,J3,20,20*%
X140622610Y-151757584D03*
%TO.P,J3,19,19*%
X138082600Y-151757584D03*
%TO.P,J3,18,18*%
X135542600Y-151757584D03*
%TO.P,J3,17,17*%
X133002600Y-151757584D03*
%TO.P,J3,16,16*%
X130462600Y-151757584D03*
%TO.P,J3,15,15*%
%TO.N,//IO44*%
X166022610Y-154297584D03*
%TO.P,J3,14,14*%
%TO.N,//IO43*%
X163482610Y-154297584D03*
%TO.P,J3,13,13*%
%TO.N,//IO38*%
X160942610Y-154297584D03*
%TO.P,J3,12,12*%
%TO.N,//IO18*%
X158402610Y-154297584D03*
%TO.P,J3,11,11*%
%TO.N,//IO17*%
X155862610Y-154297584D03*
%TO.P,J3,10,10*%
%TO.N,//IO15*%
X153322610Y-154297584D03*
%TO.P,J3,9,9*%
%TO.N,//IO10*%
X150782610Y-154297584D03*
%TO.P,J3,8,8*%
%TO.N,//IO9*%
X148242610Y-154297584D03*
%TO.P,J3,7,7*%
%TO.N,//IO8*%
X145702580Y-154297584D03*
%TO.P,J3,6,6*%
%TO.N,//IO7*%
X143162580Y-154297584D03*
%TO.P,J3,5,5*%
%TO.N,//IO6*%
X140622610Y-154297584D03*
%TO.P,J3,4,4*%
%TO.N,//IO5*%
X138082600Y-154297584D03*
%TO.P,J3,3,3*%
%TO.N,//IO4*%
X135542600Y-154297584D03*
%TO.P,J3,2,2*%
%TO.N,//IO02*%
X133002600Y-154297584D03*
%TO.P,J3,1,1*%
%TO.N,//IO01*%
X130462600Y-154297584D03*
%TD*%
D11*
%TO.P,J2,1,1*%
%TO.N,GND*%
X166022580Y-92651584D03*
D12*
%TO.P,J2,2,2*%
%TO.N,+5*%
X166022580Y-95191584D03*
%TO.P,J2,3,3*%
%TO.N,GND*%
X163482580Y-92651584D03*
%TO.P,J2,4,4*%
%TO.N,+5*%
X163482580Y-95191584D03*
%TO.P,J2,5,5*%
%TO.N,GND*%
X160942580Y-92651584D03*
%TO.P,J2,6,6*%
%TO.N,+5*%
X160942580Y-95191584D03*
%TO.P,J2,7,7*%
%TO.N,GND*%
X158402580Y-92651584D03*
%TO.P,J2,8,8*%
%TO.N,+5*%
X158402580Y-95191584D03*
%TO.P,J2,9,9*%
%TO.N,GND*%
X155862580Y-92651584D03*
%TO.P,J2,10,10*%
%TO.N,+5*%
X155862580Y-95191584D03*
%TO.P,J2,11,11*%
%TO.N,GND*%
X153322580Y-92651584D03*
%TO.P,J2,12,12*%
%TO.N,+3.3*%
X153322580Y-95191584D03*
%TO.P,J2,13,13*%
%TO.N,GND*%
X150782580Y-92651584D03*
%TO.P,J2,14,14*%
%TO.N,+3.3*%
X150782580Y-95191584D03*
%TO.P,J2,15,15*%
%TO.N,GND*%
X148242580Y-92651584D03*
%TO.P,J2,16,16*%
%TO.N,+3.3*%
X148242580Y-95191584D03*
%TO.P,J2,17,17*%
%TO.N,GND*%
X145702580Y-92651584D03*
%TO.P,J2,18,18*%
%TO.N,+3.3*%
X145702580Y-95191584D03*
%TO.P,J2,19,19*%
%TO.N,GND*%
X143162580Y-92651584D03*
%TO.P,J2,20,20*%
%TO.N,+3.3*%
X143162580Y-95191584D03*
%TO.P,J2,21,21*%
%TO.N,GND*%
X140622580Y-92651584D03*
%TO.P,J2,22,22*%
%TO.N,+3.3*%
X140622580Y-95191584D03*
%TO.P,J2,23,23*%
%TO.N,GND*%
X138082580Y-92651584D03*
%TO.P,J2,24,24*%
%TO.N,+3.3*%
X138082580Y-95191584D03*
%TO.P,J2,25,25*%
%TO.N,GND*%
X135542580Y-92651584D03*
%TO.P,J2,26,26*%
%TO.N,+3.3*%
X135542580Y-95191584D03*
%TO.P,J2,27,27*%
%TO.N,GND*%
X133002580Y-92651584D03*
%TO.P,J2,28,28*%
%TO.N,+3.3*%
X133002580Y-95191584D03*
%TO.P,J2,29,29*%
%TO.N,GND*%
X130462580Y-92651584D03*
%TO.P,J2,30,30*%
%TO.N,+3.3*%
X130462580Y-95191584D03*
%TD*%
D13*
%TO.P,J1,1,1*%
%TO.N,//IO01*%
X130462580Y-88079584D03*
D14*
%TO.P,J1,2,2*%
%TO.N,//IO02*%
X133002580Y-88079584D03*
%TO.P,J1,3,3*%
%TO.N,//IO4*%
X135542580Y-88079584D03*
%TO.P,J1,4,4*%
%TO.N,//IO5*%
X138082580Y-88079584D03*
%TO.P,J1,5,5*%
%TO.N,//IO6*%
X140622580Y-88079584D03*
%TO.P,J1,6,6*%
%TO.N,//IO7*%
X143162580Y-88079584D03*
%TO.P,J1,7,7*%
%TO.N,//IO8*%
X145702580Y-88079584D03*
%TO.P,J1,8,8*%
%TO.N,//IO9*%
X148242580Y-88079584D03*
%TO.P,J1,9,9*%
%TO.N,//IO10*%
X150782580Y-88079584D03*
%TO.P,J1,10,10*%
%TO.N,//IO15*%
X153322580Y-88079584D03*
%TO.P,J1,11,11*%
%TO.N,//IO17*%
X155862580Y-88079584D03*
%TO.P,J1,12,12*%
%TO.N,//IO18*%
X158402580Y-88079584D03*
%TO.P,J1,13,13*%
%TO.N,//IO38*%
X160942580Y-88079584D03*
%TO.P,J1,14,14*%
%TO.N,//IO43*%
X163482580Y-88079584D03*
%TO.P,J1,15,15*%
%TO.N,//IO44*%
X166022580Y-88079584D03*
%TD*%
D15*
%TO.P,USB1,A1B12,GND*%
%TO.N,GND*%
X152127610Y-56526584D03*
%TO.P,USB1,B1A12,GND*%
X143487590Y-56526584D03*
D16*
%TO.P,USB1,A1B12,GND*%
X152127610Y-52376574D03*
%TO.P,USB1,B1A12,GND*%
X143487590Y-52376574D03*
%TD*%
D17*
%TO.N,//IO4*%
X170782180Y-126484584D03*
X173195180Y-133190184D03*
X158793380Y-155973984D03*
%TO.N,//IO7*%
X143172380Y-156989984D03*
D18*
%TO.N,//IO01*%
X174617580Y-149662084D03*
D17*
%TO.N,//IO02*%
X171442580Y-147998384D03*
%TO.N,//IO8*%
X166108580Y-146931584D03*
%TO.N,//IO9*%
X163949580Y-144518584D03*
X149852580Y-146169584D03*
%TO.N,//IO8*%
X146804580Y-147058584D03*
D18*
%TO.N,//IO6*%
X121531580Y-155821584D03*
D17*
%TO.N,//IO8*%
X179189580Y-97401584D03*
X150487580Y-83812584D03*
%TO.N,//IO9*%
X150741580Y-85580574D03*
%TO.N,//IO18*%
X169766180Y-105656584D03*
%TO.N,//IO10*%
X154541570Y-83304584D03*
%TO.N,//IO9*%
X177538580Y-96512584D03*
%TO.N,//IO6*%
X140378380Y-83304584D03*
%TO.N,//IO01*%
X170871180Y-157383584D03*
%TO.N,//IO10*%
X162222380Y-150487584D03*
D18*
%TO.N,//IO02*%
X174617580Y-155567584D03*
D17*
%TO.N,+5*%
X158996580Y-60952584D03*
X136390580Y-102227584D03*
D18*
X174617580Y-143756584D03*
D17*
%TO.N,+3.3*%
X131691580Y-136898584D03*
%TO.N,+5*%
X145026580Y-105529584D03*
X117213580Y-98036584D03*
X117086580Y-140581584D03*
D18*
X121531580Y-149916084D03*
D17*
%TO.N,+3.3*%
X132986980Y-106342384D03*
%TO.N,GND*%
X143487590Y-60251594D03*
X157167780Y-90340384D03*
X127221180Y-119499584D03*
D18*
X121531580Y-144010584D03*
%TD*%
D19*
%TO.N,//IO4*%
X170782180Y-126484584D02*
X170782180Y-89375184D01*
X165727580Y-84320584D02*
X170782180Y-89375184D01*
X154120730Y-84320584D02*
X165727580Y-84320584D01*
X152596730Y-82796584D02*
X154120730Y-84320584D01*
X146792360Y-82796584D02*
X152596730Y-82796584D01*
X173195180Y-137050984D02*
X173195180Y-133190184D01*
X145268360Y-84320584D02*
X146792360Y-82796584D01*
X164711580Y-145534584D02*
X173195180Y-137050984D01*
X139463980Y-84320584D02*
X145268360Y-84320584D01*
X164711580Y-152544984D02*
X164711580Y-145534584D01*
X136847780Y-86936784D02*
X139463980Y-84320584D01*
X164228980Y-153027584D02*
X164711580Y-152544984D01*
X136847780Y-87749584D02*
X136847780Y-86936784D01*
X159863180Y-153027584D02*
X164228980Y-153027584D01*
X136517780Y-88079584D02*
X136847780Y-87749584D01*
X159761580Y-155005784D02*
X159761580Y-153129184D01*
X159761580Y-153129184D02*
X159863180Y-153027584D01*
X135542580Y-88079584D02*
X136517780Y-88079584D01*
X158793380Y-155973984D02*
X159761580Y-155005784D01*
%TO.N,//IO7*%
X143172380Y-156989984D02*
X143172380Y-154297584D01*
X142184570Y-153319584D02*
X143162580Y-154297584D01*
X143162580Y-154297584D02*
X143172380Y-154297584D01*
X141826180Y-152735584D02*
X142184570Y-153093984D01*
X142184570Y-153319584D02*
X142184570Y-153093984D01*
X141826180Y-152735584D02*
X141826180Y-128414984D01*
X128999180Y-115587984D02*
X141826180Y-128414984D01*
X128999180Y-115587984D02*
X128999180Y-91686584D01*
X128999180Y-91686584D02*
X130370780Y-90314984D01*
X130370780Y-90314984D02*
X141390210Y-90314984D01*
X141390210Y-90314984D02*
X142269610Y-89435584D01*
X142269610Y-89435584D02*
X142269610Y-88972544D01*
X142269610Y-88972544D02*
X143162580Y-88079584D01*
%TO.N,//IO15*%
X153322580Y-88079584D02*
X154617770Y-86784384D01*
X154617770Y-86784384D02*
X166667380Y-86784384D01*
X166667380Y-86784384D02*
X167378580Y-87495584D01*
X167378580Y-97731784D02*
X167378580Y-87495584D01*
X154576980Y-110533384D02*
X167378580Y-97731784D01*
X154576980Y-153043184D02*
X154576980Y-110533384D01*
X153322580Y-154297584D02*
X154576980Y-153043184D01*
%TO.N,//IO17*%
X154617770Y-89324384D02*
X155862580Y-88079584D01*
X152646580Y-89324384D02*
X154617770Y-89324384D01*
X152087780Y-88765584D02*
X152646580Y-89324384D01*
X152087780Y-88765584D02*
X152087780Y-87368584D01*
X152087780Y-87368584D02*
X153154580Y-86301784D01*
X153154580Y-86301784D02*
X167109090Y-86301784D01*
X167109090Y-86301784D02*
X167759580Y-86952274D01*
X167759580Y-99458984D02*
X167759580Y-86952274D01*
X157066180Y-110152384D02*
X167759580Y-99458984D01*
X157066180Y-153093984D02*
X157066180Y-110152384D01*
X155862580Y-154297584D02*
X157066180Y-153093984D01*
%TO.N,//IO8*%
X166108580Y-147185584D02*
X179189580Y-134104584D01*
X179189580Y-134104584D02*
X179189580Y-97401584D01*
X146883600Y-153116584D02*
X146883600Y-147137604D01*
X146804580Y-147058584D02*
X146883600Y-147137604D01*
X145702600Y-154297584D02*
X146883600Y-153116584D01*
X145702580Y-154297584D02*
X145702600Y-154297584D01*
X150293180Y-84006984D02*
X150487580Y-83812584D01*
X149775170Y-84006984D02*
X150293180Y-84006984D01*
X145702580Y-88079584D02*
X149775170Y-84006984D01*
%TO.N,//IO02*%
X171442580Y-154551584D02*
X171442580Y-147998384D01*
X171442580Y-154551584D02*
X172458580Y-155567584D01*
X172458580Y-155567584D02*
X174617580Y-155567584D01*
X161231780Y-155567584D02*
X172458580Y-155567584D01*
X159809380Y-156989984D02*
X161231780Y-155567584D01*
X145788940Y-156989984D02*
X159809380Y-156989984D01*
X144772940Y-158005984D02*
X145788940Y-156989984D01*
X136711030Y-158005984D02*
X144772940Y-158005984D01*
X134196430Y-155491384D02*
X136711030Y-158005984D01*
X133002630Y-154297584D02*
X134196430Y-155491384D01*
X134196430Y-155491384D02*
X141470580Y-155491384D01*
X141470580Y-155491384D02*
X141803570Y-155158394D01*
X141803570Y-155158394D02*
X141803570Y-153462174D01*
X141279980Y-152938584D02*
X141803570Y-153462174D01*
X139946580Y-152938584D02*
X141279980Y-152938584D01*
X139438580Y-152430584D02*
X139946580Y-152938584D01*
X139438580Y-152430584D02*
X139438580Y-140479984D01*
X128618180Y-129659584D02*
X139438580Y-140479984D01*
X128618180Y-129659584D02*
X128618180Y-90416584D01*
X128618180Y-90416584D02*
X129786580Y-89248184D01*
X129786580Y-89248184D02*
X131833970Y-89248184D01*
X131833970Y-89248184D02*
X133002580Y-88079584D01*
%TO.N,//IO10*%
X154541570Y-83304584D02*
X166210180Y-83304584D01*
X166210180Y-83304584D02*
X171798180Y-88892584D01*
X171798180Y-134993584D02*
X171798180Y-88892584D01*
X162222380Y-144569384D02*
X171798180Y-134993584D01*
X162222380Y-150487584D02*
X162222380Y-144569384D01*
%TO.N,//IO01*%
X169867780Y-158386984D02*
X170871180Y-157383584D01*
X134552030Y-158386984D02*
X169867780Y-158386984D01*
X130462630Y-154297584D02*
X134552030Y-158386984D01*
%TO.N,//IO9*%
X163949580Y-144518584D02*
X165188770Y-144518584D01*
X165188770Y-144518584D02*
X172179180Y-137528164D01*
X172179180Y-137528164D02*
X172179180Y-101871984D01*
X149852580Y-148477424D02*
X149852580Y-146169584D01*
X172179180Y-101871984D02*
X177538580Y-96512584D01*
X149601600Y-148728404D02*
X149852580Y-148477424D01*
X149601600Y-152938584D02*
X149601600Y-148728404D01*
X148242600Y-154297584D02*
X149601600Y-152938584D01*
X148242580Y-154297584D02*
X148242600Y-154297584D01*
X150741580Y-85580574D02*
X150741580Y-85336584D01*
X148242580Y-88079584D02*
X150741580Y-85580574D01*
%TO.N,//IO6*%
X128516580Y-83304584D02*
X140378380Y-83304584D01*
X118864580Y-92956584D02*
X128516580Y-83304584D01*
X118864580Y-152519584D02*
X118864580Y-92956584D01*
X118864580Y-152519584D02*
X121531580Y-155186584D01*
X121531580Y-155821584D02*
X121531580Y-155186584D01*
X121531580Y-155821584D02*
X124249380Y-153103784D01*
X124249380Y-153103784D02*
X139060580Y-153103784D01*
X139060580Y-153103784D02*
X139419070Y-153462284D01*
X139419070Y-153462284D02*
X139787270Y-153462284D01*
X139787270Y-153462284D02*
X140622580Y-154297584D01*
%TO.N,//IO18*%
X159656980Y-115765784D02*
X169766180Y-105656584D01*
X159656980Y-152459184D02*
X159656980Y-115765784D01*
X159380580Y-152735584D02*
X159656980Y-152459184D01*
X159380580Y-153319584D02*
X159380580Y-152735584D01*
X158402580Y-154297584D02*
X159380580Y-153319584D01*
%TO.N,+5*%
X117213580Y-92956584D02*
X149217580Y-60952584D01*
X117213580Y-98036584D02*
X117213580Y-92956584D01*
X149217580Y-60952584D02*
X158996580Y-60952584D01*
%TO.N,GND*%
X126662380Y-86835184D02*
X133647380Y-86835184D01*
X122344380Y-143197784D02*
X122344380Y-91153184D01*
X122344380Y-91153184D02*
X126662380Y-86835184D01*
X134307780Y-88765584D02*
X134866580Y-89324384D01*
X134307780Y-88765584D02*
X134307780Y-87495584D01*
X133647380Y-86835184D02*
X134307780Y-87495584D01*
%TO.N,+5*%
X136390580Y-102227584D02*
X139692580Y-105529584D01*
X139692580Y-105529584D02*
X145026580Y-105529584D01*
X174247540Y-143756584D02*
X174617580Y-143756584D01*
X166246540Y-151757584D02*
X174247540Y-143756584D01*
X166022530Y-151757584D02*
X166246540Y-151757584D01*
%TO.N,+3.3*%
X131691580Y-150528634D02*
X131691580Y-137152584D01*
X130462630Y-151757584D02*
X131691580Y-150528634D01*
%TO.N,+5*%
X148455580Y-102100584D02*
X148953570Y-102100584D01*
X145026580Y-105529584D02*
X148455580Y-102100584D01*
X148953570Y-102100584D02*
X155862580Y-95191584D01*
X117086580Y-140581584D02*
X117086580Y-98417584D01*
%TO.N,GND*%
X157167780Y-90340384D02*
X159478980Y-92651584D01*
%TO.N,+3.3*%
X129380180Y-102735584D02*
X132986980Y-106342384D01*
X129380180Y-102735584D02*
X129380180Y-96273974D01*
%TO.N,GND*%
X163482580Y-92651584D02*
X166022580Y-92651584D01*
X160942580Y-92651584D02*
X163482580Y-92651584D01*
X159478980Y-92651584D02*
X160942580Y-92651584D01*
X140622580Y-92651584D02*
X142842380Y-92651584D01*
X138082580Y-92651584D02*
X140622580Y-92651584D01*
X135542580Y-92651584D02*
X138082580Y-92651584D01*
X133002580Y-92651584D02*
X135542580Y-92651584D01*
X130462580Y-92651584D02*
X133002580Y-92651584D01*
X142842380Y-92651584D02*
X144416980Y-91076984D01*
X122344380Y-143197784D02*
X127221180Y-138320984D01*
X121531580Y-144010584D02*
X122344380Y-143197784D01*
X134866580Y-89324384D02*
X141572180Y-89324384D01*
X141572180Y-89324384D02*
X141876980Y-89019584D01*
X141876980Y-89019584D02*
X141876980Y-87444784D01*
X141876980Y-87444784D02*
X142486580Y-86835184D01*
X142486580Y-86835184D02*
X143756580Y-86835184D01*
X143756580Y-86835184D02*
X144416980Y-87495584D01*
X144416980Y-91076984D02*
X144416980Y-87495584D01*
%TO.N,+3.3*%
X129380180Y-96273974D02*
X130462580Y-95191584D01*
%TO.N,GND*%
X143487590Y-60251594D02*
X143487590Y-56526584D01*
X127221180Y-138320984D02*
X127221180Y-119499584D01*
X143487590Y-56526584D02*
X143487590Y-55237584D01*
X143487590Y-55237584D02*
X152127610Y-55237584D01*
X152127610Y-56526584D02*
X152127610Y-55237584D01*
X126738580Y-149217584D02*
X130462630Y-149217584D01*
X121531580Y-144010584D02*
X126738580Y-149217584D01*
%TD*%
M02*
