M48
; DRILL file {KiCad 9.0.6} date 2025-12-04T12:23:33+0100
; FORMAT={-:-/ absolute / metric / decimal}
; #@! TF.CreationDate,2025-12-04T12:23:33+01:00
; #@! TF.GenerationSoftware,Kicad,Pcbnew,9.0.6
; #@! TF.FileFunction,Plated,1,4,PTH
FMAT,2
METRIC
; #@! TA.AperFunction,Plated,PTH,ComponentDrill
T1C0.650
; #@! TA.AperFunction,Plated,PTH,ComponentDrill
T2C0.700
; #@! TA.AperFunction,Plated,PTH,ComponentDrill
T3C0.700
; #@! TA.AperFunction,Plated,PTH,ViaDrill
T4C0.711
; #@! TA.AperFunction,Plated,PTH,ComponentDrill
T5C1.020
; #@! TA.AperFunction,Plated,PTH,ComponentDrill
T6C1.100
%
G90
G05
T2
X166.695Y-87.995
X172.475Y-87.995
T3
X136.526Y-89.094
X136.526Y-91.634
X136.526Y-94.174
X136.526Y-96.714
X136.526Y-99.254
X136.526Y-101.794
X136.526Y-104.334
X136.526Y-106.874
X160.526Y-89.094
X160.526Y-91.634
X160.526Y-94.174
X160.526Y-96.714
X160.526Y-99.254
X160.526Y-101.794
X160.526Y-104.334
X160.526Y-106.874
T4
X120.18Y-107.636
X120.18Y-109.287
X121.704Y-109.668
X121.958Y-101.032
X122.331Y-119.719
X123.203Y-106.95
X125.438Y-106.747
X127.8Y-120.971
X128.054Y-102.837
X130.594Y-99.254
X131.28Y-85.183
X131.356Y-94.174
X131.907Y-92.029
X132.016Y-112.742
X132.245Y-114.596
X133.032Y-87.342
X133.134Y-91.075
X133.769Y-115.891
X134.175Y-89.297
X134.404Y-96.333
X135.649Y-113.151
X135.801Y-109.008
X136.538Y-115.485
X137.427Y-109.084
X138.239Y-112.919
X138.29Y-90.669
X139.738Y-112.259
X141.135Y-107.382
X141.262Y-94.631
X141.44Y-102.709
X141.643Y-89.094
X142.38Y-111.649
X142.783Y-108.214
X142.837Y-96.638
X144.467Y-98.614
X144.485Y-119.854
X144.564Y-106.95
X144.564Y-109.109
X144.97Y-83.151
X145.402Y-102.861
X146.494Y-107.306
X146.596Y-109.414
X147.18Y-112.157
X147.256Y-102.709
X148.653Y-102.861
X149.646Y-119.854
X150.203Y-106.773
X150.609Y-109.363
X150.736Y-112.386
X151.93Y-99.127
X152.387Y-108.551
X152.971Y-95.444
X153.149Y-112.386
X153.86Y-99.686
X154.495Y-106.798
X155.232Y-95.063
X155.384Y-93.26
X155.842Y-107.357
X157.772Y-108.215
X158.661Y-103.699
X159.042Y-87.342
X159.042Y-94.53
X161.404Y-109.363
X162.649Y-103.572
X163.487Y-100.143
X163.97Y-108.322
X166.916Y-90.618
X169.532Y-93.971
X171.488Y-90.618
X172.377Y-83.133
X172.809Y-116.298
X175.06Y-94.784
T5
X130.746Y-117.923
X133.286Y-117.923
X135.826Y-117.923
X138.366Y-117.923
X140.906Y-117.923
X143.446Y-117.923
X145.986Y-117.923
X148.526Y-117.923
X151.066Y-117.923
X153.606Y-117.923
X156.146Y-117.923
X158.686Y-117.923
X161.226Y-117.923
X163.766Y-117.923
X166.306Y-117.923
T6
X130.746Y-122.495
X130.746Y-125.035
X133.286Y-122.495
X133.286Y-125.035
X135.826Y-122.495
X135.826Y-125.035
X138.366Y-122.495
X138.366Y-125.035
X140.906Y-122.495
X140.906Y-125.035
X143.446Y-122.495
X143.446Y-125.035
X145.986Y-122.495
X145.986Y-125.035
X148.526Y-122.495
X148.526Y-125.035
X151.066Y-122.495
X151.066Y-125.035
X153.606Y-122.495
X153.606Y-125.035
X156.146Y-122.495
X156.146Y-125.035
X158.686Y-122.495
X158.686Y-125.035
X161.226Y-122.495
X161.226Y-125.035
X163.766Y-122.495
X163.766Y-125.035
X166.306Y-122.495
X166.306Y-125.035
T1
G00X165.265Y-84.795
M15
G01X165.265Y-83.995
M16
G05
G00X165.265Y-89.095
M15
G01X165.265Y-87.995
M16
G05
G00X173.905Y-84.795
M15
G01X173.905Y-83.995
M16
G05
G00X173.905Y-89.095
M15
G01X173.905Y-87.995
M16
G05
M30
