%TF.GenerationSoftware,KiCad,Pcbnew,9.0.6*%
%TF.CreationDate,2025-12-04T12:23:30+01:00*%
%TF.ProjectId,Motherboard,4d6f7468-6572-4626-9f61-72642e6b6963,rev?*%
%TF.SameCoordinates,Original*%
%TF.FileFunction,Soldermask,Top*%
%TF.FilePolarity,Negative*%
%FSLAX46Y46*%
G04 Gerber Fmt 4.6, Leading zero omitted, Abs format (unit mm)*
G04 Created by KiCad (PCBNEW 9.0.6) date 2025-12-04 12:23:30*
%MOMM*%
%LPD*%
G01*
G04 APERTURE LIST*
G04 Aperture macros list*
%AMRoundRect*
0 Rectangle with rounded corners*
0 $1 Rounding radius*
0 $2 $3 $4 $5 $6 $7 $8 $9 X,Y pos of 4 corners*
0 Add a 4 corners polygon primitive as box body*
4,1,4,$2,$3,$4,$5,$6,$7,$8,$9,$2,$3,0*
0 Add four circle primitives for the rounded corners*
1,1,$1+$1,$2,$3*
1,1,$1+$1,$4,$5*
1,1,$1+$1,$6,$7*
1,1,$1+$1,$8,$9*
0 Add four rect primitives between the rounded corners*
20,1,$1+$1,$2,$3,$4,$5,0*
20,1,$1+$1,$4,$5,$6,$7,0*
20,1,$1+$1,$6,$7,$8,$9,0*
20,1,$1+$1,$8,$9,$2,$3,0*%
G04 Aperture macros list end*
%ADD10RoundRect,0.060000X-0.300000X-0.350000X0.300000X-0.350000X0.300000X0.350000X-0.300000X0.350000X0*%
%ADD11O,0.660010X2.532020*%
%ADD12R,0.350000X0.450000*%
%ADD13R,0.450000X0.350000*%
%ADD14R,0.350000X0.375000*%
%ADD15R,0.375000X0.350000*%
%ADD16RoundRect,0.060000X0.350000X-0.300000X0.350000X0.300000X-0.350000X0.300000X-0.350000X-0.300000X0*%
%ADD17C,1.300000*%
%ADD18RoundRect,0.101600X0.950000X0.787400X-0.950000X0.787400X-0.950000X-0.787400X0.950000X-0.787400X0*%
%ADD19C,2.103200*%
%ADD20C,1.570000*%
%ADD21R,1.570000X1.570000*%
%ADD22RoundRect,0.101600X0.500000X0.725000X-0.500000X0.725000X-0.500000X-0.725000X0.500000X-0.725000X0*%
%ADD23RoundRect,0.101600X-0.295000X-0.225000X0.295000X-0.225000X0.295000X0.225000X-0.295000X0.225000X0*%
%ADD24RoundRect,0.101600X1.200025X-1.200025X1.200025X1.200025X-1.200025X1.200025X-1.200025X-1.200025X0*%
%ADD25RoundRect,0.060000X0.300000X0.350000X-0.300000X0.350000X-0.300000X-0.350000X0.300000X-0.350000X0*%
%ADD26RoundRect,0.101600X0.500000X-0.350000X0.500000X0.350000X-0.500000X0.350000X-0.500000X-0.350000X0*%
%ADD27RoundRect,0.060000X-0.350000X0.300000X-0.350000X-0.300000X0.350000X-0.300000X0.350000X0.300000X0*%
%ADD28RoundRect,0.101600X-0.450000X-0.450000X0.450000X-0.450000X0.450000X0.450000X-0.450000X0.450000X0*%
%ADD29RoundRect,0.101600X-0.750000X-0.450000X0.750000X-0.450000X0.750000X0.450000X-0.750000X0.450000X0*%
%ADD30RoundRect,0.101600X0.450000X-0.750000X0.450000X0.750000X-0.450000X0.750000X-0.450000X-0.750000X0*%
%ADD31RoundRect,0.101600X0.750000X0.450000X-0.750000X0.450000X-0.750000X-0.450000X0.750000X-0.450000X0*%
%ADD32RoundRect,0.060000X0.150000X0.575000X-0.150000X0.575000X-0.150000X-0.575000X0.150000X-0.575000X0*%
%ADD33RoundRect,0.060000X0.250000X0.575000X-0.250000X0.575000X-0.250000X-0.575000X0.250000X-0.575000X0*%
%ADD34O,1.203200X2.053200*%
%ADD35O,1.203200X2.303200*%
%ADD36RoundRect,0.060000X0.250000X0.550000X-0.250000X0.550000X-0.250000X-0.550000X0.250000X-0.550000X0*%
%ADD37C,0.204200*%
%ADD38RoundRect,0.101600X0.350000X0.500000X-0.350000X0.500000X-0.350000X-0.500000X0.350000X-0.500000X0*%
%ADD39RoundRect,0.101600X0.450000X0.300000X-0.450000X0.300000X-0.450000X-0.300000X0.450000X-0.300000X0*%
%ADD40RoundRect,0.101600X0.250000X0.300000X-0.250000X0.300000X-0.250000X-0.300000X0.250000X-0.300000X0*%
G04 APERTURE END LIST*
D10*
%TO.C,R9*%
X128466099Y-84517115D03*
X129466099Y-84517115D03*
%TD*%
D11*
%TO.C,U6*%
X155511099Y-104842115D03*
X154241099Y-104842115D03*
X152971099Y-104842115D03*
X151701099Y-104842115D03*
X150431099Y-104842115D03*
X144081099Y-104842115D03*
X145351099Y-104842115D03*
X146621099Y-104842115D03*
X147891099Y-104842115D03*
X149161099Y-104842115D03*
X142811099Y-104842115D03*
X141541099Y-104842115D03*
X141541099Y-114494115D03*
X142811099Y-114494115D03*
X149161099Y-114494115D03*
X147891099Y-114494115D03*
X146621099Y-114494115D03*
X145351099Y-114494115D03*
X144081099Y-114494115D03*
X150431099Y-114494115D03*
X151701099Y-114494115D03*
X152971099Y-114494115D03*
X154241099Y-114494115D03*
X155511099Y-114494115D03*
%TD*%
D12*
%TO.C,U5*%
X123744099Y-102112115D03*
X124244099Y-102112115D03*
X124744099Y-102112115D03*
D13*
X125469099Y-102337115D03*
X125469099Y-102837115D03*
X125469099Y-103337115D03*
X125469099Y-103837115D03*
X125469099Y-104337115D03*
D12*
X124744099Y-104562115D03*
X124244099Y-104562115D03*
X123744099Y-104562115D03*
D13*
X123019099Y-104337115D03*
X123019099Y-103837115D03*
X123019099Y-103337115D03*
X123019099Y-102837115D03*
X123019099Y-102337115D03*
%TD*%
D14*
%TO.C,U4*%
X124252109Y-108398125D03*
X124752109Y-108398125D03*
X124752109Y-109923125D03*
X124252109Y-109923125D03*
D15*
X125264609Y-108410625D03*
X125264609Y-108910625D03*
X125264609Y-109410625D03*
X125264609Y-109910625D03*
X123739609Y-109910625D03*
X123739609Y-109410625D03*
X123739609Y-108910625D03*
X123739609Y-108410625D03*
%TD*%
D10*
%TO.C,R8*%
X128316099Y-86681115D03*
X129316099Y-86681115D03*
%TD*%
D16*
%TO.C,R7*%
X139738099Y-108009115D03*
X139738099Y-107009115D03*
%TD*%
D17*
%TO.C,L1*%
X136526119Y-89094115D03*
X136526119Y-91634115D03*
X136526119Y-94174115D03*
X136526119Y-96714115D03*
X136526119Y-99254125D03*
X136526119Y-101794125D03*
X136526119Y-104334125D03*
X136526119Y-106874125D03*
X160526079Y-106874125D03*
X160526079Y-104334125D03*
X160526079Y-101794125D03*
X160526079Y-99254125D03*
X160526079Y-96714115D03*
X160526079Y-94174115D03*
X160526079Y-91634115D03*
X160526079Y-89094115D03*
%TD*%
D18*
%TO.C,J2*%
X166306099Y-122495115D03*
D19*
X166306099Y-125035115D03*
X163766099Y-122495115D03*
X163766099Y-125035115D03*
X161226099Y-122495115D03*
X161226099Y-125035115D03*
X158686099Y-122495115D03*
X158686099Y-125035115D03*
X156146099Y-122495115D03*
X156146099Y-125035115D03*
X153606099Y-122495115D03*
X153606099Y-125035115D03*
X151066099Y-122495115D03*
X151066099Y-125035115D03*
X148526099Y-122495115D03*
X148526099Y-125035115D03*
X145986099Y-122495115D03*
X145986099Y-125035115D03*
X143446099Y-122495115D03*
X143446099Y-125035115D03*
X140906099Y-122495115D03*
X140906099Y-125035115D03*
X138366099Y-122495115D03*
X138366099Y-125035115D03*
X135826099Y-122495115D03*
X135826099Y-125035115D03*
X133286099Y-122495115D03*
X133286099Y-125035115D03*
X130746099Y-122495115D03*
X130746099Y-125035115D03*
%TD*%
D20*
%TO.C,J1*%
X130746099Y-117923115D03*
X133286099Y-117923115D03*
X135826099Y-117923115D03*
X138366099Y-117923115D03*
X140906099Y-117923115D03*
X143446099Y-117923115D03*
X145986099Y-117923115D03*
X148526099Y-117923115D03*
X151066099Y-117923115D03*
X153606099Y-117923115D03*
X156146099Y-117923115D03*
X158686099Y-117923115D03*
X161226099Y-117923115D03*
X163766099Y-117923115D03*
D21*
X166306099Y-117923115D03*
%TD*%
D22*
%TO.C,F1*%
X165839099Y-92269115D03*
X167739099Y-92269115D03*
%TD*%
D23*
%TO.C,D1*%
X125983099Y-99000115D03*
X128093099Y-99000115D03*
%TD*%
D24*
%TO.C,BUZ1*%
X122168159Y-96630935D03*
X122168409Y-89431555D03*
X129368039Y-89431295D03*
X129368039Y-96630935D03*
%TD*%
D16*
%TO.C,C1*%
X166027099Y-93936115D03*
X166027099Y-94936115D03*
%TD*%
%TO.C,C2*%
X167170099Y-93928095D03*
X167170099Y-94928085D03*
%TD*%
D10*
%TO.C,C3*%
X124490119Y-99254115D03*
X123490129Y-99254115D03*
%TD*%
D25*
%TO.C,C4*%
X123490079Y-100270115D03*
X124490069Y-100270115D03*
%TD*%
D10*
%TO.C,C5*%
X122323099Y-111954115D03*
X121323099Y-111954115D03*
%TD*%
%TO.C,C6*%
X122331119Y-113224115D03*
X121331129Y-113224115D03*
%TD*%
D25*
%TO.C,C7*%
X123363079Y-111954115D03*
X124363069Y-111954115D03*
%TD*%
D26*
%TO.C,Q1*%
X124133099Y-85665115D03*
X126133099Y-84715105D03*
X126133099Y-86615125D03*
%TD*%
D27*
%TO.C,R1*%
X171234099Y-92896135D03*
X171234099Y-91896145D03*
%TD*%
%TO.C,R2*%
X169964099Y-92896135D03*
X169964099Y-91896145D03*
%TD*%
D10*
%TO.C,R3*%
X162971119Y-98492115D03*
X161971129Y-98492115D03*
%TD*%
D27*
%TO.C,R4*%
X130594099Y-103691135D03*
X130594099Y-102691145D03*
%TD*%
%TO.C,R5*%
X165392099Y-99754135D03*
X165392099Y-98754145D03*
%TD*%
D16*
%TO.C,R6*%
X165392099Y-96722095D03*
X165392099Y-97722085D03*
%TD*%
D28*
%TO.C,U1*%
X148426069Y-92245135D03*
X148426069Y-90845085D03*
X148426069Y-89445095D03*
X147026069Y-92245135D03*
X147026069Y-90845085D03*
X147026069Y-89445095D03*
X145626069Y-92245135D03*
X145626069Y-90845085D03*
X145626069Y-89445095D03*
D29*
X157276089Y-83125115D03*
X157276089Y-84395115D03*
X157276089Y-85665115D03*
X157276089Y-86935115D03*
X157276089Y-88205115D03*
X157276089Y-89475115D03*
X157276089Y-90745115D03*
X157276089Y-92015115D03*
X157276089Y-93285115D03*
X157276089Y-94555115D03*
X157276089Y-95825115D03*
X157276089Y-97095115D03*
X157276089Y-98365115D03*
X157276089Y-99635115D03*
D30*
X155511089Y-101185125D03*
X154241089Y-101185125D03*
X152971089Y-101185125D03*
X151701089Y-101185125D03*
X150431089Y-101185125D03*
X149161089Y-101185125D03*
X147891089Y-101185125D03*
X146621089Y-101185125D03*
X145351089Y-101185125D03*
X144081089Y-101185125D03*
X142811089Y-101185125D03*
X141541089Y-101185125D03*
D31*
X139776099Y-99635115D03*
X139776099Y-98365115D03*
X139776099Y-97095115D03*
X139776099Y-95825115D03*
X139776099Y-94555115D03*
X139776099Y-93285115D03*
X139776099Y-92015115D03*
X139776099Y-90745115D03*
X139776099Y-89475115D03*
X139776099Y-88205115D03*
X139776099Y-86935115D03*
X139776099Y-85665115D03*
X139776099Y-84395115D03*
X139776099Y-83125115D03*
%TD*%
D32*
%TO.C,USB1*%
X168335099Y-89095135D03*
X170335139Y-89095135D03*
X168835119Y-89095135D03*
X167835119Y-89095135D03*
D33*
X167185139Y-89095135D03*
D34*
X165265099Y-84395115D03*
D35*
X165265099Y-88545115D03*
D36*
X166385139Y-89095135D03*
D32*
X171335139Y-89095135D03*
X169335089Y-89095135D03*
X169835119Y-89095135D03*
X170835119Y-89095135D03*
D33*
X171985129Y-89095135D03*
X172785129Y-89095135D03*
D34*
X173905109Y-84395115D03*
D35*
X173905109Y-88545115D03*
D37*
X166695119Y-87995105D03*
X172475089Y-87995105D03*
%TD*%
D38*
%TO.C,U7*%
X173327109Y-95460115D03*
X171427089Y-95460115D03*
X172377099Y-97460115D03*
%TD*%
D39*
%TO.C,U2*%
X176860099Y-91573105D03*
D40*
X175060099Y-91573105D03*
X175060099Y-93473125D03*
X177060099Y-93473125D03*
%TD*%
M02*
