%TF.GenerationSoftware,KiCad,Pcbnew,9.0.6*%
%TF.CreationDate,2025-12-04T12:23:30+01:00*%
%TF.ProjectId,Motherboard,4d6f7468-6572-4626-9f61-72642e6b6963,rev?*%
%TF.SameCoordinates,Original*%
%TF.FileFunction,Copper,L1,Top*%
%TF.FilePolarity,Positive*%
%FSLAX46Y46*%
G04 Gerber Fmt 4.6, Leading zero omitted, Abs format (unit mm)*
G04 Created by KiCad (PCBNEW 9.0.6) date 2025-12-04 12:23:30*
%MOMM*%
%LPD*%
G01*
G04 APERTURE LIST*
%TA.AperFunction,SMDPad,CuDef*%
%ADD10R,0.600000X0.700000*%
%TD*%
%TA.AperFunction,SMDPad,CuDef*%
%ADD11O,0.559990X2.432000*%
%TD*%
%TA.AperFunction,SMDPad,CuDef*%
%ADD12R,0.350000X0.450000*%
%TD*%
%TA.AperFunction,SMDPad,CuDef*%
%ADD13R,0.450000X0.350000*%
%TD*%
%TA.AperFunction,SMDPad,CuDef*%
%ADD14R,0.350000X0.375000*%
%TD*%
%TA.AperFunction,SMDPad,CuDef*%
%ADD15R,0.375000X0.350000*%
%TD*%
%TA.AperFunction,SMDPad,CuDef*%
%ADD16R,0.700000X0.600000*%
%TD*%
%TA.AperFunction,ComponentPad*%
%ADD17C,1.200000*%
%TD*%
%TA.AperFunction,ComponentPad*%
%ADD18R,1.900000X1.574800*%
%TD*%
%TA.AperFunction,ComponentPad*%
%ADD19C,1.900000*%
%TD*%
%TA.AperFunction,ComponentPad*%
%ADD20C,1.570000*%
%TD*%
%TA.AperFunction,ComponentPad*%
%ADD21R,1.570000X1.570000*%
%TD*%
%TA.AperFunction,SMDPad,CuDef*%
%ADD22R,1.000000X1.450000*%
%TD*%
%TA.AperFunction,SMDPad,CuDef*%
%ADD23R,0.590000X0.450000*%
%TD*%
%TA.AperFunction,SMDPad,CuDef*%
%ADD24R,2.400050X2.400050*%
%TD*%
%TA.AperFunction,SMDPad,CuDef*%
%ADD25R,1.000000X0.700000*%
%TD*%
%TA.AperFunction,SMDPad,CuDef*%
%ADD26R,0.900000X0.900000*%
%TD*%
%TA.AperFunction,SMDPad,CuDef*%
%ADD27R,1.500000X0.900000*%
%TD*%
%TA.AperFunction,SMDPad,CuDef*%
%ADD28R,0.900000X1.500000*%
%TD*%
%TA.AperFunction,SMDPad,CuDef*%
%ADD29R,0.300000X1.150000*%
%TD*%
%TA.AperFunction,SMDPad,CuDef*%
%ADD30R,0.500000X1.150000*%
%TD*%
%TA.AperFunction,ComponentPad*%
%ADD31O,1.000000X1.850000*%
%TD*%
%TA.AperFunction,ComponentPad*%
%ADD32O,1.000000X2.100000*%
%TD*%
%TA.AperFunction,SMDPad,CuDef*%
%ADD33R,0.500000X1.100000*%
%TD*%
%TA.AperFunction,ComponentPad*%
%ADD34C,0.001000*%
%TD*%
%TA.AperFunction,SMDPad,CuDef*%
%ADD35R,0.700000X1.000000*%
%TD*%
%TA.AperFunction,SMDPad,CuDef*%
%ADD36R,0.900000X0.600000*%
%TD*%
%TA.AperFunction,SMDPad,CuDef*%
%ADD37R,0.500000X0.600000*%
%TD*%
%TA.AperFunction,ViaPad*%
%ADD38C,1.270000*%
%TD*%
%TA.AperFunction,Conductor*%
%ADD39C,0.200000*%
%TD*%
%TA.AperFunction,Conductor*%
%ADD40C,0.254000*%
%TD*%
G04 APERTURE END LIST*
D10*
%TO.P,R9,1,1*%
%TO.N,GND*%
X128466099Y-84517115D03*
%TO.P,R9,2,2*%
%TO.N,/BUZZER_SIG*%
X129466099Y-84517115D03*
%TD*%
D11*
%TO.P,U6,1,DIN*%
%TO.N,/IO14*%
X155511099Y-104842115D03*
%TO.P,U6,2,DIG0*%
%TO.N,/DIG0*%
X154241099Y-104842115D03*
%TO.P,U6,3,DIG4*%
%TO.N,/DIG4*%
X152971099Y-104842115D03*
%TO.P,U6,4,GND*%
%TO.N,GND*%
X151701099Y-104842115D03*
%TO.P,U6,5,DIG6*%
%TO.N,/DIG6*%
X150431099Y-104842115D03*
%TO.P,U6,10,DIG5*%
%TO.N,/DIG5*%
X144081099Y-104842115D03*
%TO.P,U6,9,GND*%
%TO.N,GND*%
X145351099Y-104842115D03*
%TO.P,U6,8,DIG7*%
%TO.N,/DIG7*%
X146621099Y-104842115D03*
%TO.P,U6,7,DIG3*%
%TO.N,/DIG3*%
X147891099Y-104842115D03*
%TO.P,U6,6,DIG2*%
%TO.N,/DIG2*%
X149161099Y-104842115D03*
%TO.P,U6,11,DIG1*%
%TO.N,/DIG1*%
X142811099Y-104842115D03*
%TO.P,U6,12,LOAD(CS#)*%
%TO.N,/IO12*%
X141541099Y-104842115D03*
%TO.P,U6,13,CLK*%
%TO.N,/IO13*%
X141541099Y-114494115D03*
%TO.P,U6,14,SEGA*%
%TO.N,/SEGA*%
X142811099Y-114494115D03*
%TO.P,U6,19,V+*%
%TO.N,+5*%
X149161099Y-114494115D03*
%TO.P,U6,18,ISET*%
%TO.N,Net-(U6-ISET)*%
X147891099Y-114494115D03*
%TO.P,U6,17,SEGG*%
%TO.N,/SEGG*%
X146621099Y-114494115D03*
%TO.P,U6,16,SEGB*%
%TO.N,/SEGB*%
X145351099Y-114494115D03*
%TO.P,U6,15,SEGF*%
%TO.N,/SEGF*%
X144081099Y-114494115D03*
%TO.P,U6,20,SEGC*%
%TO.N,/SEGC*%
X150431099Y-114494115D03*
%TO.P,U6,21,SEGE*%
%TO.N,/SEGE*%
X151701099Y-114494115D03*
%TO.P,U6,22,SEGDP*%
%TO.N,/SEGDP*%
X152971099Y-114494115D03*
%TO.P,U6,23,SEGD*%
%TO.N,/SEGD*%
X154241099Y-114494115D03*
%TO.P,U6,24,DOUT*%
%TO.N,unconnected-(U6-DOUT-Pad24)*%
X155511099Y-114494115D03*
%TD*%
D12*
%TO.P,U5,16,ADC1*%
%TO.N,unconnected-(U5-ADC1-Pad16)*%
X123744099Y-102112115D03*
%TO.P,U5,15,ADC2*%
%TO.N,unconnected-(U5-ADC2-Pad15)*%
X124244099Y-102112115D03*
%TO.P,U5,14,Vdd*%
%TO.N,+3.3*%
X124744099Y-102112115D03*
D13*
%TO.P,U5,13,ADC3*%
%TO.N,unconnected-(U5-ADC3-Pad13)*%
X125469099Y-102337115D03*
%TO.P,U5,12,GND*%
%TO.N,GND*%
X125469099Y-102837115D03*
%TO.P,U5,11,INT1*%
%TO.N,unconnected-(U5-INT1-Pad11)*%
X125469099Y-103337115D03*
%TO.P,U5,10,RES*%
%TO.N,GND*%
X125469099Y-103837115D03*
%TO.P,U5,9,INT2*%
%TO.N,unconnected-(U5-INT2-Pad9)*%
X125469099Y-104337115D03*
D12*
%TO.P,U5,8,CS*%
%TO.N,+3.3*%
X124744099Y-104562115D03*
%TO.P,U5,7,SDO/SA0*%
%TO.N,unconnected-(U5-SDO{slash}SA0-Pad7)*%
X124244099Y-104562115D03*
%TO.P,U5,6,SDA/SDI/SDO*%
%TO.N,/SDA*%
X123744099Y-104562115D03*
D13*
%TO.P,U5,5,GND*%
%TO.N,GND*%
X123019099Y-104337115D03*
%TO.P,U5,4,SCL/SPC*%
%TO.N,/SCL*%
X123019099Y-103837115D03*
%TO.P,U5,3,NC*%
%TO.N,unconnected-(U5-NC-Pad3)*%
X123019099Y-103337115D03*
%TO.P,U5,2,NC*%
%TO.N,unconnected-(U5-NC-Pad2)*%
X123019099Y-102837115D03*
%TO.P,U5,1,Vdd_IO*%
%TO.N,+3.3*%
X123019099Y-102337115D03*
%TD*%
D14*
%TO.P,U4,12,NC*%
%TO.N,unconnected-(U4-NC-Pad12)*%
X124252109Y-108398125D03*
%TO.P,U4,11,NC*%
%TO.N,unconnected-(U4-NC-Pad11)*%
X124752109Y-108398125D03*
%TO.P,U4,6,GND*%
%TO.N,GND*%
X124752109Y-109923125D03*
%TO.P,U4,5,C1*%
%TO.N,Net-(U4-C1)*%
X124252109Y-109923125D03*
D15*
%TO.P,U4,10,VDD_IO*%
%TO.N,+3.3*%
X125264609Y-108410625D03*
%TO.P,U4,9,VDD*%
X125264609Y-108910625D03*
%TO.P,U4,8,GND*%
%TO.N,GND*%
X125264609Y-109410625D03*
%TO.P,U4,7,INT/DRDY/SDO*%
%TO.N,unconnected-(U4-INT{slash}DRDY{slash}SDO-Pad7)*%
X125264609Y-109910625D03*
%TO.P,U4,4,SDA/SDI/SDO*%
%TO.N,/SDA*%
X123739609Y-109910625D03*
%TO.P,U4,3,CS*%
%TO.N,+3.3*%
X123739609Y-109410625D03*
%TO.P,U4,2,NC*%
%TO.N,unconnected-(U4-NC-Pad2)*%
X123739609Y-108910625D03*
%TO.P,U4,1,SCL/SPC*%
%TO.N,/SCL*%
X123739609Y-108410625D03*
%TD*%
D10*
%TO.P,R8,1,1*%
%TO.N,Net-(Q1-G)*%
X128316099Y-86681115D03*
%TO.P,R8,2,2*%
%TO.N,/BUZZER_SIG*%
X129316099Y-86681115D03*
%TD*%
D16*
%TO.P,R7,1,1*%
%TO.N,+5*%
X139738099Y-108009115D03*
%TO.P,R7,2,2*%
%TO.N,Net-(U6-ISET)*%
X139738099Y-107009115D03*
%TD*%
D17*
%TO.P,L1,16,COL8*%
%TO.N,/SEGG*%
X136526119Y-89094115D03*
%TO.P,L1,15,COL7*%
%TO.N,/SEGF*%
X136526119Y-91634115D03*
%TO.P,L1,14,ROW2*%
%TO.N,/DIG1*%
X136526119Y-94174115D03*
%TO.P,L1,13,COL1*%
%TO.N,/SEGDP*%
X136526119Y-96714115D03*
%TO.P,L1,12,ROW4*%
%TO.N,/DIG3*%
X136526119Y-99254125D03*
%TO.P,L1,11,COL6*%
%TO.N,/SEGE*%
X136526119Y-101794125D03*
%TO.P,L1,10,COL4*%
%TO.N,/SEGC*%
X136526119Y-104334125D03*
%TO.P,L1,9,ROW1*%
%TO.N,/DIG0*%
X136526119Y-106874125D03*
%TO.P,L1,8,ROW3*%
%TO.N,/DIG2*%
X160526079Y-106874125D03*
%TO.P,L1,7,ROW6*%
%TO.N,/DIG5*%
X160526079Y-104334125D03*
%TO.P,L1,6,COL5*%
%TO.N,/SEGD*%
X160526079Y-101794125D03*
%TO.P,L1,5,ROW8*%
%TO.N,/DIG7*%
X160526079Y-99254125D03*
%TO.P,L1,4,COL3*%
%TO.N,/SEGB*%
X160526079Y-96714115D03*
%TO.P,L1,3,COL2*%
%TO.N,/SEGA*%
X160526079Y-94174115D03*
%TO.P,L1,2,ROW7*%
%TO.N,/DIG6*%
X160526079Y-91634115D03*
%TO.P,L1,1,ROW5*%
%TO.N,/DIG4*%
X160526079Y-89094115D03*
%TD*%
D18*
%TO.P,J2,1,1*%
%TO.N,GND*%
X166306099Y-122495115D03*
D19*
%TO.P,J2,2,2*%
%TO.N,+3.3*%
X166306099Y-125035115D03*
%TO.P,J2,3,3*%
%TO.N,GND*%
X163766099Y-122495115D03*
%TO.P,J2,4,4*%
%TO.N,+3.3*%
X163766099Y-125035115D03*
%TO.P,J2,5,5*%
%TO.N,GND*%
X161226099Y-122495115D03*
%TO.P,J2,6,6*%
%TO.N,+3.3*%
X161226099Y-125035115D03*
%TO.P,J2,7,7*%
%TO.N,GND*%
X158686099Y-122495115D03*
%TO.P,J2,8,8*%
%TO.N,+3.3*%
X158686099Y-125035115D03*
%TO.P,J2,9,9*%
%TO.N,GND*%
X156146099Y-122495115D03*
%TO.P,J2,10,10*%
%TO.N,+3.3*%
X156146099Y-125035115D03*
%TO.P,J2,11,11*%
%TO.N,GND*%
X153606099Y-122495115D03*
%TO.P,J2,12,12*%
%TO.N,+3.3*%
X153606099Y-125035115D03*
%TO.P,J2,13,13*%
%TO.N,GND*%
X151066099Y-122495115D03*
%TO.P,J2,14,14*%
%TO.N,+3.3*%
X151066099Y-125035115D03*
%TO.P,J2,15,15*%
%TO.N,GND*%
X148526099Y-122495115D03*
%TO.P,J2,16,16*%
%TO.N,+3.3*%
X148526099Y-125035115D03*
%TO.P,J2,17,17*%
%TO.N,GND*%
X145986099Y-122495115D03*
%TO.P,J2,18,18*%
%TO.N,+3.3*%
X145986099Y-125035115D03*
%TO.P,J2,19,19*%
%TO.N,GND*%
X143446099Y-122495115D03*
%TO.P,J2,20,20*%
%TO.N,+3.3*%
X143446099Y-125035115D03*
%TO.P,J2,21,21*%
%TO.N,GND*%
X140906099Y-122495115D03*
%TO.P,J2,22,22*%
%TO.N,+5*%
X140906099Y-125035115D03*
%TO.P,J2,23,23*%
%TO.N,GND*%
X138366099Y-122495115D03*
%TO.P,J2,24,24*%
%TO.N,+5*%
X138366099Y-125035115D03*
%TO.P,J2,25,25*%
%TO.N,GND*%
X135826099Y-122495115D03*
%TO.P,J2,26,26*%
%TO.N,+5*%
X135826099Y-125035115D03*
%TO.P,J2,27,27*%
%TO.N,GND*%
X133286099Y-122495115D03*
%TO.P,J2,28,28*%
%TO.N,+5*%
X133286099Y-125035115D03*
%TO.P,J2,29,29*%
%TO.N,GND*%
X130746099Y-122495115D03*
%TO.P,J2,30,30*%
%TO.N,+5*%
X130746099Y-125035115D03*
%TD*%
D20*
%TO.P,J1,15,15*%
%TO.N,/IO44*%
X130746099Y-117923115D03*
%TO.P,J1,14,14*%
%TO.N,/IO43*%
X133286099Y-117923115D03*
%TO.P,J1,13,13*%
%TO.N,/IO38*%
X135826099Y-117923115D03*
%TO.P,J1,12,12*%
%TO.N,/IO18*%
X138366099Y-117923115D03*
%TO.P,J1,11,11*%
%TO.N,/IO17*%
X140906099Y-117923115D03*
%TO.P,J1,10,10*%
%TO.N,/IO15*%
X143446099Y-117923115D03*
%TO.P,J1,9,9*%
%TO.N,/IO10*%
X145986099Y-117923115D03*
%TO.P,J1,8,8*%
%TO.N,/IO9*%
X148526099Y-117923115D03*
%TO.P,J1,7,7*%
%TO.N,/IO8*%
X151066099Y-117923115D03*
%TO.P,J1,6,6*%
%TO.N,/IO7*%
X153606099Y-117923115D03*
%TO.P,J1,5,5*%
%TO.N,/IO6*%
X156146099Y-117923115D03*
%TO.P,J1,4,4*%
%TO.N,/IO5*%
X158686099Y-117923115D03*
%TO.P,J1,3,3*%
%TO.N,/IO4*%
X161226099Y-117923115D03*
%TO.P,J1,2,2*%
%TO.N,/IO02*%
X163766099Y-117923115D03*
D21*
%TO.P,J1,1,1*%
%TO.N,/IO01*%
X166306099Y-117923115D03*
%TD*%
D22*
%TO.P,F1,2,2*%
%TO.N,/fuse*%
X165839099Y-92269115D03*
%TO.P,F1,1,1*%
%TO.N,+5*%
X167739099Y-92269115D03*
%TD*%
D23*
%TO.P,D1,1,A*%
%TO.N,Net-(D1-A)*%
X125983099Y-99000115D03*
%TO.P,D1,2,K*%
%TO.N,+5*%
X128093099Y-99000115D03*
%TD*%
D24*
%TO.P,BUZ1,4,4*%
%TO.N,unconnected-(BUZ1-Pad4)*%
X122168159Y-96630935D03*
%TO.P,BUZ1,3,3*%
%TO.N,unconnected-(BUZ1-Pad3)*%
X122168409Y-89431555D03*
%TO.P,BUZ1,2,2*%
%TO.N,Net-(D1-A)*%
X129368039Y-89431295D03*
%TO.P,BUZ1,1,+*%
%TO.N,+5*%
X129368039Y-96630935D03*
%TD*%
D16*
%TO.P,C1,2,2*%
%TO.N,+5*%
X166027099Y-93936115D03*
%TO.P,C1,1,1*%
%TO.N,GND*%
X166027099Y-94936115D03*
%TD*%
%TO.P,C2,2,2*%
%TO.N,+3.3*%
X167170099Y-93928095D03*
%TO.P,C2,1,1*%
%TO.N,GND*%
X167170099Y-94928085D03*
%TD*%
D10*
%TO.P,C3,2,2*%
%TO.N,+3.3*%
X124490119Y-99254115D03*
%TO.P,C3,1,1*%
%TO.N,GND*%
X123490129Y-99254115D03*
%TD*%
%TO.P,C4,2,2*%
%TO.N,GND*%
X123490079Y-100270115D03*
%TO.P,C4,1,1*%
%TO.N,+3.3*%
X124490069Y-100270115D03*
%TD*%
%TO.P,C5,2,2*%
%TO.N,GND*%
X122323099Y-111954115D03*
%TO.P,C5,1,1*%
%TO.N,Net-(U4-C1)*%
X121323099Y-111954115D03*
%TD*%
%TO.P,C6,2,2*%
%TO.N,+3.3*%
X122331119Y-113224115D03*
%TO.P,C6,1,1*%
%TO.N,GND*%
X121331129Y-113224115D03*
%TD*%
%TO.P,C7,2,2*%
%TO.N,+3.3*%
X123363079Y-111954115D03*
%TO.P,C7,1,1*%
%TO.N,GND*%
X124363069Y-111954115D03*
%TD*%
D25*
%TO.P,Q1,3,D*%
%TO.N,Net-(D1-A)*%
X124133099Y-85665115D03*
%TO.P,Q1,2,S*%
%TO.N,GND*%
X126133099Y-84715105D03*
%TO.P,Q1,1,G*%
%TO.N,Net-(Q1-G)*%
X126133099Y-86615125D03*
%TD*%
D16*
%TO.P,R1,2,2*%
%TO.N,Net-(USB1-CC2)*%
X171234099Y-92896135D03*
%TO.P,R1,1,1*%
%TO.N,GND*%
X171234099Y-91896145D03*
%TD*%
%TO.P,R2,2,2*%
%TO.N,Net-(USB1-CC1)*%
X169964099Y-92896135D03*
%TO.P,R2,1,1*%
%TO.N,GND*%
X169964099Y-91896145D03*
%TD*%
D10*
%TO.P,R3,2,2*%
%TO.N,+3.3*%
X162971119Y-98492115D03*
%TO.P,R3,1,1*%
%TO.N,/B1*%
X161971129Y-98492115D03*
%TD*%
D16*
%TO.P,R4,2,2*%
%TO.N,+3.3*%
X130594099Y-103691135D03*
%TO.P,R4,1,1*%
%TO.N,/B2*%
X130594099Y-102691145D03*
%TD*%
%TO.P,R5,2,2*%
%TO.N,/SDA*%
X165392099Y-99754135D03*
%TO.P,R5,1,1*%
%TO.N,+3.3*%
X165392099Y-98754145D03*
%TD*%
%TO.P,R6,2,2*%
%TO.N,/SCL*%
X165392099Y-96722095D03*
%TO.P,R6,1,1*%
%TO.N,+3.3*%
X165392099Y-97722085D03*
%TD*%
D26*
%TO.P,U1,41,GND*%
%TO.N,GND*%
X148426069Y-92245135D03*
X148426069Y-90845085D03*
X148426069Y-89445095D03*
X147026069Y-92245135D03*
X147026069Y-90845085D03*
X147026069Y-89445095D03*
X145626069Y-92245135D03*
X145626069Y-90845085D03*
X145626069Y-89445095D03*
D27*
%TO.P,U1,40,GND*%
X157276089Y-83125115D03*
%TO.P,U1,39,IO1*%
%TO.N,/IO01*%
X157276089Y-84395115D03*
%TO.P,U1,38,IO2*%
%TO.N,/IO02*%
X157276089Y-85665115D03*
%TO.P,U1,37,IO43*%
%TO.N,/IO43*%
X157276089Y-86935115D03*
%TO.P,U1,36,IO44*%
%TO.N,/IO44*%
X157276089Y-88205115D03*
%TO.P,U1,35,TMS_(IO42)*%
%TO.N,unconnected-(U1D-TMS_(IO42)-Pad35)*%
X157276089Y-89475115D03*
%TO.P,U1,34,TDI_(IO41)*%
%TO.N,unconnected-(U1D-TDI_(IO41)-Pad34)*%
X157276089Y-90745115D03*
%TO.P,U1,33,TDO_(IO40)*%
%TO.N,unconnected-(U1D-TDO_(IO40)-Pad33)*%
X157276089Y-92015115D03*
%TO.P,U1,32,TCK_(IO39)*%
%TO.N,unconnected-(U1D-TCK_(IO39)-Pad32)*%
X157276089Y-93285115D03*
%TO.P,U1,31,IO38*%
%TO.N,/IO38*%
X157276089Y-94555115D03*
%TO.P,U1,30,IO37*%
%TO.N,/BUZZER_SIG*%
X157276089Y-95825115D03*
%TO.P,U1,29,IO36*%
%TO.N,/SCL*%
X157276089Y-97095115D03*
%TO.P,U1,28,IO35*%
%TO.N,/SDA*%
X157276089Y-98365115D03*
%TO.P,U1,27,Boot_(IO0)*%
%TO.N,unconnected-(U1C-Boot_(IO0)-Pad27)*%
X157276089Y-99635115D03*
D28*
%TO.P,U1,26,VDD_SPI_(IO45)*%
%TO.N,unconnected-(U1C-VDD_SPI_(IO45)-Pad26)*%
X155511089Y-101185125D03*
%TO.P,U1,25,IO48*%
%TO.N,/B1*%
X154241089Y-101185125D03*
%TO.P,U1,24,IO47*%
%TO.N,/B2*%
X152971089Y-101185125D03*
%TO.P,U1,23,IO21*%
%TO.N,unconnected-(U1A-IO21-Pad23)*%
X151701089Y-101185125D03*
%TO.P,U1,22,IO14*%
%TO.N,/IO14*%
X150431089Y-101185125D03*
%TO.P,U1,21,IO13*%
%TO.N,/IO13*%
X149161089Y-101185125D03*
%TO.P,U1,20,IO12*%
%TO.N,/IO12*%
X147891089Y-101185125D03*
%TO.P,U1,19,IO11*%
%TO.N,/IO11*%
X146621089Y-101185125D03*
%TO.P,U1,18,IO10*%
%TO.N,/IO10*%
X145351089Y-101185125D03*
%TO.P,U1,17,IO9*%
%TO.N,/IO9*%
X144081089Y-101185125D03*
%TO.P,U1,16,Boot_(IO46)*%
%TO.N,unconnected-(U1C-Boot_(IO46)-Pad16)*%
X142811089Y-101185125D03*
%TO.P,U1,15,JTAG_SRC_(IO3)*%
%TO.N,unconnected-(U1C-JTAG_SRC_(IO3)-Pad15)*%
X141541089Y-101185125D03*
D27*
%TO.P,U1,14,IO20*%
%TO.N,D_P*%
X139776099Y-99635115D03*
%TO.P,U1,13,IO19*%
%TO.N,D_N*%
X139776099Y-98365115D03*
%TO.P,U1,12,IO8*%
%TO.N,/IO8*%
X139776099Y-97095115D03*
%TO.P,U1,11,IO18*%
%TO.N,/IO18*%
X139776099Y-95825115D03*
%TO.P,U1,10,IO17*%
%TO.N,/IO17*%
X139776099Y-94555115D03*
%TO.P,U1,9,IO16*%
%TO.N,/IO16*%
X139776099Y-93285115D03*
%TO.P,U1,8,IO15*%
%TO.N,/IO15*%
X139776099Y-92015115D03*
%TO.P,U1,7,IO7*%
%TO.N,/IO7*%
X139776099Y-90745115D03*
%TO.P,U1,6,IO6*%
%TO.N,/IO6*%
X139776099Y-89475115D03*
%TO.P,U1,5,IO5*%
%TO.N,/IO5*%
X139776099Y-88205115D03*
%TO.P,U1,4,IO4*%
%TO.N,/IO4*%
X139776099Y-86935115D03*
%TO.P,U1,3,EN*%
%TO.N,+3.3*%
X139776099Y-85665115D03*
%TO.P,U1,2,3V3*%
X139776099Y-84395115D03*
%TO.P,U1,1,GND*%
%TO.N,GND*%
X139776099Y-83125115D03*
%TD*%
D29*
%TO.P,USB1,B8,SBU2*%
%TO.N,unconnected-(USB1-SBU2-PadB8)*%
X168335099Y-89095135D03*
%TO.P,USB1,B7,DN2*%
%TO.N,D_N*%
X170335139Y-89095135D03*
%TO.P,USB1,B6,DP2*%
%TO.N,D_P*%
X168835119Y-89095135D03*
%TO.P,USB1,B5,CC2*%
%TO.N,Net-(USB1-CC2)*%
X167835119Y-89095135D03*
D30*
%TO.P,USB1,B4A9,VBUS*%
%TO.N,/fuse*%
X167185139Y-89095135D03*
D31*
%TO.P,USB1,B1A12,GND*%
%TO.N,GND*%
X165265099Y-84395115D03*
D32*
X165265099Y-88545115D03*
D33*
X166385139Y-89095135D03*
D29*
%TO.P,USB1,A8,SBU1*%
%TO.N,unconnected-(USB1-SBU1-PadA8)*%
X171335139Y-89095135D03*
%TO.P,USB1,A7,DN1*%
%TO.N,D_N*%
X169335089Y-89095135D03*
%TO.P,USB1,A6,DP1*%
%TO.N,D_P*%
X169835119Y-89095135D03*
%TO.P,USB1,A5,CC1*%
%TO.N,Net-(USB1-CC1)*%
X170835119Y-89095135D03*
D30*
%TO.P,USB1,A4B9,VBUS*%
%TO.N,/fuse*%
X171985129Y-89095135D03*
%TO.P,USB1,A1B12,GND*%
%TO.N,GND*%
X172785129Y-89095135D03*
D31*
X173905109Y-84395115D03*
D32*
X173905109Y-88545115D03*
D34*
%TO.P,USB1,*%
%TO.N,*%
X166695119Y-87995105D03*
X172475089Y-87995105D03*
%TD*%
D35*
%TO.P,U7,1,VSS*%
%TO.N,GND*%
X173327109Y-95460115D03*
%TO.P,U7,2,VOUT*%
%TO.N,+3.3*%
X171427089Y-95460115D03*
%TO.P,U7,3,VIN*%
%TO.N,+5*%
X172377099Y-97460115D03*
%TD*%
D36*
%TO.P,U2,1,GND*%
%TO.N,GND*%
X176860099Y-91573105D03*
D37*
%TO.P,U2,2,I/O_1*%
%TO.N,D_N*%
X175060099Y-91573105D03*
%TO.P,U2,3,I/O_2*%
%TO.N,D_P*%
X175060099Y-93473125D03*
%TO.P,U2,4,Vcc*%
%TO.N,+5*%
X177060099Y-93473125D03*
%TD*%
D38*
%TO.N,/IO44*%
X159042099Y-94529715D03*
%TO.N,/IO43*%
X133032499Y-87341515D03*
X159042099Y-87341515D03*
%TO.N,/IO38*%
X155384499Y-93259715D03*
X131356099Y-94174115D03*
%TO.N,/IO17*%
X141262099Y-94631315D03*
X134404099Y-96333115D03*
%TO.N,/IO9*%
X141439899Y-102708515D03*
X141135099Y-107382115D03*
%TO.N,/IO8*%
X138239499Y-112919315D03*
%TO.N,/IO7*%
X133769099Y-115891115D03*
X138290299Y-90668915D03*
X134175499Y-89297315D03*
%TO.N,/IO6*%
X132016499Y-112741515D03*
X141643099Y-89094115D03*
X131906869Y-92029495D03*
%TO.N,/IO5*%
X136537699Y-115484715D03*
%TO.N,/IO4*%
X135648699Y-113150705D03*
%TO.N,/BUZZER_SIG*%
X131279899Y-85182515D03*
X155232099Y-95063115D03*
%TO.N,/SEGG*%
X147180299Y-112157315D03*
%TO.N,/SEGF*%
X132245099Y-114595715D03*
X133134099Y-91075315D03*
X144485109Y-119853515D03*
%TO.N,/DIG1*%
X142782629Y-108213975D03*
%TO.N,/SEGDP*%
X163487099Y-100143115D03*
%TO.N,/DIG3*%
X144564099Y-109109315D03*
X137426699Y-109083915D03*
%TO.N,/SEGE*%
X148653499Y-102860915D03*
%TO.N,/SEGC*%
X146596099Y-109414115D03*
X135801099Y-109007715D03*
%TO.N,/DIG0*%
X154495089Y-106797915D03*
%TO.N,/DIG2*%
X150609299Y-109363315D03*
%TO.N,/DIG5*%
X144564099Y-106950315D03*
%TO.N,/SEGD*%
X155841699Y-107356715D03*
%TO.N,/DIG7*%
X147256499Y-102708515D03*
%TO.N,/SEGB*%
X142379699Y-111649315D03*
%TO.N,/SEGA*%
X150736299Y-112385915D03*
%TO.N,/DIG6*%
X150202899Y-106772515D03*
X158661099Y-103699115D03*
%TO.N,/DIG4*%
X153149299Y-112385915D03*
%TO.N,/SCL*%
X161404299Y-109363315D03*
X121704099Y-109668115D03*
%TO.N,/SDA*%
X163969699Y-108321915D03*
X120180099Y-109287115D03*
X157772099Y-108215285D03*
X125437899Y-106747115D03*
%TO.N,/B2*%
X151930099Y-99127115D03*
X152971089Y-95444115D03*
X130594099Y-99254115D03*
%TO.N,/B1*%
X153860499Y-99685915D03*
X162648899Y-103572115D03*
%TO.N,/fuse*%
X166916099Y-90618115D03*
X171488099Y-90618115D03*
%TO.N,GND*%
X146494499Y-107305915D03*
X145402099Y-102861115D03*
X121958099Y-101032115D03*
X144467329Y-98614285D03*
X120180099Y-107636115D03*
X152387299Y-108550515D03*
X123202699Y-106950315D03*
X128054099Y-102837085D03*
%TO.N,D_P*%
X142836899Y-96637915D03*
X175060099Y-94783715D03*
X169532299Y-93970915D03*
%TO.N,D_N*%
X144970499Y-83150515D03*
X172377099Y-83133095D03*
%TO.N,+5*%
X139738099Y-112258915D03*
X127800099Y-120971115D03*
X149646079Y-119853515D03*
X172808899Y-116297515D03*
%TO.N,+3.3*%
X122331119Y-119718535D03*
%TD*%
D39*
%TO.N,/BUZZER_SIG*%
X130614499Y-84517115D02*
X131279899Y-85182515D01*
X129466099Y-84517115D02*
X130614499Y-84517115D01*
%TO.N,GND*%
X128466099Y-83740315D02*
X127850899Y-83125115D01*
X128466099Y-84517115D02*
X128466099Y-83740315D01*
D40*
%TO.N,Net-(D1-A)*%
X124133099Y-87840115D02*
X125724259Y-89431275D01*
X125724259Y-89431275D02*
X129368039Y-89431275D01*
X124133099Y-87840115D02*
X124133099Y-85665115D01*
X128295019Y-90504295D02*
X129368039Y-89431275D01*
X128295019Y-91774195D02*
X128295019Y-90504295D01*
X126022099Y-94047115D02*
X128295019Y-91774195D01*
X126022099Y-98961105D02*
X126022099Y-94047115D01*
X125983089Y-99000115D02*
X126022099Y-98961105D01*
%TO.N,Net-(U4-C1)*%
X121323099Y-111954115D02*
X121323099Y-111904115D01*
X121323099Y-111904115D02*
X122035099Y-111192115D01*
X122035099Y-111192115D02*
X122577099Y-111192115D01*
X122577099Y-111192115D02*
X122800099Y-110969115D01*
X122800099Y-110969115D02*
X123984499Y-110969115D01*
X123984499Y-110969115D02*
X124252129Y-110701485D01*
X124252129Y-110701485D02*
X124252129Y-109923135D01*
%TO.N,/fuse*%
X171985129Y-89999995D02*
X171985129Y-89095135D01*
X171488099Y-90497025D02*
X171985129Y-89999995D01*
X171488099Y-90618115D02*
X171488099Y-90497025D01*
X166062689Y-90812515D02*
X166721699Y-90812515D01*
X167062139Y-90472075D02*
X167062139Y-89218125D01*
X166721699Y-90812515D02*
X167062139Y-90472075D01*
X165839089Y-91036115D02*
X166062689Y-90812515D01*
X167062139Y-89218125D02*
X167185139Y-89095135D01*
X165839089Y-92142115D02*
X165839089Y-91036115D01*
%TO.N,/IO9*%
X141135099Y-109640475D02*
X141135099Y-107382115D01*
X140855699Y-109919875D02*
X141135099Y-109640475D01*
X140855699Y-111903315D02*
X140855699Y-109919875D01*
X140855699Y-111903315D02*
X141490699Y-112538315D01*
X141490699Y-112538315D02*
X144084349Y-112538315D01*
X141439899Y-102708515D02*
X143446499Y-102708515D01*
X144084349Y-112538315D02*
X144716499Y-113170465D01*
X143446499Y-102708515D02*
X144081089Y-102073925D01*
X144716499Y-116353495D02*
X144716499Y-113170465D01*
X144081089Y-102073925D02*
X144081089Y-101185125D01*
X144866109Y-118504525D02*
X144866109Y-116503105D01*
X144716499Y-116353495D02*
X144866109Y-116503105D01*
X144866109Y-118504525D02*
X145326099Y-118964515D01*
X145326099Y-118964515D02*
X147484689Y-118964515D01*
X147484689Y-118964515D02*
X148526089Y-117923115D01*
%TO.N,/IO43*%
X157276089Y-86935115D02*
X158635699Y-86935115D01*
X158635699Y-86935115D02*
X159042099Y-87341515D01*
X133032499Y-89485635D02*
X133032499Y-87341515D01*
X133032499Y-89485635D02*
X134291979Y-90745115D01*
X134291979Y-94255495D02*
X134291979Y-90745115D01*
X133132119Y-95415365D02*
X134291979Y-94255495D01*
X133132119Y-97118535D02*
X133132119Y-95415365D01*
X133132119Y-97118535D02*
X133362699Y-97349115D01*
X133362699Y-114735345D02*
X133362699Y-97349115D01*
X132880099Y-115217945D02*
X133362699Y-114735345D01*
X132880099Y-116341945D02*
X132880099Y-115217945D01*
X132880099Y-116341945D02*
X133286089Y-116747935D01*
X133286089Y-117923115D02*
X133286089Y-116747935D01*
%TO.N,/IO01*%
X166382699Y-117846505D02*
X166382699Y-96231515D01*
X165646099Y-95494915D02*
X166382699Y-96231515D01*
X166306089Y-117923115D02*
X166382699Y-117846505D01*
X165138099Y-95494915D02*
X165646099Y-95494915D01*
X164503099Y-94859915D02*
X165138099Y-95494915D01*
X164503099Y-94859915D02*
X164503099Y-90389515D01*
X158508699Y-84395115D02*
X164503099Y-90389515D01*
X157276089Y-84395115D02*
X158508699Y-84395115D01*
%TO.N,/IO18*%
X139001499Y-95825115D02*
X139776099Y-95825115D01*
X138266319Y-96560295D02*
X139001499Y-95825115D01*
X138266319Y-104100435D02*
X138266319Y-96560295D01*
X138266319Y-104100435D02*
X138696699Y-104530815D01*
X138696699Y-111115915D02*
X138696699Y-104530815D01*
X137350499Y-112462115D02*
X138696699Y-111115915D01*
X137350499Y-113300315D02*
X137350499Y-112462115D01*
X137350499Y-113300315D02*
X138366089Y-114315905D01*
X138366089Y-117923115D02*
X138366089Y-114315905D01*
%TO.N,/IO44*%
X157276089Y-88205115D02*
X158153099Y-88205115D01*
X158153099Y-88205115D02*
X159042099Y-89094115D01*
X159042099Y-94529715D02*
X159042099Y-89094115D01*
%TO.N,/IO38*%
X131356099Y-94344915D02*
X131356099Y-94174115D01*
X131356099Y-94344915D02*
X131989119Y-94977935D01*
X155384499Y-93259715D02*
X156425899Y-94555115D01*
X131989119Y-105614025D02*
X131989119Y-94977935D01*
X156425899Y-94555115D02*
X157276089Y-94555115D01*
X131000499Y-106602635D02*
X131989119Y-105614025D01*
X131000499Y-115179915D02*
X131000499Y-106602635D01*
X131000499Y-115179915D02*
X132016499Y-116195915D01*
X132016499Y-118456515D02*
X132016499Y-116195915D01*
X132016499Y-118456515D02*
X132626099Y-119066115D01*
X132626099Y-119066115D02*
X134683089Y-119066115D01*
X134683089Y-119066115D02*
X135826089Y-117923115D01*
%TO.N,/IO4*%
X135445499Y-97067735D02*
X135445499Y-87671715D01*
X134531099Y-97982135D02*
X135445499Y-97067735D01*
X135445499Y-87671715D02*
X136182099Y-86935115D01*
X134531099Y-110150715D02*
X134531099Y-97982135D01*
X136182099Y-86935115D02*
X139776099Y-86935115D01*
X134531099Y-110150715D02*
X135648699Y-111268315D01*
X135648699Y-113150705D02*
X135648699Y-111268315D01*
%TO.N,/IO17*%
X136867899Y-119015315D02*
X137198099Y-119345515D01*
X137198099Y-119345515D02*
X139483689Y-119345515D01*
X136867899Y-119015315D02*
X136867899Y-116881715D01*
X139483689Y-119345515D02*
X140906089Y-117923115D01*
X136474759Y-116488575D02*
X136867899Y-116881715D01*
X135533839Y-116488575D02*
X136474759Y-116488575D01*
X134759699Y-115714435D02*
X135533839Y-116488575D01*
X134759699Y-115714435D02*
X134759699Y-111014315D01*
X134150099Y-110404715D02*
X134759699Y-111014315D01*
X134150099Y-110404715D02*
X134150099Y-97824315D01*
X134150099Y-97824315D02*
X134404099Y-97570315D01*
X134404099Y-97570315D02*
X134404099Y-96333115D01*
X139776099Y-94555115D02*
X141185899Y-94555115D01*
X141185899Y-94555115D02*
X141262099Y-94631315D01*
%TO.N,/IO8*%
X138671299Y-100600315D02*
X139128499Y-101057515D01*
X139128499Y-111582105D02*
X139128499Y-101057515D01*
X138671299Y-100600315D02*
X138671299Y-97349115D01*
X138239499Y-112471105D02*
X139128499Y-111582105D01*
X138671299Y-97349115D02*
X138925299Y-97095115D01*
X138239499Y-112919315D02*
X138239499Y-112471105D01*
X138925299Y-97095115D02*
X139776099Y-97095115D01*
%TO.N,/IO02*%
X156603699Y-85665115D02*
X157276089Y-85665115D01*
X154343099Y-87925715D02*
X156603699Y-85665115D01*
X154343099Y-95431345D02*
X154343099Y-87925715D01*
X154343099Y-95431345D02*
X156222699Y-97310945D01*
X156222699Y-106467715D02*
X156222699Y-97310945D01*
X156222699Y-106467715D02*
X156730699Y-106975715D01*
X156730699Y-109617315D02*
X156730699Y-106975715D01*
X156730699Y-109617315D02*
X163766089Y-116652705D01*
X163766089Y-117923115D02*
X163766089Y-116652705D01*
%TO.N,/IO7*%
X134683499Y-94654735D02*
X134683499Y-89805315D01*
X134175499Y-89297315D02*
X134683499Y-89805315D01*
X133513119Y-95825115D02*
X134683499Y-94654735D01*
X133513119Y-96839135D02*
X133513119Y-95825115D01*
X133513119Y-96839135D02*
X133769099Y-97095115D01*
X133769099Y-115891115D02*
X133769099Y-97095115D01*
X138366499Y-90745115D02*
X139776099Y-90745115D01*
X138290299Y-90668915D02*
X138366499Y-90745115D01*
%TO.N,/IO15*%
X137858499Y-104461115D02*
X137858499Y-92777115D01*
X137858499Y-92777115D02*
X138620499Y-92015115D01*
X137858499Y-104461115D02*
X138315699Y-104918315D01*
X138620499Y-92015115D02*
X139776099Y-92015115D01*
X138315699Y-110578345D02*
X138315699Y-104918315D01*
X136969499Y-111924545D02*
X138315699Y-110578345D01*
X136969499Y-113681315D02*
X136969499Y-111924545D01*
X136969499Y-113681315D02*
X137883899Y-114595715D01*
X137883899Y-116602315D02*
X137883899Y-114595715D01*
X137325099Y-117161115D02*
X137883899Y-116602315D01*
X137325099Y-118685115D02*
X137325099Y-117161115D01*
X137325099Y-118685115D02*
X137604499Y-118964515D01*
X137604499Y-118964515D02*
X139128499Y-118964515D01*
X139128499Y-118964515D02*
X139407899Y-118685115D01*
X139407899Y-118685115D02*
X139407899Y-114342935D01*
X139407899Y-114342935D02*
X140729919Y-113020915D01*
X140729919Y-113020915D02*
X143115889Y-113020915D01*
X143115889Y-113020915D02*
X143446089Y-113351115D01*
X143446089Y-117923115D02*
X143446089Y-113351115D01*
%TO.N,/IO5*%
X137401299Y-88459115D02*
X137655299Y-88205115D01*
X137401299Y-97069715D02*
X137401299Y-88459115D01*
X137655299Y-88205115D02*
X139776099Y-88205115D01*
X135672119Y-98798895D02*
X137401299Y-97069715D01*
X135672119Y-107323645D02*
X135672119Y-98798895D01*
X134912099Y-108083665D02*
X135672119Y-107323645D01*
X134912099Y-109642715D02*
X134912099Y-108083665D01*
X134912099Y-109642715D02*
X135166099Y-109896715D01*
X135166099Y-109896715D02*
X135877299Y-109896715D01*
X135877299Y-109896715D02*
X136537699Y-110557115D01*
X136537699Y-115484715D02*
X136537699Y-110557115D01*
%TO.N,/SEGE*%
X148526089Y-102988325D02*
X148653499Y-102860915D01*
X148526089Y-108905705D02*
X148526089Y-102988325D01*
X148526089Y-108905705D02*
X151701089Y-112080705D01*
X151701089Y-114494115D02*
X151701089Y-112080705D01*
%TO.N,/DIG1*%
X142782629Y-108213975D02*
X142811089Y-108185515D01*
X142811089Y-108185515D02*
X142811089Y-104842115D01*
%TO.N,/DIG7*%
X146621089Y-103343925D02*
X147256499Y-102708515D01*
X146621089Y-104842115D02*
X146621089Y-103343925D01*
%TO.N,/DIG0*%
X154241089Y-106543915D02*
X154241089Y-104842115D01*
X154241089Y-106543915D02*
X154495089Y-106797915D01*
%TO.N,/SEGG*%
X146621089Y-112716525D02*
X147180299Y-112157315D01*
X146621089Y-114494115D02*
X146621089Y-112716525D01*
%TO.N,/DIG6*%
X160526069Y-91634065D02*
X161761069Y-92869065D01*
X161761069Y-95317115D02*
X161761069Y-92869065D01*
X161227669Y-95850515D02*
X161761069Y-95317115D01*
X160058099Y-95850515D02*
X161227669Y-95850515D01*
X159651699Y-96256915D02*
X160058099Y-95850515D01*
X159651699Y-102708515D02*
X159651699Y-96256915D01*
X158661099Y-103699115D02*
X159651699Y-102708515D01*
X150202899Y-106772515D02*
X150431089Y-106544325D01*
X150431089Y-106544325D02*
X150431089Y-104842115D01*
%TO.N,/SEGD*%
X154241089Y-108957325D02*
X155841699Y-107356715D01*
X154241089Y-114494115D02*
X154241089Y-108957325D01*
%TO.N,/SEGDP*%
X163537899Y-104156315D02*
X163537899Y-100193915D01*
X163487099Y-100143115D02*
X163537899Y-100193915D01*
X163080699Y-104613515D02*
X163537899Y-104156315D01*
X163080699Y-113655915D02*
X163080699Y-104613515D01*
X163080699Y-113655915D02*
X164807899Y-115383115D01*
X164807899Y-118685115D02*
X164807899Y-115383115D01*
X164528499Y-118964515D02*
X164807899Y-118685115D01*
X157924499Y-118964515D02*
X164528499Y-118964515D01*
X157645099Y-118685115D02*
X157924499Y-118964515D01*
X157645099Y-118685115D02*
X157645099Y-117516715D01*
X157010099Y-116881715D02*
X157645099Y-117516715D01*
X153707689Y-116881715D02*
X157010099Y-116881715D01*
X152971089Y-116145115D02*
X153707689Y-116881715D01*
X152971089Y-116145115D02*
X152971089Y-114494115D01*
%TO.N,/DIG4*%
X153657299Y-111877915D02*
X153657299Y-107280515D01*
X153149299Y-112385915D02*
X153657299Y-111877915D01*
X152971089Y-106594305D02*
X153657299Y-107280515D01*
X152971089Y-106594305D02*
X152971089Y-104842115D01*
%TO.N,/SEGB*%
X142379699Y-111649315D02*
X143903699Y-111649315D01*
X143903699Y-111649315D02*
X145351089Y-113096705D01*
X145351089Y-114494115D02*
X145351089Y-113096705D01*
%TO.N,/SEGA*%
X150736299Y-112385915D02*
X150990299Y-112639915D01*
X150990299Y-115766095D02*
X150990299Y-112639915D01*
X150027079Y-116729315D02*
X150990299Y-115766095D01*
X150027079Y-118382295D02*
X150027079Y-116729315D01*
X150027079Y-118382295D02*
X150914099Y-119269315D01*
X150914099Y-120132915D02*
X150914099Y-119269315D01*
X150202899Y-120844115D02*
X150914099Y-120132915D01*
X143903699Y-120844115D02*
X150202899Y-120844115D01*
X142407079Y-119347495D02*
X143903699Y-120844115D01*
X142407079Y-119347495D02*
X142407079Y-116523725D01*
X142407079Y-116523725D02*
X142811089Y-116119715D01*
X142811089Y-116119715D02*
X142811089Y-114494115D01*
%TO.N,/DIG5*%
X144369699Y-106755915D02*
X144369699Y-106172115D01*
X144369699Y-106755915D02*
X144564099Y-106950315D01*
X144139639Y-105942065D02*
X144369699Y-106172115D01*
X144139639Y-105942065D02*
X144139639Y-104900665D01*
X144081089Y-104842115D02*
X144139639Y-104900665D01*
%TO.N,Net-(U6-ISET)*%
X141325529Y-106315315D02*
X142024099Y-107013885D01*
X139992099Y-106315315D02*
X141325529Y-106315315D01*
X142024099Y-107750345D02*
X142024099Y-107013885D01*
X139738099Y-106569315D02*
X139992099Y-106315315D01*
X141893629Y-107880815D02*
X142024099Y-107750345D01*
X141893629Y-109740845D02*
X141893629Y-107880815D01*
X139738099Y-107009095D02*
X139738099Y-106569315D01*
X141893629Y-109740845D02*
X143294099Y-111141315D01*
X143294099Y-111141315D02*
X147499879Y-111141315D01*
X147499879Y-111141315D02*
X148348699Y-111990135D01*
X148348699Y-112664905D02*
X148348699Y-111990135D01*
X147891089Y-113122515D02*
X148348699Y-112664905D01*
X147891089Y-114494115D02*
X147891089Y-113122515D01*
%TO.N,/IO12*%
X147739099Y-100168515D02*
X147891089Y-100320505D01*
X147891089Y-101185125D02*
X147891089Y-100320505D01*
X140957299Y-100168515D02*
X147739099Y-100168515D01*
X140550899Y-100574915D02*
X140957299Y-100168515D01*
X140550899Y-103724515D02*
X140550899Y-100574915D01*
X140550899Y-103724515D02*
X141541089Y-104714705D01*
X141541089Y-104842115D02*
X141541089Y-104714705D01*
%TO.N,/IO13*%
X149161089Y-102048115D02*
X150227889Y-103114915D01*
X149161089Y-102048115D02*
X149161089Y-101185125D01*
X150227889Y-103114915D02*
X151930099Y-103114915D01*
X151930099Y-103114915D02*
X152260299Y-103445115D01*
X152260299Y-106975715D02*
X152260299Y-103445115D01*
X152260299Y-106975715D02*
X153276299Y-107991715D01*
X153276299Y-109109315D02*
X153276299Y-107991715D01*
X152260299Y-110125315D02*
X153276299Y-109109315D01*
X152260299Y-120717115D02*
X152260299Y-110125315D01*
X151752299Y-121225115D02*
X152260299Y-120717115D01*
X143437409Y-121225115D02*
X151752299Y-121225115D01*
X141947899Y-119735605D02*
X143437409Y-121225115D01*
X141947899Y-119735605D02*
X141947899Y-115433915D01*
X141541089Y-115433915D02*
X141947899Y-115433915D01*
X141541089Y-115433915D02*
X141541089Y-114494115D01*
%TO.N,/IO14*%
X150431089Y-102048115D02*
X150572109Y-102189135D01*
X150431089Y-102048115D02*
X150431089Y-101185125D01*
X150572109Y-102189135D02*
X154763519Y-102189135D01*
X154763519Y-102189135D02*
X155511089Y-102936705D01*
X155511089Y-104842115D02*
X155511089Y-102936705D01*
%TO.N,/IO10*%
X143446499Y-103393905D02*
X145351089Y-101489315D01*
X143675099Y-109871315D02*
X144419679Y-110615895D01*
X148475699Y-116475315D02*
X148475699Y-113325715D01*
X148750379Y-110615895D02*
X148755099Y-110620615D01*
X147027899Y-117923115D02*
X148475699Y-116475315D01*
X148755099Y-113046315D02*
X148755099Y-110620615D01*
X145986089Y-117923115D02*
X147027899Y-117923115D01*
X143446499Y-107534515D02*
X143446499Y-103393905D01*
X144419679Y-110615895D02*
X148750379Y-110615895D01*
X148475699Y-113325715D02*
X148755099Y-113046315D01*
X143675099Y-109871315D02*
X143675099Y-107763115D01*
X145351089Y-101489315D02*
X145351089Y-101185125D01*
X143446499Y-107534515D02*
X143675099Y-107763115D01*
%TO.N,/IO6*%
X139776099Y-89475115D02*
X140987169Y-89475115D01*
X141368169Y-89094115D02*
X141643099Y-89094115D01*
X132016499Y-112741515D02*
X132370119Y-112387895D01*
X140987169Y-89475115D02*
X141368169Y-89094115D01*
X131906869Y-92029495D02*
X132370119Y-92492735D01*
X132370119Y-112387895D02*
X132370119Y-92492735D01*
%TO.N,/BUZZER_SIG*%
X129562099Y-86554115D02*
X129908299Y-86554115D01*
X155994099Y-95825115D02*
X157276089Y-95825115D01*
X129908299Y-86554115D02*
X131279899Y-85182515D01*
X155232099Y-95063115D02*
X155994099Y-95825115D01*
%TO.N,Net-(Q1-G)*%
X128250109Y-86615125D02*
X128316099Y-86681115D01*
X126133099Y-86615125D02*
X128250109Y-86615125D01*
%TO.N,/SEGF*%
X144081089Y-116805515D02*
X144081089Y-114494115D01*
X132751119Y-94811095D02*
X133134099Y-94428115D01*
X144081089Y-116805515D02*
X144485109Y-117209525D01*
X132751119Y-97855135D02*
X132751119Y-94811095D01*
X132751119Y-97855135D02*
X132981699Y-98085715D01*
X132245099Y-114595715D02*
X132981699Y-113859115D01*
X132981699Y-113859115D02*
X132981699Y-98085715D01*
X144485109Y-119853515D02*
X144485109Y-117209525D01*
X133134099Y-94428115D02*
X133134099Y-91075315D01*
%TO.N,/DIG3*%
X144564099Y-109109315D02*
X145199099Y-108474315D01*
X145199099Y-108474315D02*
X147358099Y-108474315D01*
X137414099Y-105639065D02*
X137761119Y-105986075D01*
X137414099Y-105639065D02*
X137414099Y-100142045D01*
X147358099Y-108474315D02*
X147891089Y-107941325D01*
X147891089Y-107941325D02*
X147891089Y-104842115D01*
X136526119Y-99254065D02*
X137414099Y-100142045D01*
X137426699Y-109083915D02*
X137761119Y-108749495D01*
X137761119Y-108749495D02*
X137761119Y-105986075D01*
%TO.N,/SEGC*%
X136526119Y-105567135D02*
X137380119Y-106421135D01*
X136526119Y-105567135D02*
X136526119Y-104334065D01*
X149948899Y-114494115D02*
X150431089Y-114494115D01*
X149821899Y-114367115D02*
X149948899Y-114494115D01*
X146646899Y-109363315D02*
X148043899Y-109363315D01*
X149821899Y-114367115D02*
X149821899Y-111141315D01*
X137380119Y-107403295D02*
X137380119Y-106421135D01*
X135801099Y-108982315D02*
X137380119Y-107403295D01*
X135801099Y-109007715D02*
X135801099Y-108982315D01*
X146596099Y-109414115D02*
X146646899Y-109363315D01*
X148043899Y-109363315D02*
X149821899Y-111141315D01*
%TO.N,/DIG2*%
X149161089Y-107915105D02*
X149161089Y-104842115D01*
X149161089Y-107915105D02*
X150609299Y-109363315D01*
%TO.N,/SCL*%
X161380069Y-94706345D02*
X161380069Y-93591085D01*
X164122099Y-96214095D02*
X164122099Y-92700915D01*
X122313699Y-104207115D02*
X122683729Y-103837085D01*
X161404299Y-109363315D02*
X161404299Y-97349115D01*
X161404299Y-97349115D02*
X162031319Y-96722095D01*
X121929419Y-109668115D02*
X122535179Y-109062355D01*
X122716259Y-109062355D02*
X123291599Y-108487015D01*
X162191699Y-90770515D02*
X164122099Y-92700915D01*
X121704099Y-109668115D02*
X121929419Y-109668115D01*
X160566099Y-93259715D02*
X161048699Y-93259715D01*
X122683729Y-103837085D02*
X123019109Y-103837085D01*
X159651699Y-91176915D02*
X160058099Y-90770515D01*
X122535179Y-109062355D02*
X122716259Y-109062355D01*
X123291599Y-108487015D02*
X123739609Y-108410615D01*
X159651699Y-92345315D02*
X159651699Y-91176915D01*
X164122099Y-96214095D02*
X164630099Y-96722095D01*
X122313699Y-107509115D02*
X123291599Y-108487015D01*
X162031319Y-96722095D02*
X164630099Y-96722095D01*
X160616899Y-95469515D02*
X161380069Y-94706345D01*
X161048699Y-93259715D02*
X161380069Y-93591085D01*
X157276089Y-97095115D02*
X158026099Y-97095115D01*
X159651699Y-92345315D02*
X160566099Y-93259715D01*
X122313699Y-107509115D02*
X122313699Y-104207115D01*
X164630099Y-96722095D02*
X165392099Y-96722095D01*
X160058099Y-90770515D02*
X162191699Y-90770515D01*
X159651699Y-95469515D02*
X160616899Y-95469515D01*
X158026099Y-97095115D02*
X159651699Y-95469515D01*
%TO.N,/SDA*%
X123744129Y-105053345D02*
X123744129Y-104562105D01*
X157772099Y-108215285D02*
X157772099Y-102810115D01*
X123679109Y-109958635D02*
X123727109Y-109910635D01*
X123727109Y-109910635D02*
X123739609Y-109910635D01*
X120180099Y-110662325D02*
X120180099Y-109287115D01*
X120328889Y-110811115D02*
X122419289Y-110811115D01*
X157772099Y-102810115D02*
X158584899Y-101997315D01*
X164782499Y-100363735D02*
X165392099Y-99754135D01*
X123062129Y-110588115D02*
X123679109Y-109971135D01*
X158076899Y-98365115D02*
X158584899Y-98873115D01*
X157276089Y-98365115D02*
X158076899Y-98365115D01*
X123679109Y-109971135D02*
X123679109Y-109958635D01*
X122642289Y-110588115D02*
X123062129Y-110588115D01*
X163969699Y-108321915D02*
X164782499Y-107509115D01*
X123744129Y-105053345D02*
X125437899Y-106747115D01*
X122419289Y-110811115D02*
X122642289Y-110588115D01*
X158584899Y-101997315D02*
X158584899Y-98873115D01*
X120180099Y-110662325D02*
X120328889Y-110811115D01*
X164782499Y-107509115D02*
X164782499Y-100363735D01*
%TO.N,/B2*%
X152057099Y-99127115D02*
X152971089Y-100041105D01*
X151930099Y-99127115D02*
X152057099Y-99127115D01*
X130594099Y-102691145D02*
X130594099Y-99254115D01*
X152971089Y-100041105D02*
X152971089Y-95444115D01*
X152971089Y-101185125D02*
X152971089Y-100041105D01*
%TO.N,/B1*%
X154241089Y-101185125D02*
X154241089Y-100066505D01*
X153860499Y-99685915D02*
X154241089Y-100066505D01*
X161971129Y-102894345D02*
X161971129Y-98492115D01*
X161971129Y-102894345D02*
X162648899Y-103572115D01*
%TO.N,Net-(USB1-CC1)*%
X169583099Y-92896135D02*
X169964099Y-92896135D01*
X169354499Y-92667535D02*
X169354499Y-91202315D01*
X170835119Y-89721695D02*
X170835119Y-89095135D01*
X169354499Y-91202315D02*
X170835119Y-89721695D01*
X169354499Y-92667535D02*
X169583099Y-92896135D01*
%TO.N,Net-(USB1-CC2)*%
X172631099Y-96079115D02*
X172631099Y-93785135D01*
X171742099Y-92896135D02*
X172631099Y-93785135D01*
X177584099Y-92664745D02*
X177945139Y-92303705D01*
X172910499Y-96358515D02*
X173875699Y-96358515D01*
X167835119Y-86290865D02*
X171881899Y-82244095D01*
X175040139Y-82625095D02*
X177945139Y-85530085D01*
X172631099Y-96079115D02*
X172910499Y-96358515D01*
X171234099Y-92896135D02*
X171742099Y-92896135D01*
X171881899Y-82244095D02*
X173659899Y-82244095D01*
X173875699Y-96358515D02*
X174155099Y-96079115D01*
X177945139Y-92303705D02*
X177945139Y-85530085D01*
X174155099Y-93285115D02*
X174775469Y-92664745D01*
X174775469Y-92664745D02*
X177584099Y-92664745D01*
X174040899Y-82625095D02*
X175040139Y-82625095D01*
X174155099Y-96079115D02*
X174155099Y-93285115D01*
X173659899Y-82244095D02*
X174040899Y-82625095D01*
X167835119Y-89095135D02*
X167835119Y-86290865D01*
%TO.N,GND*%
X145626069Y-92245135D02*
X145626069Y-90845085D01*
X121331129Y-113224115D02*
X121331129Y-113097115D01*
X151701089Y-107864305D02*
X152387299Y-108550515D01*
X165265099Y-84395115D02*
X165265099Y-83379115D01*
X138341099Y-122495115D02*
X140881099Y-122495115D01*
X123490099Y-100270085D02*
X123490099Y-99254135D01*
X142405099Y-83125115D02*
X143268699Y-82261515D01*
X133261099Y-122495115D02*
X135801099Y-122495115D01*
X125133099Y-102837085D02*
X125469089Y-102837085D01*
X171234099Y-91896145D02*
X172195529Y-91854345D01*
X122654099Y-111573115D02*
X122734919Y-111573115D01*
D39*
X145626069Y-89445095D02*
X147026069Y-89445095D01*
D40*
X172153729Y-91896145D02*
X172195529Y-91854345D01*
X124752099Y-109923135D02*
X124752099Y-109591915D01*
X172694599Y-91832645D02*
X173629729Y-90897515D01*
X122233029Y-101032115D02*
X122809079Y-100456065D01*
X140881099Y-122495115D02*
X143421099Y-122495115D01*
X144467329Y-98614285D02*
X145626069Y-97455545D01*
X151041099Y-122495115D02*
X153581099Y-122495115D01*
X122974099Y-106721715D02*
X123202699Y-106950315D01*
X119291099Y-108525115D02*
X120180099Y-107636115D01*
D39*
X148426069Y-90845085D02*
X148426069Y-89445095D01*
X147026069Y-89445095D02*
X148426069Y-89445095D01*
D40*
X172694599Y-91832645D02*
X173327109Y-92465155D01*
D39*
X148426069Y-92245135D02*
X148426069Y-90845085D01*
D40*
X165265099Y-88545115D02*
X165265099Y-84395115D01*
X153581099Y-122495115D02*
X156121099Y-122495115D01*
X121331129Y-121868145D02*
X121958099Y-122495115D01*
X161201099Y-122495115D02*
X163741099Y-122495115D01*
X125128019Y-103837085D02*
X125469089Y-103837085D01*
X165265099Y-89119515D02*
X165265099Y-88545115D01*
D39*
X147026119Y-90845085D02*
X147726099Y-90145115D01*
D40*
X173327109Y-95460115D02*
X173327109Y-92465155D01*
X156121099Y-122495115D02*
X158661099Y-122495115D01*
X163741099Y-122495115D02*
X166281099Y-122495115D01*
X165061899Y-94428115D02*
X165569899Y-94936115D01*
X173905109Y-89119515D02*
X173905109Y-88545115D01*
X172195529Y-91854345D02*
X172785129Y-91264745D01*
X123490079Y-100270115D02*
X123490099Y-100270085D01*
D39*
X147026069Y-90845085D02*
X147026119Y-90845085D01*
D40*
X165265099Y-89119515D02*
X166385139Y-89119515D01*
D39*
X147026119Y-90845085D02*
X148426069Y-90845085D01*
D40*
X145859499Y-85004715D02*
X145859499Y-82540915D01*
X145626069Y-89445095D02*
X145626069Y-85238145D01*
X173629729Y-90897515D02*
X175602899Y-90897515D01*
X145351089Y-106162505D02*
X146494499Y-107305915D01*
X145351089Y-106162505D02*
X145351089Y-104842115D01*
X119291099Y-111134085D02*
X119291099Y-108525115D01*
X172785129Y-89119515D02*
X173905109Y-89119515D01*
X139776099Y-83125115D02*
X142405099Y-83125115D01*
D39*
X145626069Y-92245135D02*
X147026069Y-90845085D01*
D40*
X172153729Y-91896145D02*
X172631099Y-91896145D01*
X124933409Y-109410605D02*
X125264619Y-109410605D01*
D39*
X145626069Y-90845085D02*
X147026069Y-90845085D01*
D40*
X124752099Y-109591915D02*
X124933409Y-109410605D01*
X148426069Y-89445095D02*
X154746049Y-83125115D01*
X166027099Y-94936115D02*
X166585899Y-94936115D01*
X175602899Y-90897515D02*
X176278489Y-91573105D01*
D39*
X147026069Y-90845085D02*
X148426069Y-92245135D01*
D40*
X143268699Y-82261515D02*
X145580099Y-82261515D01*
D39*
X147026069Y-90845085D02*
X147026119Y-90845085D01*
D40*
X124990049Y-103699115D02*
X125128019Y-103837085D01*
X165061899Y-94428115D02*
X165061899Y-90940085D01*
D39*
X145626069Y-90845085D02*
X145626069Y-89445095D01*
D40*
X165061899Y-90940085D02*
X166385139Y-89616845D01*
X130721099Y-122495115D02*
X133261099Y-122495115D01*
X121958099Y-122495115D02*
X130721099Y-122495115D01*
X122809079Y-100456065D02*
X123317079Y-100456065D01*
X122323099Y-112105145D02*
X122323099Y-111904115D01*
X122734919Y-111573115D02*
X122957919Y-111350115D01*
X172785129Y-91264745D02*
X172785129Y-89119515D01*
X173905109Y-88545115D02*
X173905109Y-84395115D01*
X145580099Y-82261515D02*
X145859499Y-82540915D01*
X124363119Y-111573115D02*
X124363119Y-111141315D01*
X169964099Y-91896145D02*
X171234099Y-91896145D01*
X172631099Y-91896145D02*
X172694599Y-91832645D01*
D39*
X147026069Y-92245135D02*
X148426069Y-92245135D01*
D40*
X127850899Y-83125115D02*
X139776099Y-83125115D01*
X124363119Y-111141315D02*
X124752099Y-110752335D01*
X165569899Y-94936115D02*
X166027099Y-94936115D01*
X122974099Y-106721715D02*
X122974099Y-104337115D01*
D39*
X147026069Y-90845085D02*
X147026069Y-89445095D01*
D40*
X154746049Y-83125115D02*
X157276089Y-83125115D01*
X166385139Y-89616845D02*
X166385139Y-89119515D01*
X171234099Y-91896145D02*
X172153729Y-91896145D01*
D39*
X147026069Y-92245135D02*
X147026069Y-90845085D01*
D40*
X122323099Y-111904115D02*
X122654099Y-111573115D01*
X145961099Y-122495115D02*
X148501099Y-122495115D01*
X124363119Y-111954115D02*
X124363119Y-111573115D01*
X126133099Y-84715105D02*
X126260909Y-84715105D01*
X145626069Y-97455545D02*
X145626069Y-92245135D01*
X124752099Y-110752335D02*
X124752099Y-109923135D01*
X124140119Y-111350115D02*
X124363119Y-111573115D01*
X126260909Y-84715105D02*
X127850899Y-83125115D01*
X148501099Y-122495115D02*
X151041099Y-122495115D01*
X166585899Y-94936115D02*
X166593929Y-94928085D01*
D39*
X145626069Y-89445095D02*
X147026069Y-90845085D01*
D40*
X151701089Y-107864305D02*
X151701089Y-104842115D01*
X166385139Y-89119515D02*
X166385139Y-89095135D01*
X172785129Y-89119515D02*
X172785129Y-89095135D01*
D39*
X145626069Y-92245135D02*
X145626069Y-90845085D01*
D40*
X157276089Y-83125115D02*
X165011099Y-83125115D01*
X122957919Y-111350115D02*
X124140119Y-111350115D01*
X124990049Y-103699115D02*
X124990049Y-102980145D01*
X135801099Y-122495115D02*
X138341099Y-122495115D01*
X176278489Y-91573105D02*
X176860099Y-91573105D01*
X122974099Y-104337115D02*
X123019109Y-104337115D01*
X145626069Y-92245135D02*
X145859499Y-92478565D01*
X121331129Y-113097115D02*
X122323099Y-112105145D01*
X120180099Y-102810115D02*
X121958099Y-101032115D01*
X124990049Y-102980145D02*
X125133099Y-102837085D01*
X145402099Y-104791115D02*
X145402099Y-102861115D01*
X123490099Y-99254135D02*
X123490129Y-99254115D01*
X119291099Y-111134085D02*
X121331129Y-113174115D01*
X123317099Y-100456035D02*
X123317099Y-100366075D01*
X120180099Y-107636115D02*
X120180099Y-102810115D01*
X158661099Y-122495115D02*
X161201099Y-122495115D01*
X172195529Y-91854345D02*
X172694599Y-91832645D01*
X143421099Y-122495115D02*
X145961099Y-122495115D01*
X145626069Y-90845085D02*
X145626069Y-89445095D01*
D39*
X147726099Y-90145115D02*
X148426069Y-89445095D01*
D40*
X121331129Y-121868145D02*
X121331129Y-113224115D01*
X123317079Y-100456065D02*
X123317099Y-100456035D01*
X145626069Y-85238145D02*
X145859499Y-85004715D01*
X165011099Y-83125115D02*
X165265099Y-83379115D01*
X145351089Y-104842115D02*
X145402099Y-104791115D01*
D39*
X145626069Y-92245135D02*
X147026069Y-92245135D01*
D40*
X121958099Y-101032115D02*
X122233029Y-101032115D01*
X125469089Y-102837085D02*
X128054099Y-102837085D01*
X166593929Y-94928085D02*
X167170099Y-94928085D01*
%TO.N,D_P*%
X175060099Y-94783715D02*
X175060099Y-93473125D01*
X139776099Y-99635115D02*
X142278099Y-99635115D01*
X168835119Y-89729115D02*
X169038319Y-89932315D01*
X168835119Y-93273735D02*
X169532299Y-93970915D01*
X142278099Y-99635115D02*
X142836899Y-99076315D01*
X168835119Y-89729115D02*
X168835119Y-89095135D01*
X169835119Y-89729115D02*
X169835119Y-89095135D01*
X169038319Y-89932315D02*
X169631919Y-89932315D01*
X168835119Y-93273735D02*
X168835119Y-89729115D01*
X142836899Y-99076315D02*
X142836899Y-96637915D01*
X169631919Y-89932315D02*
X169835119Y-89729115D01*
%TO.N,D_N*%
X139776099Y-98365115D02*
X141173199Y-98365115D01*
X169538289Y-88255915D02*
X170131939Y-88255915D01*
X141173199Y-98365115D02*
X141877139Y-97661175D01*
X170335139Y-85598875D02*
X170335139Y-84369715D01*
X175060099Y-92015115D02*
X175060099Y-91573105D01*
X175060099Y-92015115D02*
X175187099Y-92142115D01*
X170335139Y-89095135D02*
X170335139Y-88459115D01*
X172385079Y-83133095D02*
X174199089Y-83133095D01*
X170335139Y-84369715D02*
X171377369Y-83327495D01*
X141877139Y-97661175D02*
X141877139Y-95502125D01*
X172182699Y-83327495D02*
X172377099Y-83133095D01*
X172377099Y-83125115D02*
X172385079Y-83133095D01*
X141877139Y-95502125D02*
X142582899Y-94796365D01*
X170131939Y-88255915D02*
X170335139Y-88459115D01*
X177564139Y-92015115D02*
X177564139Y-86498135D01*
X175187099Y-92142115D02*
X177437139Y-92142115D01*
X169335089Y-88459115D02*
X169538289Y-88255915D01*
X142582899Y-85538115D02*
X144970499Y-83150515D01*
X142582899Y-94796365D02*
X142582899Y-85538115D01*
X170335139Y-88459115D02*
X170335139Y-85598875D01*
X169335089Y-89095135D02*
X169335089Y-88459115D01*
X171377369Y-83327495D02*
X172182699Y-83327495D01*
X174199089Y-83133095D02*
X177564139Y-86498135D01*
X177437139Y-92142115D02*
X177564139Y-92015115D01*
%TO.N,+5*%
X172377099Y-96942715D02*
X176060099Y-96942715D01*
X168643299Y-94555115D02*
X168643299Y-93935305D01*
X135801099Y-125035115D02*
X138341099Y-125035115D01*
X172377099Y-97460115D02*
X172377099Y-96993515D01*
X166789099Y-93174115D02*
X166789099Y-92523115D01*
X149161089Y-116246715D02*
X149646079Y-116731705D01*
X133261099Y-125035115D02*
X135801099Y-125035115D01*
X166250099Y-93763115D02*
X166250099Y-93713115D01*
X167739109Y-93031115D02*
X168643299Y-93935305D01*
X167170099Y-92142115D02*
X167739109Y-92142115D01*
X172148499Y-96993515D02*
X172377099Y-96993515D01*
X130721099Y-125035115D02*
X133261099Y-125035115D01*
X177060099Y-112046315D02*
X177060099Y-95942715D01*
X128134469Y-99000115D02*
X129368039Y-97766535D01*
X129368039Y-96630905D02*
X131483099Y-98745965D01*
X172148499Y-96993515D02*
X172148499Y-94809115D01*
X166027099Y-93936115D02*
X166077099Y-93936115D01*
X127800099Y-107891745D02*
X131483099Y-104208745D01*
X138341099Y-125035115D02*
X140881099Y-125035115D01*
X139738099Y-112258915D02*
X139738099Y-108009085D01*
X166789099Y-92523115D02*
X167170099Y-92142115D01*
X129368039Y-97766535D02*
X129368039Y-96630905D01*
X171513499Y-94174115D02*
X172148499Y-94809115D01*
X177060099Y-95942715D02*
X177060099Y-93473125D01*
X176060099Y-96942715D02*
X177060099Y-95942715D01*
X149161089Y-116246715D02*
X149161089Y-114494115D01*
X149646079Y-119853515D02*
X149646079Y-116731705D01*
X168948099Y-94859915D02*
X170421299Y-94859915D01*
X131483099Y-104208745D02*
X131483099Y-98745965D01*
X172808899Y-116297515D02*
X177060099Y-112046315D01*
X166077099Y-93936115D02*
X166250099Y-93763115D01*
X171107099Y-94174115D02*
X171513499Y-94174115D01*
X170421299Y-94859915D02*
X171107099Y-94174115D01*
X166250099Y-93713115D02*
X166789099Y-93174115D01*
X127800099Y-120971115D02*
X127800099Y-107891745D01*
X167739109Y-93031115D02*
X167739109Y-92142115D01*
X168643299Y-94555115D02*
X168948099Y-94859915D01*
X172377099Y-96993515D02*
X172377099Y-96942715D01*
X128093109Y-99000115D02*
X128134469Y-99000115D01*
%TO.N,+3.3*%
X124744119Y-105037335D02*
X124744119Y-104562105D01*
X168241569Y-95248685D02*
X168665549Y-95672665D01*
X125264619Y-108910635D02*
X125264619Y-108410615D01*
X123236129Y-113224115D02*
X125590299Y-113224115D01*
X128181099Y-105299315D02*
X129789279Y-103691135D01*
X167822929Y-93928095D02*
X168241569Y-94346735D01*
X168241569Y-95248685D02*
X168241569Y-94346735D01*
X161201099Y-125035115D02*
X163741099Y-125035115D01*
X124490119Y-99304105D02*
X124490119Y-99254115D01*
X167170099Y-93928095D02*
X167822929Y-93928095D01*
X167717459Y-118962115D02*
X170035779Y-121280435D01*
X124490069Y-100651115D02*
X124490069Y-100270115D01*
X129789279Y-103691135D02*
X130594099Y-103691135D01*
X164561929Y-97722085D02*
X165392099Y-97722085D01*
X125895099Y-107763115D02*
X126326899Y-107331315D01*
X124498099Y-101286115D02*
X124752099Y-101540115D01*
X125590299Y-113224115D02*
X125717299Y-113097115D01*
X165615099Y-99051345D02*
X165763889Y-99200135D01*
X168665549Y-95672665D02*
X171427089Y-95672665D01*
X165267089Y-118813325D02*
X165415889Y-118962115D01*
X123439879Y-101633135D02*
X124524309Y-101633135D01*
X125717299Y-113097115D02*
X125717299Y-109113835D01*
X127469899Y-95215515D02*
X130924299Y-91761115D01*
X165996099Y-108716625D02*
X165996099Y-99348935D01*
X124609049Y-104012095D02*
X124609049Y-102506385D01*
X122331119Y-113224115D02*
X123236129Y-113224115D01*
X124673089Y-102442345D02*
X124673089Y-101781915D01*
X124490069Y-100270115D02*
X126580899Y-100270115D01*
X170035779Y-121280435D02*
X171427089Y-119889125D01*
X156121099Y-125035115D02*
X158661099Y-125035115D01*
X123363129Y-113097115D02*
X123363129Y-111954115D01*
X163741099Y-125035115D02*
X166281099Y-125035115D01*
X158661099Y-125035115D02*
X161201099Y-125035115D01*
X126326899Y-107331315D02*
X126326899Y-105299315D01*
X166281099Y-125035115D02*
X170035779Y-121280435D01*
X165415889Y-118962115D02*
X167717459Y-118962115D01*
X130924299Y-91761115D02*
X130924299Y-86909715D01*
X124490069Y-100270115D02*
X124490069Y-100143115D01*
X165267089Y-109445635D02*
X165996099Y-108716625D01*
X171427089Y-95672665D02*
X171427089Y-95460115D01*
X124490119Y-100143065D02*
X124490119Y-99304105D01*
X124609049Y-102506385D02*
X124673089Y-102442345D01*
X165442099Y-98754145D02*
X165615099Y-98927145D01*
X165615099Y-99051345D02*
X165615099Y-98927145D01*
X125264619Y-108410615D02*
X125895099Y-107763115D01*
X124244099Y-109410605D02*
X124744069Y-108910635D01*
X171427089Y-119889125D02*
X171427089Y-95672665D01*
X124744069Y-108910635D02*
X125264619Y-108910635D01*
X124498099Y-101286115D02*
X124498099Y-100659145D01*
X124609049Y-104012095D02*
X124744119Y-104147175D01*
X139776099Y-85665115D02*
X139776099Y-84395115D01*
X123151899Y-101921115D02*
X123439879Y-101633135D01*
X153581099Y-125035115D02*
X156121099Y-125035115D01*
X145961099Y-125035115D02*
X148501099Y-125035115D01*
X125514099Y-108910635D02*
X125717299Y-109113835D01*
X124752099Y-102104145D02*
X124752099Y-101540115D01*
X124524309Y-101633135D02*
X124673089Y-101781915D01*
X123236129Y-113224115D02*
X123363129Y-113097115D01*
X123739609Y-109410605D02*
X124244099Y-109410605D01*
X165763889Y-99200135D02*
X165847309Y-99200135D01*
X124490069Y-100143115D02*
X124490119Y-100143065D01*
X123151899Y-102337115D02*
X123151899Y-101921115D01*
X165392099Y-98453875D02*
X165392099Y-97722085D01*
X165392099Y-98754145D02*
X165442099Y-98754145D01*
X162971119Y-98492115D02*
X163791899Y-98492115D01*
X143421099Y-125035115D02*
X145961099Y-125035115D01*
X148501099Y-125035115D02*
X151041099Y-125035115D01*
X130924299Y-86909715D02*
X133438899Y-84395115D01*
X165267089Y-118813325D02*
X165267089Y-109445635D01*
X133438899Y-84395115D02*
X139776099Y-84395115D01*
X151041099Y-125035115D02*
X153581099Y-125035115D01*
X125006099Y-105299315D02*
X126326899Y-105299315D01*
X127469899Y-99381115D02*
X127469899Y-95215515D01*
X124744119Y-104562105D02*
X124744119Y-104147175D01*
X124490069Y-100651115D02*
X124498099Y-100659145D01*
X122331119Y-119718535D02*
X122331119Y-113224115D01*
X125264619Y-108910635D02*
X125514099Y-108910635D01*
X165847309Y-99200135D02*
X165996099Y-99348935D01*
X126580899Y-100270115D02*
X127469899Y-99381115D01*
X124744119Y-105037335D02*
X125006099Y-105299315D01*
X126326899Y-105299315D02*
X128181099Y-105299315D01*
X163791899Y-98492115D02*
X164561929Y-97722085D01*
X123019109Y-102337115D02*
X123151899Y-102337115D01*
%TD*%
M02*
