%TF.GenerationSoftware,KiCad,Pcbnew,9.0.6*%
%TF.CreationDate,2025-12-04T12:23:30+01:00*%
%TF.ProjectId,Motherboard,4d6f7468-6572-4626-9f61-72642e6b6963,rev?*%
%TF.SameCoordinates,Original*%
%TF.FileFunction,Copper,L3,Inr*%
%TF.FilePolarity,Positive*%
%FSLAX46Y46*%
G04 Gerber Fmt 4.6, Leading zero omitted, Abs format (unit mm)*
G04 Created by KiCad (PCBNEW 9.0.6) date 2025-12-04 12:23:30*
%MOMM*%
%LPD*%
G01*
G04 APERTURE LIST*
%TA.AperFunction,ComponentPad*%
%ADD10R,1.900000X1.574800*%
%TD*%
%TA.AperFunction,ComponentPad*%
%ADD11C,1.900000*%
%TD*%
%TA.AperFunction,ComponentPad*%
%ADD12C,1.570000*%
%TD*%
%TA.AperFunction,ComponentPad*%
%ADD13R,1.570000X1.570000*%
%TD*%
%TA.AperFunction,ComponentPad*%
%ADD14O,1.000000X1.850000*%
%TD*%
%TA.AperFunction,ComponentPad*%
%ADD15O,1.000000X2.100000*%
%TD*%
%TA.AperFunction,ComponentPad*%
%ADD16C,0.001000*%
%TD*%
%TA.AperFunction,ViaPad*%
%ADD17C,1.270000*%
%TD*%
G04 APERTURE END LIST*
D10*
%TO.N,GND*%
%TO.C,J2*%
X166306099Y-122495115D03*
D11*
%TO.N,+3.3*%
X166306099Y-125035115D03*
%TO.N,GND*%
X163766099Y-122495115D03*
%TO.N,+3.3*%
X163766099Y-125035115D03*
%TO.N,GND*%
X161226099Y-122495115D03*
%TO.N,+3.3*%
X161226099Y-125035115D03*
%TO.N,GND*%
X158686099Y-122495115D03*
%TO.N,+3.3*%
X158686099Y-125035115D03*
%TO.N,GND*%
X156146099Y-122495115D03*
%TO.N,+3.3*%
X156146099Y-125035115D03*
%TO.N,GND*%
X153606099Y-122495115D03*
%TO.N,+3.3*%
X153606099Y-125035115D03*
%TO.N,GND*%
X151066099Y-122495115D03*
%TO.N,+3.3*%
X151066099Y-125035115D03*
%TO.N,GND*%
X148526099Y-122495115D03*
%TO.N,+3.3*%
X148526099Y-125035115D03*
%TO.N,GND*%
X145986099Y-122495115D03*
%TO.N,+3.3*%
X145986099Y-125035115D03*
%TO.N,GND*%
X143446099Y-122495115D03*
%TO.N,+3.3*%
X143446099Y-125035115D03*
%TO.N,GND*%
X140906099Y-122495115D03*
%TO.N,+5*%
X140906099Y-125035115D03*
%TO.N,GND*%
X138366099Y-122495115D03*
%TO.N,+5*%
X138366099Y-125035115D03*
%TO.N,GND*%
X135826099Y-122495115D03*
%TO.N,+5*%
X135826099Y-125035115D03*
%TO.N,GND*%
X133286099Y-122495115D03*
%TO.N,+5*%
X133286099Y-125035115D03*
%TO.N,GND*%
X130746099Y-122495115D03*
%TO.N,+5*%
X130746099Y-125035115D03*
%TD*%
D12*
%TO.N,/IO44*%
%TO.C,J1*%
X130746099Y-117923115D03*
%TO.N,/IO43*%
X133286099Y-117923115D03*
%TO.N,/IO38*%
X135826099Y-117923115D03*
%TO.N,/IO18*%
X138366099Y-117923115D03*
%TO.N,/IO17*%
X140906099Y-117923115D03*
%TO.N,/IO15*%
X143446099Y-117923115D03*
%TO.N,/IO10*%
X145986099Y-117923115D03*
%TO.N,/IO9*%
X148526099Y-117923115D03*
%TO.N,/IO8*%
X151066099Y-117923115D03*
%TO.N,/IO7*%
X153606099Y-117923115D03*
%TO.N,/IO6*%
X156146099Y-117923115D03*
%TO.N,/IO5*%
X158686099Y-117923115D03*
%TO.N,/IO4*%
X161226099Y-117923115D03*
%TO.N,/IO02*%
X163766099Y-117923115D03*
D13*
%TO.N,/IO01*%
X166306099Y-117923115D03*
%TD*%
D14*
%TO.N,GND*%
%TO.C,USB1*%
X165265099Y-84395115D03*
D15*
X165265099Y-88545115D03*
D14*
X173905109Y-84395115D03*
D15*
X173905109Y-88545115D03*
D16*
%TO.N,*%
X166695119Y-87995105D03*
X172475089Y-87995105D03*
%TD*%
D17*
%TO.N,/IO44*%
X159042099Y-94529715D03*
%TO.N,/IO43*%
X133032499Y-87341515D03*
X159042099Y-87341515D03*
%TO.N,/IO38*%
X155384499Y-93259715D03*
X131356099Y-94174115D03*
%TO.N,/IO17*%
X141262099Y-94631315D03*
X134404099Y-96333115D03*
%TO.N,/IO9*%
X141439899Y-102708515D03*
X141135099Y-107382115D03*
%TO.N,/IO8*%
X138239499Y-112919315D03*
%TO.N,/IO7*%
X133769099Y-115891115D03*
X138290299Y-90668915D03*
X134175499Y-89297315D03*
%TO.N,/IO6*%
X132016499Y-112741515D03*
X141643099Y-89094115D03*
X131906869Y-92029495D03*
%TO.N,/IO5*%
X136537699Y-115484715D03*
%TO.N,/IO4*%
X135648699Y-113150705D03*
%TO.N,/BUZZER_SIG*%
X131279899Y-85182515D03*
X155232099Y-95063115D03*
%TO.N,/SEGG*%
X147180299Y-112157315D03*
%TO.N,/SEGF*%
X132245099Y-114595715D03*
X133134099Y-91075315D03*
X144485109Y-119853515D03*
%TO.N,/DIG1*%
X142782629Y-108213975D03*
%TO.N,/SEGDP*%
X163487099Y-100143115D03*
%TO.N,/DIG3*%
X144564099Y-109109315D03*
X137426699Y-109083915D03*
%TO.N,/SEGE*%
X148653499Y-102860915D03*
%TO.N,/SEGC*%
X146596099Y-109414115D03*
X135801099Y-109007715D03*
%TO.N,/DIG0*%
X154495089Y-106797915D03*
%TO.N,/DIG2*%
X150609299Y-109363315D03*
%TO.N,/DIG5*%
X144564099Y-106950315D03*
%TO.N,/SEGD*%
X155841699Y-107356715D03*
%TO.N,/DIG7*%
X147256499Y-102708515D03*
%TO.N,/SEGB*%
X142379699Y-111649315D03*
%TO.N,/SEGA*%
X150736299Y-112385915D03*
%TO.N,/DIG6*%
X150202899Y-106772515D03*
X158661099Y-103699115D03*
%TO.N,/DIG4*%
X153149299Y-112385915D03*
%TO.N,/SCL*%
X161404299Y-109363315D03*
X121704099Y-109668115D03*
%TO.N,/SDA*%
X163969699Y-108321915D03*
X120180099Y-109287115D03*
X157772099Y-108215285D03*
X125437899Y-106747115D03*
%TO.N,/B2*%
X151930099Y-99127115D03*
X152971089Y-95444115D03*
X130594099Y-99254115D03*
%TO.N,/B1*%
X153860499Y-99685915D03*
X162648899Y-103572115D03*
%TO.N,/fuse*%
X166916099Y-90618115D03*
X171488099Y-90618115D03*
%TO.N,GND*%
X146494499Y-107305915D03*
X145402099Y-102861115D03*
X121958099Y-101032115D03*
X144467329Y-98614285D03*
X120180099Y-107636115D03*
X152387299Y-108550515D03*
X123202699Y-106950315D03*
X128054099Y-102837085D03*
%TO.N,D_P*%
X142836899Y-96637915D03*
X175060099Y-94783715D03*
X169532299Y-93970915D03*
%TO.N,D_N*%
X144970499Y-83150515D03*
X172377099Y-83133095D03*
%TO.N,+5*%
X139738099Y-112258915D03*
X127800099Y-120971115D03*
X149646079Y-119853515D03*
X172808899Y-116297515D03*
%TO.N,+3.3*%
X122331119Y-119718535D03*
%TD*%
M02*
