%TF.GenerationSoftware,KiCad,Pcbnew,9.0.6*%
%TF.CreationDate,2025-12-04T12:23:30+01:00*%
%TF.ProjectId,Motherboard,4d6f7468-6572-4626-9f61-72642e6b6963,rev?*%
%TF.SameCoordinates,Original*%
%TF.FileFunction,Profile,NP*%
%FSLAX46Y46*%
G04 Gerber Fmt 4.6, Leading zero omitted, Abs format (unit mm)*
G04 Created by KiCad (PCBNEW 9.0.6) date 2025-12-04 12:23:30*
%MOMM*%
%LPD*%
G01*
G04 APERTURE LIST*
%TA.AperFunction,Profile*%
%ADD10C,0.050000*%
%TD*%
G04 APERTURE END LIST*
D10*
X121098290Y-82571837D02*
G75*
G02*
X123361796Y-81785935I2009499J-2135078D01*
G01*
X116751099Y-88158115D02*
G75*
G02*
X118078298Y-85568168I3904444J-365774D01*
G01*
X116751099Y-120977115D02*
X116751099Y-121606115D01*
X123106099Y-128177115D02*
X124244099Y-128210115D01*
X176458850Y-127417678D02*
X178981105Y-124908115D01*
X180267461Y-122114115D02*
G75*
G02*
X178981101Y-124908110I-3953361J127015D01*
G01*
X180267460Y-122114115D02*
X180251099Y-93412115D01*
X180251099Y-93412115D02*
X180251095Y-88412127D01*
X179465201Y-86148610D02*
G75*
G02*
X180251089Y-88412126I-2135101J-2009490D01*
G01*
X179465200Y-86148610D02*
X176441091Y-83078117D01*
X173901098Y-81808117D02*
G75*
G02*
X176441095Y-83078120I-380998J-3936983D01*
G01*
X173901099Y-81808115D02*
X123361963Y-81785937D01*
X121091593Y-82575183D02*
X118079303Y-85568168D01*
X116751099Y-88158115D02*
X116751099Y-93117115D01*
X116751099Y-93117115D02*
X116751099Y-120971115D01*
X117537002Y-123869622D02*
G75*
G02*
X116751088Y-121606115I2135098J2009522D01*
G01*
X117537002Y-123869622D02*
X120561102Y-126893732D01*
X123104501Y-128175030D02*
G75*
G02*
X120566637Y-126893732I377599J3901930D01*
G01*
X124244099Y-128210115D02*
X174346099Y-128210115D01*
X176458850Y-127417679D02*
G75*
G02*
X174346100Y-128210115I-2003350J2128556D01*
G01*
M02*
