%TF.GenerationSoftware,KiCad,Pcbnew,9.0.6*%
%TF.CreationDate,2025-12-04T12:23:30+01:00*%
%TF.ProjectId,Motherboard,4d6f7468-6572-4626-9f61-72642e6b6963,rev?*%
%TF.SameCoordinates,Original*%
%TF.FileFunction,Copper,L4,Bot*%
%TF.FilePolarity,Positive*%
%FSLAX46Y46*%
G04 Gerber Fmt 4.6, Leading zero omitted, Abs format (unit mm)*
G04 Created by KiCad (PCBNEW 9.0.6) date 2025-12-04 12:23:30*
%MOMM*%
%LPD*%
G01*
G04 APERTURE LIST*
%TA.AperFunction,SMDPad,CuDef*%
%ADD10R,2.100000X1.400000*%
%TD*%
%TA.AperFunction,ComponentPad*%
%ADD11C,1.200000*%
%TD*%
%TA.AperFunction,ComponentPad*%
%ADD12R,1.900000X1.574800*%
%TD*%
%TA.AperFunction,ComponentPad*%
%ADD13C,1.900000*%
%TD*%
%TA.AperFunction,ComponentPad*%
%ADD14C,1.570000*%
%TD*%
%TA.AperFunction,ComponentPad*%
%ADD15R,1.570000X1.570000*%
%TD*%
%TA.AperFunction,ComponentPad*%
%ADD16O,1.000000X1.850000*%
%TD*%
%TA.AperFunction,ComponentPad*%
%ADD17O,1.000000X2.100000*%
%TD*%
%TA.AperFunction,ComponentPad*%
%ADD18C,0.001000*%
%TD*%
%TA.AperFunction,ViaPad*%
%ADD19C,1.270000*%
%TD*%
%TA.AperFunction,Conductor*%
%ADD20C,0.254000*%
%TD*%
G04 APERTURE END LIST*
D10*
%TO.P,SW1,2,2*%
%TO.N,unconnected-(SW1-Pad2)*%
X128794099Y-105587115D03*
%TO.P,SW1,1,1*%
%TO.N,/B1*%
X119694099Y-105587115D03*
%TO.P,SW1,4,4*%
%TO.N,GND*%
X128794099Y-101087115D03*
%TO.P,SW1,3,3*%
%TO.N,unconnected-(SW1-Pad3)*%
X119694099Y-101087115D03*
%TD*%
%TO.P,SW2,3,3*%
%TO.N,unconnected-(SW2-Pad3)*%
X168335099Y-101087115D03*
%TO.P,SW2,4,4*%
%TO.N,GND*%
X177435099Y-101087115D03*
%TO.P,SW2,1,1*%
%TO.N,/B2*%
X168335099Y-105587115D03*
%TO.P,SW2,2,2*%
%TO.N,unconnected-(SW2-Pad2)*%
X177435099Y-105587115D03*
%TD*%
D11*
%TO.P,L1,16,COL8*%
%TO.N,/SEGG*%
X136526119Y-89094115D03*
%TO.P,L1,15,COL7*%
%TO.N,/SEGF*%
X136526119Y-91634115D03*
%TO.P,L1,14,ROW2*%
%TO.N,/DIG1*%
X136526119Y-94174115D03*
%TO.P,L1,13,COL1*%
%TO.N,/SEGDP*%
X136526119Y-96714115D03*
%TO.P,L1,12,ROW4*%
%TO.N,/DIG3*%
X136526119Y-99254125D03*
%TO.P,L1,11,COL6*%
%TO.N,/SEGE*%
X136526119Y-101794125D03*
%TO.P,L1,10,COL4*%
%TO.N,/SEGC*%
X136526119Y-104334125D03*
%TO.P,L1,9,ROW1*%
%TO.N,/DIG0*%
X136526119Y-106874125D03*
%TO.P,L1,8,ROW3*%
%TO.N,/DIG2*%
X160526079Y-106874125D03*
%TO.P,L1,7,ROW6*%
%TO.N,/DIG5*%
X160526079Y-104334125D03*
%TO.P,L1,6,COL5*%
%TO.N,/SEGD*%
X160526079Y-101794125D03*
%TO.P,L1,5,ROW8*%
%TO.N,/DIG7*%
X160526079Y-99254125D03*
%TO.P,L1,4,COL3*%
%TO.N,/SEGB*%
X160526079Y-96714115D03*
%TO.P,L1,3,COL2*%
%TO.N,/SEGA*%
X160526079Y-94174115D03*
%TO.P,L1,2,ROW7*%
%TO.N,/DIG6*%
X160526079Y-91634115D03*
%TO.P,L1,1,ROW5*%
%TO.N,/DIG4*%
X160526079Y-89094115D03*
%TD*%
D12*
%TO.P,J2,1,1*%
%TO.N,GND*%
X166306099Y-122495115D03*
D13*
%TO.P,J2,2,2*%
%TO.N,+3.3*%
X166306099Y-125035115D03*
%TO.P,J2,3,3*%
%TO.N,GND*%
X163766099Y-122495115D03*
%TO.P,J2,4,4*%
%TO.N,+3.3*%
X163766099Y-125035115D03*
%TO.P,J2,5,5*%
%TO.N,GND*%
X161226099Y-122495115D03*
%TO.P,J2,6,6*%
%TO.N,+3.3*%
X161226099Y-125035115D03*
%TO.P,J2,7,7*%
%TO.N,GND*%
X158686099Y-122495115D03*
%TO.P,J2,8,8*%
%TO.N,+3.3*%
X158686099Y-125035115D03*
%TO.P,J2,9,9*%
%TO.N,GND*%
X156146099Y-122495115D03*
%TO.P,J2,10,10*%
%TO.N,+3.3*%
X156146099Y-125035115D03*
%TO.P,J2,11,11*%
%TO.N,GND*%
X153606099Y-122495115D03*
%TO.P,J2,12,12*%
%TO.N,+3.3*%
X153606099Y-125035115D03*
%TO.P,J2,13,13*%
%TO.N,GND*%
X151066099Y-122495115D03*
%TO.P,J2,14,14*%
%TO.N,+3.3*%
X151066099Y-125035115D03*
%TO.P,J2,15,15*%
%TO.N,GND*%
X148526099Y-122495115D03*
%TO.P,J2,16,16*%
%TO.N,+3.3*%
X148526099Y-125035115D03*
%TO.P,J2,17,17*%
%TO.N,GND*%
X145986099Y-122495115D03*
%TO.P,J2,18,18*%
%TO.N,+3.3*%
X145986099Y-125035115D03*
%TO.P,J2,19,19*%
%TO.N,GND*%
X143446099Y-122495115D03*
%TO.P,J2,20,20*%
%TO.N,+3.3*%
X143446099Y-125035115D03*
%TO.P,J2,21,21*%
%TO.N,GND*%
X140906099Y-122495115D03*
%TO.P,J2,22,22*%
%TO.N,+5*%
X140906099Y-125035115D03*
%TO.P,J2,23,23*%
%TO.N,GND*%
X138366099Y-122495115D03*
%TO.P,J2,24,24*%
%TO.N,+5*%
X138366099Y-125035115D03*
%TO.P,J2,25,25*%
%TO.N,GND*%
X135826099Y-122495115D03*
%TO.P,J2,26,26*%
%TO.N,+5*%
X135826099Y-125035115D03*
%TO.P,J2,27,27*%
%TO.N,GND*%
X133286099Y-122495115D03*
%TO.P,J2,28,28*%
%TO.N,+5*%
X133286099Y-125035115D03*
%TO.P,J2,29,29*%
%TO.N,GND*%
X130746099Y-122495115D03*
%TO.P,J2,30,30*%
%TO.N,+5*%
X130746099Y-125035115D03*
%TD*%
D14*
%TO.P,J1,15,15*%
%TO.N,/IO44*%
X130746099Y-117923115D03*
%TO.P,J1,14,14*%
%TO.N,/IO43*%
X133286099Y-117923115D03*
%TO.P,J1,13,13*%
%TO.N,/IO38*%
X135826099Y-117923115D03*
%TO.P,J1,12,12*%
%TO.N,/IO18*%
X138366099Y-117923115D03*
%TO.P,J1,11,11*%
%TO.N,/IO17*%
X140906099Y-117923115D03*
%TO.P,J1,10,10*%
%TO.N,/IO15*%
X143446099Y-117923115D03*
%TO.P,J1,9,9*%
%TO.N,/IO10*%
X145986099Y-117923115D03*
%TO.P,J1,8,8*%
%TO.N,/IO9*%
X148526099Y-117923115D03*
%TO.P,J1,7,7*%
%TO.N,/IO8*%
X151066099Y-117923115D03*
%TO.P,J1,6,6*%
%TO.N,/IO7*%
X153606099Y-117923115D03*
%TO.P,J1,5,5*%
%TO.N,/IO6*%
X156146099Y-117923115D03*
%TO.P,J1,4,4*%
%TO.N,/IO5*%
X158686099Y-117923115D03*
%TO.P,J1,3,3*%
%TO.N,/IO4*%
X161226099Y-117923115D03*
%TO.P,J1,2,2*%
%TO.N,/IO02*%
X163766099Y-117923115D03*
D15*
%TO.P,J1,1,1*%
%TO.N,/IO01*%
X166306099Y-117923115D03*
%TD*%
D16*
%TO.P,USB1,B1A12,GND*%
%TO.N,GND*%
X165265099Y-84395115D03*
D17*
X165265099Y-88545115D03*
D16*
%TO.P,USB1,A1B12,GND*%
X173905109Y-84395115D03*
D17*
X173905109Y-88545115D03*
D18*
%TO.P,USB1,*%
%TO.N,*%
X166695119Y-87995105D03*
X172475089Y-87995105D03*
%TD*%
D19*
%TO.N,/IO44*%
X159042099Y-94529715D03*
%TO.N,/IO43*%
X133032499Y-87341515D03*
X159042099Y-87341515D03*
%TO.N,/IO38*%
X155384499Y-93259715D03*
X131356099Y-94174115D03*
%TO.N,/IO17*%
X141262099Y-94631315D03*
X134404099Y-96333115D03*
%TO.N,/IO9*%
X141439899Y-102708515D03*
X141135099Y-107382115D03*
%TO.N,/IO8*%
X138239499Y-112919315D03*
%TO.N,/IO7*%
X133769099Y-115891115D03*
X138290299Y-90668915D03*
X134175499Y-89297315D03*
%TO.N,/IO6*%
X132016499Y-112741515D03*
X141643099Y-89094115D03*
X131906869Y-92029495D03*
%TO.N,/IO5*%
X136537699Y-115484715D03*
%TO.N,/IO4*%
X135648699Y-113150705D03*
%TO.N,/BUZZER_SIG*%
X131279899Y-85182515D03*
X155232099Y-95063115D03*
%TO.N,/SEGG*%
X147180299Y-112157315D03*
%TO.N,/SEGF*%
X132245099Y-114595715D03*
X133134099Y-91075315D03*
X144485109Y-119853515D03*
%TO.N,/DIG1*%
X142782629Y-108213975D03*
%TO.N,/SEGDP*%
X163487099Y-100143115D03*
%TO.N,/DIG3*%
X144564099Y-109109315D03*
X137426699Y-109083915D03*
%TO.N,/SEGE*%
X148653499Y-102860915D03*
%TO.N,/SEGC*%
X146596099Y-109414115D03*
X135801099Y-109007715D03*
%TO.N,/DIG0*%
X154495089Y-106797915D03*
%TO.N,/DIG2*%
X150609299Y-109363315D03*
%TO.N,/DIG5*%
X144564099Y-106950315D03*
%TO.N,/SEGD*%
X155841699Y-107356715D03*
%TO.N,/DIG7*%
X147256499Y-102708515D03*
%TO.N,/SEGB*%
X142379699Y-111649315D03*
%TO.N,/SEGA*%
X150736299Y-112385915D03*
%TO.N,/DIG6*%
X150202899Y-106772515D03*
X158661099Y-103699115D03*
%TO.N,/DIG4*%
X153149299Y-112385915D03*
%TO.N,/SCL*%
X161404299Y-109363315D03*
X121704099Y-109668115D03*
%TO.N,/SDA*%
X163969699Y-108321915D03*
X120180099Y-109287115D03*
X157772099Y-108215285D03*
X125437899Y-106747115D03*
%TO.N,/B2*%
X151930099Y-99127115D03*
X152971089Y-95444115D03*
X130594099Y-99254115D03*
%TO.N,/B1*%
X153860499Y-99685915D03*
X162648899Y-103572115D03*
%TO.N,/fuse*%
X166916099Y-90618115D03*
X171488099Y-90618115D03*
%TO.N,GND*%
X146494499Y-107305915D03*
X145402099Y-102861115D03*
X121958099Y-101032115D03*
X144467329Y-98614285D03*
X120180099Y-107636115D03*
X152387299Y-108550515D03*
X123202699Y-106950315D03*
X128054099Y-102837085D03*
%TO.N,D_P*%
X142836899Y-96637915D03*
X175060099Y-94783715D03*
X169532299Y-93970915D03*
%TO.N,D_N*%
X144970499Y-83150515D03*
X172377099Y-83133095D03*
%TO.N,+5*%
X139738099Y-112258915D03*
X127800099Y-120971115D03*
X149646079Y-119853515D03*
X172808899Y-116297515D03*
%TO.N,+3.3*%
X122331119Y-119718535D03*
%TD*%
D20*
%TO.N,/DIG7*%
X159256119Y-97984115D02*
X160526069Y-99254065D01*
X149859099Y-97984115D02*
X159256119Y-97984115D01*
X149575119Y-98268095D02*
X149859099Y-97984115D01*
X149575119Y-100389895D02*
X149575119Y-98268095D01*
X147256499Y-102708515D02*
X149575119Y-100389895D01*
%TO.N,/fuse*%
X166916099Y-90618115D02*
X171488099Y-90618115D01*
%TO.N,/IO9*%
X141287499Y-107229715D02*
X141287499Y-102860915D01*
X141135099Y-107382115D02*
X141287499Y-107229715D01*
X141287499Y-102860915D02*
X141439899Y-102708515D01*
%TO.N,/IO43*%
X133032499Y-87341515D02*
X159042099Y-87341515D01*
%TO.N,/IO44*%
X159550099Y-95037715D02*
X164528499Y-95037715D01*
X159042099Y-94529715D02*
X159550099Y-95037715D01*
X164528499Y-95037715D02*
X170020129Y-100529345D01*
X170020129Y-106747115D02*
X170020129Y-100529345D01*
X165803729Y-110963515D02*
X170020129Y-106747115D01*
X152196799Y-110963515D02*
X165803729Y-110963515D01*
X151663399Y-111496915D02*
X152196799Y-110963515D01*
X150152099Y-111496915D02*
X151663399Y-111496915D01*
X148221699Y-113427315D02*
X150152099Y-111496915D01*
X142603169Y-113427315D02*
X148221699Y-113427315D01*
X140418769Y-111242915D02*
X142603169Y-113427315D01*
X131279489Y-111242915D02*
X140418769Y-111242915D01*
X130746089Y-111776315D02*
X131279489Y-111242915D01*
X130746089Y-117923115D02*
X130746089Y-111776315D01*
%TO.N,/IO38*%
X132108949Y-95037715D02*
X137375899Y-95037715D01*
X137375899Y-95037715D02*
X139153899Y-93259715D01*
X131356099Y-94284865D02*
X132108949Y-95037715D01*
X139153899Y-93259715D02*
X155384499Y-93259715D01*
X131356099Y-94284865D02*
X131356099Y-94174115D01*
%TO.N,/IO4*%
X135648699Y-113150705D02*
X136458709Y-113960715D01*
X136458709Y-113960715D02*
X157263689Y-113960715D01*
X157263689Y-113960715D02*
X161226089Y-117923115D01*
%TO.N,/IO17*%
X134912099Y-95825115D02*
X140068299Y-95825115D01*
X134404099Y-96333115D02*
X134912099Y-95825115D01*
X140068299Y-95825115D02*
X141262099Y-94631315D01*
%TO.N,/IO8*%
X137579099Y-112258915D02*
X138239499Y-112919315D01*
X135064499Y-112258915D02*
X137579099Y-112258915D01*
X134759699Y-112563715D02*
X135064499Y-112258915D01*
X134759699Y-113605115D02*
X134759699Y-112563715D01*
X134759699Y-113605115D02*
X135597899Y-114443315D01*
X135597899Y-114443315D02*
X157010099Y-114443315D01*
X157010099Y-114443315D02*
X159727899Y-117161115D01*
X159727899Y-118685115D02*
X159727899Y-117161115D01*
X159448499Y-118964515D02*
X159727899Y-118685115D01*
X155486099Y-118964515D02*
X159448499Y-118964515D01*
X154851099Y-118329515D02*
X155486099Y-118964515D01*
X154851099Y-118329515D02*
X154851099Y-117491315D01*
X154243889Y-116884105D02*
X154851099Y-117491315D01*
X152105109Y-116884105D02*
X154243889Y-116884105D01*
X151066089Y-117923115D02*
X152105109Y-116884105D01*
%TO.N,/IO7*%
X134175499Y-89297315D02*
X134835899Y-89957715D01*
X134835899Y-89957715D02*
X137579099Y-89957715D01*
X137579099Y-89957715D02*
X138290299Y-90668915D01*
X133769099Y-115891115D02*
X134706109Y-116828125D01*
X134706109Y-118555325D02*
X134706109Y-116828125D01*
X134706109Y-118555325D02*
X135115299Y-118964515D01*
X135115299Y-118964515D02*
X152564689Y-118964515D01*
X152564689Y-118964515D02*
X153606089Y-117923115D01*
%TO.N,/IO5*%
X136537699Y-115484715D02*
X156247689Y-115484715D01*
X156247689Y-115484715D02*
X158686089Y-117923115D01*
%TO.N,/SEGE*%
X136526119Y-101794065D02*
X137440469Y-100879715D01*
X137440469Y-100879715D02*
X142163459Y-100879715D01*
X142163459Y-100879715D02*
X145033859Y-103750115D01*
X145033859Y-103750115D02*
X147764299Y-103750115D01*
X147764299Y-103750115D02*
X148653499Y-102860915D01*
%TO.N,/DIG1*%
X135637169Y-93285115D02*
X136526119Y-94174065D01*
X125107699Y-93285115D02*
X135637169Y-93285115D01*
X118376699Y-100016115D02*
X125107699Y-93285115D01*
X118376699Y-106391515D02*
X118376699Y-100016115D01*
X118529099Y-106543915D02*
X121373899Y-106543915D01*
X118376699Y-106391515D02*
X118529099Y-106543915D01*
X121373899Y-106543915D02*
X123405899Y-104511915D01*
X123405899Y-104511915D02*
X132457949Y-104511915D01*
X132457949Y-104511915D02*
X135674099Y-107728065D01*
X135674099Y-107728065D02*
X139144249Y-107728065D01*
X139144249Y-107728065D02*
X140093699Y-108677515D01*
X140093699Y-108677515D02*
X141639629Y-108677515D01*
X141639629Y-108677515D02*
X141908769Y-108408375D01*
X141908769Y-108408375D02*
X142588229Y-108408375D01*
X142588229Y-108408375D02*
X142782629Y-108213975D01*
%TO.N,/DIG0*%
X136526119Y-106874065D02*
X139153849Y-106874065D01*
X139153849Y-106874065D02*
X140550899Y-108271115D01*
X140550899Y-108271115D02*
X141503329Y-108271115D01*
X141503329Y-108271115D02*
X142024099Y-107750345D01*
X142024099Y-107750345D02*
X142024099Y-107715275D01*
X142024099Y-107715275D02*
X142458859Y-107280515D01*
X142458859Y-107280515D02*
X143598899Y-107280515D01*
X143598899Y-107280515D02*
X144157699Y-107839315D01*
X144157699Y-107839315D02*
X145275299Y-107839315D01*
X145275299Y-107839315D02*
X145605499Y-107509115D01*
X145605499Y-107509115D02*
X145605499Y-106747115D01*
X145605499Y-106747115D02*
X145935699Y-106416915D01*
X145935699Y-106416915D02*
X147383499Y-106416915D01*
X147383499Y-106416915D02*
X148628099Y-107661515D01*
X148628099Y-107661515D02*
X153631489Y-107661515D01*
X153631489Y-107661515D02*
X154495089Y-106797915D01*
%TO.N,/SEGG*%
X145783299Y-110760315D02*
X147180299Y-112157315D01*
X120396069Y-110760315D02*
X145783299Y-110760315D01*
X117995699Y-108359945D02*
X120396069Y-110760315D01*
X117995699Y-108359945D02*
X117995699Y-96790315D01*
X117995699Y-96790315D02*
X126555499Y-88230515D01*
X126555499Y-88230515D02*
X135662569Y-88230515D01*
X135662569Y-88230515D02*
X136526119Y-89094065D01*
%TO.N,/DIG6*%
X158661099Y-103699115D02*
X158889699Y-103470515D01*
X158889699Y-103470515D02*
X161074099Y-103470515D01*
X161074099Y-103470515D02*
X161404299Y-103800715D01*
X161404299Y-105172315D02*
X161404299Y-103800715D01*
X151625299Y-105350115D02*
X161226499Y-105350115D01*
X161226499Y-105350115D02*
X161404299Y-105172315D01*
X150202899Y-106772515D02*
X151625299Y-105350115D01*
%TO.N,/SEGD*%
X160526069Y-101794065D02*
X162394849Y-101794065D01*
X162394849Y-101794065D02*
X163537899Y-102937115D01*
X163537899Y-104969115D02*
X163537899Y-102937115D01*
X162598099Y-105908915D02*
X163537899Y-104969115D01*
X157289499Y-105908915D02*
X162598099Y-105908915D01*
X155841699Y-107356715D02*
X157289499Y-105908915D01*
%TO.N,/SEGDP*%
X136526119Y-96714065D02*
X137973969Y-98161915D01*
X137973969Y-98161915D02*
X143573499Y-98161915D01*
X143573499Y-98161915D02*
X144564099Y-97171315D01*
X144564099Y-97171315D02*
X158330899Y-97171315D01*
X158330899Y-97171315D02*
X159651699Y-95850515D01*
X159651699Y-95850515D02*
X161582099Y-95850515D01*
X161582099Y-95850515D02*
X163537899Y-97806315D01*
X163537899Y-100092315D02*
X163537899Y-97806315D01*
X163487099Y-100143115D02*
X163537899Y-100092315D01*
%TO.N,/DIG4*%
X160526069Y-89094065D02*
X163118749Y-91686745D01*
X163118749Y-91686745D02*
X173318729Y-91686745D01*
X173318729Y-91686745D02*
X176314099Y-94682115D01*
X176314099Y-96053715D02*
X176314099Y-94682115D01*
X171564299Y-100803515D02*
X176314099Y-96053715D01*
X171564299Y-107407515D02*
X171564299Y-100803515D01*
X166585899Y-112385915D02*
X171564299Y-107407515D01*
X153149299Y-112385915D02*
X166585899Y-112385915D01*
%TO.N,/SEGB*%
X160526069Y-98046355D02*
X160526069Y-96714065D01*
X160526069Y-98046355D02*
X161822469Y-99342755D01*
X161822469Y-99735715D02*
X161822469Y-99342755D01*
X161822469Y-99735715D02*
X163118869Y-101032115D01*
X163118869Y-101032115D02*
X166038169Y-101032115D01*
X166038169Y-101032115D02*
X169639129Y-104633075D01*
X169639129Y-106541125D02*
X169639129Y-104633075D01*
X165597739Y-110582515D02*
X169639129Y-106541125D01*
X151815799Y-110582515D02*
X165597739Y-110582515D01*
X151282399Y-111115915D02*
X151815799Y-110582515D01*
X149981669Y-111115915D02*
X151282399Y-111115915D01*
X148051269Y-113046315D02*
X149981669Y-111115915D01*
X143776699Y-113046315D02*
X148051269Y-113046315D01*
X142379699Y-111649315D02*
X143776699Y-113046315D01*
%TO.N,/SEGA*%
X160526069Y-94174065D02*
X166839899Y-94174065D01*
X166839899Y-94174065D02*
X170421299Y-97755465D01*
X170421299Y-106975715D02*
X170421299Y-97755465D01*
X166052499Y-111344515D02*
X170421299Y-106975715D01*
X152412699Y-111344515D02*
X166052499Y-111344515D01*
X151371299Y-112385915D02*
X152412699Y-111344515D01*
X150736299Y-112385915D02*
X151371299Y-112385915D01*
%TO.N,/DIG5*%
X160053069Y-104334065D02*
X160526069Y-104334065D01*
X146748089Y-104588115D02*
X160053069Y-104588115D01*
X160053069Y-104588115D02*
X160053069Y-104334065D01*
X144564099Y-106772105D02*
X146748089Y-104588115D01*
X144564099Y-106950315D02*
X144564099Y-106772105D01*
%TO.N,/IO6*%
X132491069Y-90186315D02*
X134314899Y-90186315D01*
X134314899Y-90186315D02*
X134899099Y-90770515D01*
X132016499Y-112741515D02*
X135775699Y-116500715D01*
X137756899Y-91583315D02*
X139153899Y-91583315D01*
X134899099Y-90770515D02*
X136944099Y-90770515D01*
X139153899Y-91583315D02*
X141643099Y-89094115D01*
X154723689Y-116500715D02*
X156146089Y-117923115D01*
X131906869Y-90770515D02*
X132491069Y-90186315D01*
X135775699Y-116500715D02*
X154723689Y-116500715D01*
X136944099Y-90770515D02*
X137756899Y-91583315D01*
X131906869Y-92029495D02*
X131906869Y-90770515D01*
%TO.N,/BUZZER_SIG*%
X156425899Y-94351915D02*
X156425899Y-91735715D01*
X155232099Y-95063115D02*
X155507029Y-95063115D01*
X159931099Y-88230515D02*
X159931099Y-86655715D01*
X131279899Y-85182515D02*
X158457899Y-85182515D01*
X156425899Y-91735715D02*
X159931099Y-88230515D01*
X158457899Y-85182515D02*
X159931099Y-86655715D01*
X156038619Y-94531525D02*
X156246289Y-94531525D01*
X155507029Y-95063115D02*
X156038619Y-94531525D01*
X156246289Y-94531525D02*
X156425899Y-94351915D01*
%TO.N,/SEGF*%
X133413499Y-119853515D02*
X144485109Y-119853515D01*
X133134099Y-91075315D02*
X133692849Y-91634065D01*
X132245099Y-118685115D02*
X133413499Y-119853515D01*
X132245099Y-118685115D02*
X132245099Y-114595715D01*
X133692849Y-91634065D02*
X136526119Y-91634065D01*
%TO.N,/DIG3*%
X144056099Y-109617315D02*
X144564099Y-109109315D01*
X137960099Y-109617315D02*
X144056099Y-109617315D01*
X137426699Y-109083915D02*
X137960099Y-109617315D01*
%TO.N,/SEGC*%
X145743459Y-109998315D02*
X146327659Y-109414115D01*
X146327659Y-109414115D02*
X146596099Y-109414115D01*
X136766299Y-109998315D02*
X145743459Y-109998315D01*
X135801099Y-109033115D02*
X135801099Y-109007715D01*
X135801099Y-109033115D02*
X136766299Y-109998315D01*
%TO.N,/DIG2*%
X160526069Y-106874065D02*
X164410999Y-106874065D01*
X150609299Y-109363315D02*
X151066499Y-109820515D01*
X159536279Y-109820515D02*
X160882479Y-108474315D01*
X151066499Y-109820515D02*
X159536279Y-109820515D01*
X164318999Y-109760165D02*
X165046049Y-109033115D01*
X162230919Y-108474315D02*
X163516769Y-109760165D01*
X163516769Y-109760165D02*
X164318999Y-109760165D01*
X164410999Y-106874065D02*
X165046049Y-107509115D01*
X165046049Y-109033115D02*
X165046049Y-107509115D01*
X160882479Y-108474315D02*
X162230919Y-108474315D01*
%TO.N,/SCL*%
X151447499Y-110379315D02*
X151625299Y-110201515D01*
X160566099Y-110201515D02*
X161404299Y-109363315D01*
X121718539Y-109668115D02*
X122429739Y-110379315D01*
X151625299Y-110201515D02*
X160566099Y-110201515D01*
X121704099Y-109668115D02*
X121718539Y-109668115D01*
X122429739Y-110379315D02*
X151447499Y-110379315D01*
%TO.N,/SDA*%
X120180099Y-109287115D02*
X121102799Y-108364415D01*
X156730699Y-108093315D02*
X163741099Y-108093315D01*
X126799849Y-108109065D02*
X137975849Y-108109065D01*
X155384499Y-109439515D02*
X156730699Y-108093315D01*
X121102799Y-108364415D02*
X122766569Y-108364415D01*
X156547869Y-109439515D02*
X157772099Y-108215285D01*
X151193499Y-108474315D02*
X151498299Y-108779115D01*
X151498299Y-109033115D02*
X151498299Y-108779115D01*
X155384499Y-109439515D02*
X156547869Y-109439515D01*
X163741099Y-108093315D02*
X163969699Y-108321915D01*
X145453099Y-108474315D02*
X145707099Y-108474315D01*
X125437899Y-106747115D02*
X126799849Y-108109065D01*
X151904699Y-109439515D02*
X155384499Y-109439515D01*
X122766569Y-108364415D02*
X123240869Y-107890115D01*
X151498299Y-109033115D02*
X151904699Y-109439515D01*
X123240869Y-107890115D02*
X124294899Y-107890115D01*
X145707099Y-108474315D02*
X151193499Y-108474315D01*
X143675099Y-108587495D02*
X144042279Y-108220315D01*
X145199099Y-108220315D02*
X145453099Y-108474315D01*
X144042279Y-108220315D02*
X145199099Y-108220315D01*
X137975849Y-108109065D02*
X139103099Y-109236315D01*
X143026279Y-109236315D02*
X143675099Y-108587495D01*
X139103099Y-109236315D02*
X139537489Y-109236315D01*
X124294899Y-107890115D02*
X125437899Y-106747115D01*
X139537489Y-109236315D02*
X143026279Y-109236315D01*
%TO.N,/B2*%
X166797479Y-105587095D02*
X168335099Y-105587095D01*
X138379049Y-95444115D02*
X140099089Y-93724075D01*
X151251059Y-93724075D02*
X152971089Y-95444115D01*
X130594099Y-99254115D02*
X130594099Y-98744135D01*
X154470099Y-98796915D02*
X156070299Y-100397115D01*
X153162069Y-99127115D02*
X153492269Y-98796915D01*
X151930099Y-99127115D02*
X153162069Y-99127115D01*
X153492269Y-98796915D02*
X154470099Y-98796915D01*
X140099089Y-93724075D02*
X151251059Y-93724075D01*
X161607499Y-100397115D02*
X166797479Y-105587095D01*
X130594099Y-98744135D02*
X133894119Y-95444115D01*
X156070299Y-100397115D02*
X161607499Y-100397115D01*
X133894119Y-95444115D02*
X138379049Y-95444115D01*
%TO.N,/B1*%
X153860499Y-101921115D02*
X153860499Y-99685915D01*
X120053099Y-105587095D02*
X121592539Y-104047655D01*
X121592539Y-104047655D02*
X133649159Y-104047655D01*
X151650499Y-104131115D02*
X153860499Y-101921115D01*
X141744699Y-101438515D02*
X144437299Y-104131115D01*
X144437299Y-104131115D02*
X151650499Y-104131115D01*
X156984699Y-102810115D02*
X161886899Y-102810115D01*
X135039099Y-102657715D02*
X138036299Y-102657715D01*
X161886899Y-102810115D02*
X162648899Y-103572115D01*
X119694099Y-105587095D02*
X120053099Y-105587095D01*
X138036299Y-102657715D02*
X139255499Y-101438515D01*
X153860499Y-99685915D02*
X156984699Y-102810115D01*
X139255499Y-101438515D02*
X141744699Y-101438515D01*
X133649159Y-104047655D02*
X135039099Y-102657715D01*
%TO.N,GND*%
X120180099Y-107636115D02*
X122451659Y-107636115D01*
X147231099Y-108042515D02*
X151879299Y-108042515D01*
X177435099Y-101087135D02*
X177457099Y-101087135D01*
X128435099Y-102456085D02*
X128435099Y-101087135D01*
X173905109Y-90973715D02*
X173905109Y-88545115D01*
X122451659Y-107636115D02*
X123137459Y-106950315D01*
X123137459Y-106950315D02*
X123202699Y-106950315D01*
X128794099Y-101082915D02*
X135750299Y-101082915D01*
X173905109Y-90973715D02*
X177457099Y-94525705D01*
X128435099Y-101087135D02*
X128794099Y-101087135D01*
X172889109Y-84395115D02*
X173397109Y-84903115D01*
X144467329Y-101926345D02*
X145402099Y-102861115D01*
X144467329Y-101926345D02*
X144467329Y-98614285D01*
X177457099Y-101087135D02*
X177457099Y-94525705D01*
X165265099Y-84395115D02*
X172889109Y-84395115D01*
X128054099Y-102837085D02*
X128435099Y-102456085D01*
X128380079Y-101032115D02*
X128435099Y-101087135D01*
X135750299Y-101082915D02*
X136715499Y-100117715D01*
X136715499Y-100117715D02*
X142963899Y-100117715D01*
X173397109Y-84903115D02*
X173905109Y-84395115D01*
X146494499Y-107305915D02*
X147231099Y-108042515D01*
X151879299Y-108042515D02*
X152387299Y-108550515D01*
X121958099Y-101032115D02*
X128380079Y-101032115D01*
X142963899Y-100117715D02*
X144467329Y-98614285D01*
%TO.N,D_P*%
X157365699Y-93716915D02*
X158026099Y-93056515D01*
X170345099Y-94783715D02*
X175060099Y-94783715D01*
X156552899Y-96637915D02*
X157365699Y-95825115D01*
X142836899Y-96637915D02*
X156552899Y-96637915D01*
X173332899Y-93056515D02*
X175060099Y-94783715D01*
X169532299Y-93970915D02*
X170345099Y-94783715D01*
X157365699Y-95825115D02*
X157365699Y-93716915D01*
X158026099Y-93056515D02*
X173332899Y-93056515D01*
%TO.N,D_N*%
X172368389Y-83141805D02*
X172377099Y-83133095D01*
X144979209Y-83141805D02*
X172368389Y-83141805D01*
X144970499Y-83150515D02*
X144979209Y-83141805D01*
%TO.N,+5*%
X131127499Y-116322915D02*
X131127499Y-112157315D01*
X133261099Y-125035115D02*
X135801099Y-125035115D01*
X131127499Y-112157315D02*
X131660899Y-111623915D01*
X142938499Y-120742515D02*
X148757079Y-120742515D01*
X142151099Y-123765115D02*
X142151099Y-121529915D01*
X129501899Y-120971115D02*
X131787899Y-118685115D01*
X127800099Y-122114115D02*
X127800099Y-120971115D01*
X135801099Y-125035115D02*
X138341099Y-125035115D01*
X148757079Y-120742515D02*
X149646079Y-119853515D01*
X127800099Y-122114115D02*
X130721099Y-125035115D01*
X130721099Y-125035115D02*
X133261099Y-125035115D01*
X138341099Y-125035115D02*
X140881099Y-125035115D01*
X131787899Y-118685115D02*
X131787899Y-116983315D01*
X127800099Y-120971115D02*
X129501899Y-120971115D01*
X149646079Y-119853515D02*
X169252899Y-119853515D01*
X140881099Y-125035115D02*
X142151099Y-123765115D01*
X169252899Y-119853515D02*
X172808899Y-116297515D01*
X131660899Y-111623915D02*
X139103099Y-111623915D01*
X142151099Y-121529915D02*
X142938499Y-120742515D01*
X139103099Y-111623915D02*
X139738099Y-112258915D01*
X131127499Y-116322915D02*
X131787899Y-116983315D01*
%TO.N,+3.3*%
X122331119Y-119718535D02*
X129171699Y-126559115D01*
X141897099Y-126559115D02*
X143421099Y-125035115D01*
X129171699Y-126559115D02*
X141897099Y-126559115D01*
%TD*%
M02*
