%TF.GenerationSoftware,KiCad,Pcbnew,9.0.6*%
%TF.CreationDate,2025-12-04T12:23:30+01:00*%
%TF.ProjectId,Motherboard,4d6f7468-6572-4626-9f61-72642e6b6963,rev?*%
%TF.SameCoordinates,Original*%
%TF.FileFunction,Soldermask,Bot*%
%TF.FilePolarity,Negative*%
%FSLAX46Y46*%
G04 Gerber Fmt 4.6, Leading zero omitted, Abs format (unit mm)*
G04 Created by KiCad (PCBNEW 9.0.6) date 2025-12-04 12:23:30*
%MOMM*%
%LPD*%
G01*
G04 APERTURE LIST*
G04 Aperture macros list*
%AMRoundRect*
0 Rectangle with rounded corners*
0 $1 Rounding radius*
0 $2 $3 $4 $5 $6 $7 $8 $9 X,Y pos of 4 corners*
0 Add a 4 corners polygon primitive as box body*
4,1,4,$2,$3,$4,$5,$6,$7,$8,$9,$2,$3,0*
0 Add four circle primitives for the rounded corners*
1,1,$1+$1,$2,$3*
1,1,$1+$1,$4,$5*
1,1,$1+$1,$6,$7*
1,1,$1+$1,$8,$9*
0 Add four rect primitives between the rounded corners*
20,1,$1+$1,$2,$3,$4,$5,0*
20,1,$1+$1,$4,$5,$6,$7,0*
20,1,$1+$1,$6,$7,$8,$9,0*
20,1,$1+$1,$8,$9,$2,$3,0*%
G04 Aperture macros list end*
%ADD10RoundRect,0.101600X-1.050000X0.700000X-1.050000X-0.700000X1.050000X-0.700000X1.050000X0.700000X0*%
%ADD11C,1.300000*%
%ADD12RoundRect,0.101600X0.950000X0.787400X-0.950000X0.787400X-0.950000X-0.787400X0.950000X-0.787400X0*%
%ADD13C,2.103200*%
%ADD14C,1.570000*%
%ADD15R,1.570000X1.570000*%
%ADD16O,1.203200X2.053200*%
%ADD17O,1.203200X2.303200*%
%ADD18C,0.204200*%
G04 APERTURE END LIST*
D10*
%TO.C,SW1*%
X128794099Y-105587115D03*
X119694099Y-105587115D03*
X128794099Y-101087115D03*
X119694099Y-101087115D03*
%TD*%
%TO.C,SW2*%
X168335099Y-101087115D03*
X177435099Y-101087115D03*
X168335099Y-105587115D03*
X177435099Y-105587115D03*
%TD*%
D11*
%TO.C,L1*%
X136526119Y-89094115D03*
X136526119Y-91634115D03*
X136526119Y-94174115D03*
X136526119Y-96714115D03*
X136526119Y-99254125D03*
X136526119Y-101794125D03*
X136526119Y-104334125D03*
X136526119Y-106874125D03*
X160526079Y-106874125D03*
X160526079Y-104334125D03*
X160526079Y-101794125D03*
X160526079Y-99254125D03*
X160526079Y-96714115D03*
X160526079Y-94174115D03*
X160526079Y-91634115D03*
X160526079Y-89094115D03*
%TD*%
D12*
%TO.C,J2*%
X166306099Y-122495115D03*
D13*
X166306099Y-125035115D03*
X163766099Y-122495115D03*
X163766099Y-125035115D03*
X161226099Y-122495115D03*
X161226099Y-125035115D03*
X158686099Y-122495115D03*
X158686099Y-125035115D03*
X156146099Y-122495115D03*
X156146099Y-125035115D03*
X153606099Y-122495115D03*
X153606099Y-125035115D03*
X151066099Y-122495115D03*
X151066099Y-125035115D03*
X148526099Y-122495115D03*
X148526099Y-125035115D03*
X145986099Y-122495115D03*
X145986099Y-125035115D03*
X143446099Y-122495115D03*
X143446099Y-125035115D03*
X140906099Y-122495115D03*
X140906099Y-125035115D03*
X138366099Y-122495115D03*
X138366099Y-125035115D03*
X135826099Y-122495115D03*
X135826099Y-125035115D03*
X133286099Y-122495115D03*
X133286099Y-125035115D03*
X130746099Y-122495115D03*
X130746099Y-125035115D03*
%TD*%
D14*
%TO.C,J1*%
X130746099Y-117923115D03*
X133286099Y-117923115D03*
X135826099Y-117923115D03*
X138366099Y-117923115D03*
X140906099Y-117923115D03*
X143446099Y-117923115D03*
X145986099Y-117923115D03*
X148526099Y-117923115D03*
X151066099Y-117923115D03*
X153606099Y-117923115D03*
X156146099Y-117923115D03*
X158686099Y-117923115D03*
X161226099Y-117923115D03*
X163766099Y-117923115D03*
D15*
X166306099Y-117923115D03*
%TD*%
D16*
%TO.C,USB1*%
X165265099Y-84395115D03*
D17*
X165265099Y-88545115D03*
D16*
X173905109Y-84395115D03*
D17*
X173905109Y-88545115D03*
D18*
X166695119Y-87995105D03*
X172475089Y-87995105D03*
%TD*%
M02*
