%TF.GenerationSoftware,KiCad,Pcbnew,9.0.6*%
%TF.CreationDate,2025-12-03T15:23:28+01:00*%
%TF.ProjectId,Spinmodule,5370696e-6d6f-4647-956c-652e6b696361,rev?*%
%TF.SameCoordinates,Original*%
%TF.FileFunction,Legend,Bot*%
%TF.FilePolarity,Positive*%
%FSLAX46Y46*%
G04 Gerber Fmt 4.6, Leading zero omitted, Abs format (unit mm)*
G04 Created by KiCad (PCBNEW 9.0.6) date 2025-12-03 15:23:28*
%MOMM*%
%LPD*%
G01*
G04 APERTURE LIST*
%ADD10C,0.078750*%
%ADD11C,0.254000*%
%ADD12C,0.200000*%
G04 APERTURE END LIST*
D10*
G36*
X143682326Y-114653732D02*
G01*
X143640588Y-114653732D01*
X143640588Y-114836244D01*
X143641989Y-114868074D01*
X143645758Y-114892867D01*
X143651340Y-114911892D01*
X143660293Y-114929192D01*
X143673075Y-114944303D01*
X143690173Y-114957458D01*
X143709669Y-114966801D01*
X143733873Y-114972833D01*
X143763879Y-114975018D01*
X143793151Y-114973115D01*
X143817010Y-114967854D01*
X143836410Y-114959727D01*
X143853523Y-114947898D01*
X143866810Y-114933246D01*
X143876648Y-114915431D01*
X143882893Y-114895693D01*
X143887115Y-114869771D01*
X143888689Y-114836244D01*
X143888689Y-114653732D01*
X143846932Y-114653732D01*
X143846932Y-114836725D01*
X143845868Y-114864535D01*
X143843129Y-114884211D01*
X143839296Y-114897620D01*
X143832978Y-114909689D01*
X143824315Y-114919669D01*
X143813060Y-114927799D01*
X143800239Y-114933515D01*
X143785211Y-114937120D01*
X143767533Y-114938397D01*
X143744094Y-114936793D01*
X143726040Y-114932461D01*
X143712267Y-114925926D01*
X143701906Y-114917412D01*
X143694380Y-114906578D01*
X143688242Y-114890659D01*
X143683965Y-114868029D01*
X143682326Y-114836725D01*
X143682326Y-114653732D01*
G37*
G36*
X143440938Y-114970095D02*
G01*
X143479675Y-114970095D01*
X143479675Y-114722628D01*
X143495090Y-114735453D01*
X143516355Y-114749383D01*
X143538734Y-114761492D01*
X143557131Y-114769444D01*
X143557131Y-114732515D01*
X143536063Y-114721307D01*
X143517187Y-114708840D01*
X143500333Y-114695123D01*
X143484870Y-114679713D01*
X143473623Y-114665566D01*
X143465904Y-114652501D01*
X143440938Y-114652501D01*
X143440938Y-114970095D01*
G37*
G36*
X143341651Y-114886618D02*
G01*
X143302914Y-114881464D01*
X143296895Y-114902533D01*
X143289233Y-114917733D01*
X143280217Y-114928356D01*
X143268827Y-114936286D01*
X143255952Y-114941058D01*
X143241153Y-114942705D01*
X143223713Y-114940566D01*
X143208518Y-114934331D01*
X143195010Y-114923836D01*
X143184565Y-114910273D01*
X143178329Y-114894874D01*
X143176180Y-114877059D01*
X143178193Y-114860053D01*
X143183987Y-114845628D01*
X143193606Y-114833186D01*
X143206137Y-114823668D01*
X143220708Y-114817916D01*
X143237921Y-114815914D01*
X143249472Y-114816872D01*
X143265253Y-114820222D01*
X143260964Y-114786236D01*
X143254713Y-114786678D01*
X143238608Y-114785215D01*
X143223864Y-114780924D01*
X143210186Y-114773791D01*
X143201590Y-114766545D01*
X143195500Y-114757741D01*
X143191718Y-114747073D01*
X143190375Y-114734034D01*
X143192030Y-114720451D01*
X143196812Y-114708857D01*
X143204800Y-114698778D01*
X143215149Y-114691123D01*
X143227377Y-114686452D01*
X143242018Y-114684814D01*
X143256527Y-114686445D01*
X143268923Y-114691137D01*
X143279679Y-114698893D01*
X143288125Y-114709201D01*
X143294659Y-114722985D01*
X143299048Y-114741131D01*
X143337766Y-114734246D01*
X143332842Y-114715155D01*
X143325774Y-114699003D01*
X143316670Y-114685360D01*
X143305491Y-114673908D01*
X143292361Y-114664671D01*
X143277747Y-114658024D01*
X143261373Y-114653924D01*
X143242884Y-114652501D01*
X143225935Y-114653764D01*
X143210152Y-114657477D01*
X143195318Y-114663618D01*
X143181755Y-114672075D01*
X143170772Y-114682141D01*
X143162081Y-114693912D01*
X143155636Y-114707089D01*
X143151831Y-114720606D01*
X143150560Y-114734669D01*
X143151796Y-114747998D01*
X143155442Y-114760359D01*
X143161543Y-114771983D01*
X143169785Y-114782183D01*
X143180486Y-114791085D01*
X143194029Y-114798718D01*
X143176390Y-114804736D01*
X143162090Y-114813641D01*
X143150579Y-114825492D01*
X143142148Y-114839755D01*
X143136919Y-114856498D01*
X143135077Y-114876328D01*
X143136992Y-114896348D01*
X143142591Y-114914427D01*
X143151886Y-114930988D01*
X143165197Y-114946321D01*
X143181076Y-114958764D01*
X143198803Y-114967655D01*
X143218736Y-114973121D01*
X143241364Y-114975018D01*
X143261849Y-114973382D01*
X143279909Y-114968673D01*
X143295966Y-114961036D01*
X143310338Y-114950399D01*
X143322538Y-114937236D01*
X143331748Y-114922411D01*
X143338134Y-114905664D01*
X143341651Y-114886618D01*
G37*
G36*
X169784246Y-106089306D02*
G01*
X169742508Y-106099846D01*
X169750789Y-106124971D01*
X169761474Y-106146036D01*
X169774445Y-106163603D01*
X169789747Y-106178091D01*
X169807427Y-106189701D01*
X169826978Y-106198070D01*
X169848737Y-106203230D01*
X169873127Y-106205018D01*
X169898849Y-106203557D01*
X169920910Y-106199433D01*
X169939838Y-106192947D01*
X169956084Y-106184265D01*
X169970876Y-106172920D01*
X169983862Y-106159275D01*
X169995137Y-106143112D01*
X170004707Y-106124120D01*
X170013917Y-106097420D01*
X170019492Y-106069322D01*
X170021383Y-106039547D01*
X170019156Y-106007138D01*
X170012781Y-105978690D01*
X170002553Y-105953590D01*
X169991996Y-105936136D01*
X169979608Y-105921167D01*
X169965319Y-105908450D01*
X169948967Y-105897849D01*
X169925174Y-105887323D01*
X169899805Y-105880969D01*
X169872473Y-105878808D01*
X169848933Y-105880418D01*
X169828078Y-105885045D01*
X169809499Y-105892499D01*
X169792863Y-105902754D01*
X169778164Y-105915708D01*
X169765818Y-105931044D01*
X169755718Y-105949031D01*
X169747893Y-105970054D01*
X169788977Y-105979748D01*
X169797967Y-105957865D01*
X169808627Y-105941580D01*
X169820829Y-105929836D01*
X169835468Y-105921351D01*
X169852758Y-105916066D01*
X169873338Y-105914198D01*
X169897034Y-105916283D01*
X169917068Y-105922194D01*
X169934137Y-105931682D01*
X169948769Y-105944625D01*
X169960144Y-105960136D01*
X169968451Y-105978594D01*
X169973943Y-105998426D01*
X169977234Y-106018628D01*
X169978337Y-106039316D01*
X169976932Y-106066042D01*
X169972940Y-106089377D01*
X169966624Y-106109771D01*
X169957112Y-106128517D01*
X169944999Y-106143324D01*
X169930156Y-106154740D01*
X169913149Y-106163031D01*
X169895381Y-106167966D01*
X169876570Y-106169628D01*
X169859262Y-106168293D01*
X169843789Y-106164435D01*
X169829840Y-106158154D01*
X169817175Y-106149393D01*
X169806426Y-106138564D01*
X169797328Y-106125220D01*
X169789888Y-106108969D01*
X169784246Y-106089306D01*
G37*
G36*
X169560938Y-106200095D02*
G01*
X169599675Y-106200095D01*
X169599675Y-105952628D01*
X169615090Y-105965453D01*
X169636355Y-105979383D01*
X169658734Y-105991492D01*
X169677131Y-105999444D01*
X169677131Y-105962515D01*
X169656063Y-105951307D01*
X169637187Y-105938840D01*
X169620333Y-105925123D01*
X169604870Y-105909713D01*
X169593623Y-105895566D01*
X169585904Y-105882501D01*
X169560938Y-105882501D01*
X169560938Y-106200095D01*
G37*
G36*
X169461651Y-106116618D02*
G01*
X169422914Y-106111464D01*
X169416895Y-106132533D01*
X169409233Y-106147733D01*
X169400217Y-106158356D01*
X169388827Y-106166286D01*
X169375952Y-106171058D01*
X169361153Y-106172705D01*
X169343713Y-106170566D01*
X169328518Y-106164331D01*
X169315010Y-106153836D01*
X169304565Y-106140273D01*
X169298329Y-106124874D01*
X169296180Y-106107059D01*
X169298193Y-106090053D01*
X169303987Y-106075628D01*
X169313606Y-106063186D01*
X169326137Y-106053668D01*
X169340708Y-106047916D01*
X169357921Y-106045914D01*
X169369472Y-106046872D01*
X169385253Y-106050222D01*
X169380964Y-106016236D01*
X169374713Y-106016678D01*
X169358608Y-106015215D01*
X169343864Y-106010924D01*
X169330186Y-106003791D01*
X169321590Y-105996545D01*
X169315500Y-105987741D01*
X169311718Y-105977073D01*
X169310375Y-105964034D01*
X169312030Y-105950451D01*
X169316812Y-105938857D01*
X169324800Y-105928778D01*
X169335149Y-105921123D01*
X169347377Y-105916452D01*
X169362018Y-105914814D01*
X169376527Y-105916445D01*
X169388923Y-105921137D01*
X169399679Y-105928893D01*
X169408125Y-105939201D01*
X169414659Y-105952985D01*
X169419048Y-105971131D01*
X169457766Y-105964246D01*
X169452842Y-105945155D01*
X169445774Y-105929003D01*
X169436670Y-105915360D01*
X169425491Y-105903908D01*
X169412361Y-105894671D01*
X169397747Y-105888024D01*
X169381373Y-105883924D01*
X169362884Y-105882501D01*
X169345935Y-105883764D01*
X169330152Y-105887477D01*
X169315318Y-105893618D01*
X169301755Y-105902075D01*
X169290772Y-105912141D01*
X169282081Y-105923912D01*
X169275636Y-105937089D01*
X169271831Y-105950606D01*
X169270560Y-105964669D01*
X169271796Y-105977998D01*
X169275442Y-105990359D01*
X169281543Y-106001983D01*
X169289785Y-106012183D01*
X169300486Y-106021085D01*
X169314029Y-106028718D01*
X169296390Y-106034736D01*
X169282090Y-106043641D01*
X169270579Y-106055492D01*
X169262148Y-106069755D01*
X169256919Y-106086498D01*
X169255077Y-106106328D01*
X169256992Y-106126348D01*
X169262591Y-106144427D01*
X169271886Y-106160988D01*
X169285197Y-106176321D01*
X169301076Y-106188764D01*
X169318803Y-106197655D01*
X169338736Y-106203121D01*
X169361364Y-106205018D01*
X169381849Y-106203382D01*
X169399909Y-106198673D01*
X169415966Y-106191036D01*
X169430338Y-106180399D01*
X169442538Y-106167236D01*
X169451748Y-106152411D01*
X169458134Y-106135664D01*
X169461651Y-106116618D01*
G37*
G36*
X138426206Y-89670095D02*
G01*
X138384449Y-89670095D01*
X138384449Y-89528224D01*
X138336036Y-89528224D01*
X138312801Y-89529743D01*
X138303338Y-89533011D01*
X138293760Y-89538245D01*
X138284540Y-89545875D01*
X138272564Y-89559614D01*
X138242443Y-89603621D01*
X138200686Y-89670095D01*
X138148196Y-89670095D01*
X138203052Y-89583214D01*
X138220333Y-89559326D01*
X138237711Y-89540745D01*
X138247542Y-89533342D01*
X138262870Y-89524858D01*
X138240073Y-89520283D01*
X138221765Y-89513749D01*
X138207191Y-89505531D01*
X138195743Y-89495737D01*
X138186248Y-89483640D01*
X138179520Y-89470392D01*
X138175420Y-89455753D01*
X138174061Y-89440016D01*
X138217054Y-89440016D01*
X138219142Y-89454606D01*
X138225440Y-89468136D01*
X138231788Y-89475881D01*
X138239869Y-89482137D01*
X138249964Y-89486966D01*
X138267720Y-89491161D01*
X138294721Y-89492833D01*
X138384449Y-89492833D01*
X138384449Y-89389122D01*
X138284604Y-89389122D01*
X138261596Y-89391017D01*
X138245028Y-89396013D01*
X138233307Y-89403452D01*
X138224261Y-89413909D01*
X138218901Y-89425924D01*
X138217054Y-89440016D01*
X138174061Y-89440016D01*
X138174008Y-89439400D01*
X138175491Y-89422501D01*
X138179860Y-89406820D01*
X138187145Y-89392084D01*
X138197031Y-89379070D01*
X138208649Y-89369216D01*
X138222209Y-89362195D01*
X138237167Y-89357885D01*
X138258025Y-89354878D01*
X138286335Y-89353732D01*
X138426206Y-89353732D01*
X138426206Y-89670095D01*
G37*
G36*
X138045935Y-89354396D02*
G01*
X138064396Y-89359889D01*
X138080994Y-89368912D01*
X138096052Y-89381698D01*
X138108194Y-89397080D01*
X138116969Y-89414735D01*
X138122429Y-89435098D01*
X138124345Y-89458750D01*
X138122508Y-89481668D01*
X138117273Y-89501406D01*
X138108866Y-89518522D01*
X138097245Y-89533436D01*
X138082773Y-89545943D01*
X138067108Y-89554688D01*
X138049971Y-89559962D01*
X138030964Y-89561768D01*
X138015624Y-89560480D01*
X138001168Y-89556666D01*
X137987379Y-89550285D01*
X137974774Y-89541731D01*
X137964259Y-89531764D01*
X137955643Y-89520299D01*
X137955431Y-89528070D01*
X137956886Y-89552051D01*
X137961240Y-89575578D01*
X137968130Y-89597451D01*
X137975666Y-89612604D01*
X137985510Y-89624963D01*
X137997708Y-89634511D01*
X138012012Y-89640591D01*
X138029021Y-89642705D01*
X138042482Y-89641300D01*
X138053731Y-89637308D01*
X138063239Y-89630818D01*
X138070702Y-89622010D01*
X138076811Y-89609589D01*
X138081319Y-89592543D01*
X138118537Y-89596024D01*
X138114789Y-89614489D01*
X138108779Y-89630076D01*
X138100647Y-89643236D01*
X138090359Y-89654303D01*
X138078099Y-89663180D01*
X138064157Y-89669614D01*
X138048221Y-89673617D01*
X138029887Y-89675018D01*
X138007250Y-89672861D01*
X137987158Y-89666602D01*
X137969088Y-89656284D01*
X137953609Y-89642311D01*
X137940596Y-89624335D01*
X137930042Y-89601659D01*
X137923221Y-89577343D01*
X137918616Y-89545735D01*
X137916905Y-89505258D01*
X137918684Y-89466294D01*
X137920195Y-89456961D01*
X137959951Y-89456961D01*
X137962078Y-89478432D01*
X137967966Y-89495408D01*
X137977281Y-89508874D01*
X137989849Y-89519259D01*
X138004375Y-89525461D01*
X138021481Y-89527608D01*
X138038489Y-89525485D01*
X138053261Y-89519299D01*
X138066355Y-89508874D01*
X138076305Y-89495408D01*
X138082391Y-89479414D01*
X138084531Y-89460173D01*
X138082262Y-89438652D01*
X138075832Y-89420789D01*
X138065393Y-89405798D01*
X138051551Y-89393927D01*
X138036726Y-89387099D01*
X138020404Y-89384814D01*
X138004618Y-89386966D01*
X137990555Y-89393335D01*
X137977705Y-89404298D01*
X137968116Y-89418258D01*
X137962105Y-89435510D01*
X137959951Y-89456961D01*
X137920195Y-89456961D01*
X137923368Y-89437362D01*
X137930139Y-89416377D01*
X137940542Y-89397155D01*
X137953416Y-89381544D01*
X137968876Y-89369100D01*
X137986486Y-89359869D01*
X138005130Y-89354363D01*
X138025155Y-89352501D01*
X138045935Y-89354396D01*
G37*
G36*
X143039196Y-118354383D02*
G01*
X143049736Y-118396121D01*
X143074861Y-118387840D01*
X143095926Y-118377155D01*
X143113493Y-118364184D01*
X143127981Y-118348882D01*
X143139591Y-118331202D01*
X143147960Y-118311651D01*
X143153120Y-118289892D01*
X143154908Y-118265502D01*
X143153447Y-118239780D01*
X143149323Y-118217719D01*
X143142837Y-118198791D01*
X143134155Y-118182545D01*
X143122810Y-118167753D01*
X143109165Y-118154767D01*
X143093002Y-118143492D01*
X143074010Y-118133922D01*
X143047310Y-118124712D01*
X143019212Y-118119137D01*
X142989437Y-118117246D01*
X142957028Y-118119473D01*
X142928580Y-118125848D01*
X142903480Y-118136076D01*
X142886026Y-118146633D01*
X142871057Y-118159021D01*
X142858340Y-118173310D01*
X142847739Y-118189662D01*
X142837213Y-118213455D01*
X142830859Y-118238824D01*
X142828698Y-118266156D01*
X142830308Y-118289696D01*
X142834935Y-118310551D01*
X142842389Y-118329130D01*
X142852644Y-118345766D01*
X142865598Y-118360465D01*
X142880934Y-118372811D01*
X142898921Y-118382911D01*
X142919944Y-118390736D01*
X142929638Y-118349652D01*
X142907755Y-118340662D01*
X142891470Y-118330002D01*
X142879726Y-118317800D01*
X142871241Y-118303161D01*
X142865956Y-118285871D01*
X142864088Y-118265291D01*
X142866173Y-118241595D01*
X142872084Y-118221561D01*
X142881572Y-118204492D01*
X142894515Y-118189860D01*
X142910026Y-118178485D01*
X142928484Y-118170178D01*
X142948316Y-118164686D01*
X142968518Y-118161395D01*
X142989206Y-118160292D01*
X143015932Y-118161697D01*
X143039267Y-118165689D01*
X143059661Y-118172005D01*
X143078407Y-118181517D01*
X143093214Y-118193630D01*
X143104630Y-118208473D01*
X143112921Y-118225480D01*
X143117856Y-118243248D01*
X143119518Y-118262059D01*
X143118183Y-118279367D01*
X143114325Y-118294840D01*
X143108044Y-118308789D01*
X143099283Y-118321454D01*
X143088454Y-118332203D01*
X143075110Y-118341301D01*
X143058859Y-118348741D01*
X143039196Y-118354383D01*
G37*
G36*
X143113363Y-118635355D02*
G01*
X143149985Y-118635355D01*
X143149985Y-118426857D01*
X143136271Y-118427769D01*
X143123134Y-118431377D01*
X143102502Y-118441450D01*
X143081261Y-118456863D01*
X143060430Y-118476824D01*
X143033580Y-118507544D01*
X143004134Y-118541582D01*
X142982291Y-118563756D01*
X142966452Y-118577037D01*
X142949270Y-118587564D01*
X142933813Y-118593316D01*
X142919617Y-118595117D01*
X142904900Y-118593259D01*
X142892057Y-118587831D01*
X142880611Y-118578653D01*
X142871912Y-118566833D01*
X142866581Y-118552743D01*
X142864704Y-118535742D01*
X142866711Y-118517786D01*
X142872384Y-118503103D01*
X142881611Y-118490965D01*
X142893838Y-118481880D01*
X142909145Y-118476139D01*
X142928407Y-118473981D01*
X142924291Y-118434166D01*
X142902104Y-118437899D01*
X142883711Y-118444389D01*
X142868473Y-118453402D01*
X142855914Y-118464941D01*
X142845950Y-118478847D01*
X142838634Y-118495107D01*
X142834023Y-118514166D01*
X142832391Y-118536588D01*
X142834138Y-118559144D01*
X142839078Y-118578265D01*
X142846938Y-118594553D01*
X142857703Y-118608466D01*
X142871193Y-118620105D01*
X142885937Y-118628278D01*
X142902210Y-118633230D01*
X142920406Y-118634932D01*
X142939161Y-118633017D01*
X142957816Y-118627181D01*
X142975911Y-118617390D01*
X142996535Y-118601465D01*
X143018259Y-118580086D01*
X143052314Y-118541762D01*
X143079679Y-118510175D01*
X143092263Y-118496985D01*
X143102979Y-118487805D01*
X143113363Y-118480655D01*
X143113363Y-118635355D01*
G37*
G36*
X143113363Y-118880321D02*
G01*
X143149985Y-118880321D01*
X143149985Y-118671823D01*
X143136271Y-118672735D01*
X143123134Y-118676343D01*
X143102502Y-118686415D01*
X143081261Y-118701828D01*
X143060430Y-118721790D01*
X143033580Y-118752510D01*
X143004134Y-118786547D01*
X142982291Y-118808722D01*
X142966452Y-118822003D01*
X142949270Y-118832530D01*
X142933813Y-118838282D01*
X142919617Y-118840083D01*
X142904900Y-118838225D01*
X142892057Y-118832797D01*
X142880611Y-118823619D01*
X142871912Y-118811799D01*
X142866581Y-118797709D01*
X142864704Y-118780708D01*
X142866711Y-118762752D01*
X142872384Y-118748069D01*
X142881611Y-118735930D01*
X142893838Y-118726846D01*
X142909145Y-118721105D01*
X142928407Y-118718947D01*
X142924291Y-118679132D01*
X142902104Y-118682865D01*
X142883711Y-118689354D01*
X142868473Y-118698368D01*
X142855914Y-118709907D01*
X142845950Y-118723813D01*
X142838634Y-118740073D01*
X142834023Y-118759132D01*
X142832391Y-118781554D01*
X142834138Y-118804109D01*
X142839078Y-118823231D01*
X142846938Y-118839519D01*
X142857703Y-118853432D01*
X142871193Y-118865071D01*
X142885937Y-118873244D01*
X142902210Y-118878196D01*
X142920406Y-118879898D01*
X142939161Y-118877983D01*
X142957816Y-118872147D01*
X142975911Y-118862356D01*
X142996535Y-118846431D01*
X143018259Y-118825052D01*
X143052314Y-118786728D01*
X143079679Y-118755141D01*
X143092263Y-118741951D01*
X143102979Y-118732771D01*
X143113363Y-118725621D01*
X143113363Y-118880321D01*
G37*
G36*
X139084273Y-91189433D02*
G01*
X139126011Y-91178893D01*
X139117730Y-91153768D01*
X139107045Y-91132703D01*
X139094074Y-91115136D01*
X139078772Y-91100648D01*
X139061092Y-91089038D01*
X139041541Y-91080669D01*
X139019782Y-91075509D01*
X138995392Y-91073721D01*
X138969670Y-91075182D01*
X138947609Y-91079306D01*
X138928681Y-91085792D01*
X138912435Y-91094474D01*
X138897643Y-91105819D01*
X138884657Y-91119464D01*
X138873382Y-91135627D01*
X138863812Y-91154619D01*
X138854602Y-91181319D01*
X138849027Y-91209417D01*
X138847136Y-91239192D01*
X138849363Y-91271601D01*
X138855738Y-91300049D01*
X138865966Y-91325149D01*
X138876523Y-91342603D01*
X138888911Y-91357572D01*
X138903200Y-91370289D01*
X138919552Y-91380890D01*
X138943345Y-91391416D01*
X138968714Y-91397770D01*
X138996046Y-91399931D01*
X139019586Y-91398321D01*
X139040441Y-91393694D01*
X139059020Y-91386240D01*
X139075656Y-91375985D01*
X139090355Y-91363031D01*
X139102701Y-91347695D01*
X139112801Y-91329708D01*
X139120626Y-91308685D01*
X139079542Y-91298991D01*
X139070552Y-91320874D01*
X139059892Y-91337159D01*
X139047690Y-91348903D01*
X139033051Y-91357388D01*
X139015761Y-91362673D01*
X138995181Y-91364541D01*
X138971485Y-91362456D01*
X138951451Y-91356545D01*
X138934382Y-91347057D01*
X138919750Y-91334114D01*
X138908375Y-91318603D01*
X138900068Y-91300145D01*
X138894576Y-91280313D01*
X138891285Y-91260111D01*
X138890182Y-91239423D01*
X138891587Y-91212697D01*
X138895579Y-91189362D01*
X138901895Y-91168968D01*
X138911407Y-91150222D01*
X138923520Y-91135415D01*
X138938363Y-91123999D01*
X138955370Y-91115708D01*
X138973138Y-91110773D01*
X138991949Y-91109111D01*
X139009257Y-91110446D01*
X139024730Y-91114304D01*
X139038679Y-91120585D01*
X139051344Y-91129346D01*
X139062093Y-91140175D01*
X139071191Y-91153519D01*
X139078631Y-91169770D01*
X139084273Y-91189433D01*
G37*
G36*
X139307581Y-91078645D02*
G01*
X139268844Y-91078645D01*
X139268844Y-91326111D01*
X139253429Y-91313286D01*
X139232164Y-91299356D01*
X139209785Y-91287247D01*
X139191388Y-91279295D01*
X139191388Y-91316224D01*
X139212456Y-91327432D01*
X139231332Y-91339899D01*
X139248186Y-91353616D01*
X139263649Y-91369026D01*
X139274896Y-91383173D01*
X139282615Y-91396238D01*
X139307581Y-91396238D01*
X139307581Y-91078645D01*
G37*
G36*
X139533018Y-91075279D02*
G01*
X139549834Y-91079822D01*
X139565242Y-91087300D01*
X139578954Y-91097558D01*
X139590643Y-91110493D01*
X139600421Y-91126441D01*
X139607511Y-91143867D01*
X139611783Y-91162235D01*
X139613231Y-91181778D01*
X139611406Y-91204113D01*
X139606182Y-91223548D01*
X139597743Y-91240595D01*
X139586015Y-91255637D01*
X139571477Y-91268290D01*
X139555838Y-91277108D01*
X139538830Y-91282408D01*
X139520061Y-91284219D01*
X139505520Y-91283076D01*
X139491437Y-91279655D01*
X139477649Y-91273890D01*
X139465066Y-91265953D01*
X139453696Y-91255523D01*
X139443451Y-91242308D01*
X139445111Y-91273844D01*
X139448968Y-91297509D01*
X139454415Y-91314878D01*
X139462633Y-91331030D01*
X139472252Y-91343792D01*
X139483266Y-91353654D01*
X139493017Y-91359328D01*
X139503756Y-91362751D01*
X139515752Y-91363925D01*
X139530410Y-91362081D01*
X139543163Y-91356699D01*
X139554490Y-91347614D01*
X139562384Y-91335454D01*
X139569127Y-91314993D01*
X139607634Y-91317994D01*
X139603894Y-91335958D01*
X139597852Y-91351266D01*
X139589617Y-91364329D01*
X139579129Y-91375446D01*
X139566717Y-91384360D01*
X139552633Y-91390818D01*
X139536566Y-91394834D01*
X139518118Y-91396238D01*
X139498422Y-91394702D01*
X139480969Y-91390276D01*
X139465380Y-91383093D01*
X139451359Y-91373095D01*
X139438720Y-91360040D01*
X139427689Y-91343525D01*
X139418482Y-91322832D01*
X139411331Y-91297151D01*
X139406632Y-91265531D01*
X139404925Y-91226901D01*
X139406484Y-91192287D01*
X139408077Y-91181816D01*
X139449471Y-91181816D01*
X139451635Y-91201451D01*
X139457769Y-91217664D01*
X139467763Y-91231210D01*
X139480927Y-91241732D01*
X139495598Y-91247940D01*
X139512309Y-91250059D01*
X139529131Y-91247916D01*
X139543565Y-91241691D01*
X139556202Y-91231210D01*
X139565596Y-91217686D01*
X139571504Y-91200814D01*
X139573628Y-91179662D01*
X139571475Y-91157624D01*
X139565488Y-91139994D01*
X139555990Y-91125826D01*
X139543197Y-91114654D01*
X139529305Y-91108204D01*
X139513810Y-91106034D01*
X139497553Y-91108385D01*
X139481746Y-91115612D01*
X139472453Y-91122836D01*
X139464549Y-91132034D01*
X139457973Y-91143483D01*
X139451593Y-91162241D01*
X139449471Y-91181816D01*
X139408077Y-91181816D01*
X139410758Y-91164197D01*
X139417237Y-91141600D01*
X139425550Y-91123585D01*
X139435488Y-91109381D01*
X139451988Y-91093701D01*
X139470356Y-91082707D01*
X139490984Y-91076029D01*
X139514464Y-91073721D01*
X139533018Y-91075279D01*
G37*
D11*
%TO.C,U13*%
X147884740Y-110977600D02*
G75*
G02*
X147661140Y-110977600I-111800J0D01*
G01*
X147661140Y-110977600D02*
G75*
G02*
X147884740Y-110977600I111800J0D01*
G01*
%TO.C,BT1*%
X119292160Y-81089360D02*
X119292160Y-78489360D01*
X120492160Y-82289360D02*
X119292160Y-81089360D01*
X129492160Y-82289360D02*
X120492160Y-82289360D01*
X129492160Y-77089360D02*
X120692160Y-77089360D01*
X120692160Y-77089360D02*
X119292160Y-78489360D01*
X129492160Y-82289360D02*
X129492160Y-77089360D01*
X128592160Y-78489360D02*
X128592160Y-77689360D01*
X128992160Y-78089360D02*
X128192160Y-78089360D01*
%TO.C,U10*%
X134792950Y-89403600D02*
G75*
G02*
X134592950Y-89403600I-100000J0D01*
G01*
X134592950Y-89403600D02*
G75*
G02*
X134792950Y-89403600I100000J0D01*
G01*
%TO.C,U9*%
X162716560Y-128603600D02*
G75*
G02*
X162269340Y-128603600I-223610J0D01*
G01*
X162269340Y-128603600D02*
G75*
G02*
X162716560Y-128603600I223610J0D01*
G01*
%TO.C,U4*%
X131616560Y-82503600D02*
G75*
G02*
X131169340Y-82503600I-223610J0D01*
G01*
X131169340Y-82503600D02*
G75*
G02*
X131616560Y-82503600I223610J0D01*
G01*
D12*
%TO.C,L1*%
X131654950Y-84614100D02*
X131654950Y-83341600D01*
X131654950Y-90065600D02*
X131654950Y-88793100D01*
X131654950Y-90065600D02*
X124930950Y-90065600D01*
X124930950Y-84614100D02*
X124930950Y-83341600D01*
X124930950Y-90065600D02*
X124930950Y-88793100D01*
X131654950Y-83341600D02*
X124930950Y-83341600D01*
D11*
%TO.C,C21*%
X149092950Y-122103600D02*
X149092950Y-122703600D01*
X149392950Y-122403600D02*
X148792950Y-122403600D01*
%TO.C,C19*%
X159592950Y-119103600D02*
X159592950Y-118703600D01*
X159392950Y-118903600D02*
X159792950Y-118903600D01*
%TO.C,U16*%
X153852950Y-115403600D02*
G75*
G02*
X153832950Y-115403600I-10000J0D01*
G01*
X153832950Y-115403600D02*
G75*
G02*
X153852950Y-115403600I10000J0D01*
G01*
D12*
%TO.C,U12*%
X153182960Y-85953590D02*
X153682930Y-85953590D01*
X153182960Y-86353590D02*
X153182960Y-85953590D01*
X153182960Y-103953610D02*
X153182960Y-103453580D01*
X153182960Y-103953610D02*
X153682930Y-103953610D01*
X172082940Y-85953590D02*
X172292950Y-85953590D01*
X172082940Y-103953610D02*
X172292950Y-103953610D01*
X172292950Y-103953610D02*
X172292950Y-85953590D01*
D11*
%TO.C,U14*%
X141192950Y-112114380D02*
G75*
G02*
X140992950Y-112114380I-100000J0D01*
G01*
X140992950Y-112114380D02*
G75*
G02*
X141192950Y-112114380I100000J0D01*
G01*
%TO.C,X1*%
X144292950Y-116803600D02*
G75*
G02*
X144092950Y-116803600I-100000J0D01*
G01*
X144092950Y-116803600D02*
G75*
G02*
X144292950Y-116803600I100000J0D01*
G01*
%TD*%
M02*
