%TF.GenerationSoftware,KiCad,Pcbnew,9.0.6*%
%TF.CreationDate,2025-12-03T15:23:28+01:00*%
%TF.ProjectId,Spinmodule,5370696e-6d6f-4647-956c-652e6b696361,rev?*%
%TF.SameCoordinates,Original*%
%TF.FileFunction,Copper,L3,Inr*%
%TF.FilePolarity,Positive*%
%FSLAX46Y46*%
G04 Gerber Fmt 4.6, Leading zero omitted, Abs format (unit mm)*
G04 Created by KiCad (PCBNEW 9.0.6) date 2025-12-03 15:23:28*
%MOMM*%
%LPD*%
G01*
G04 APERTURE LIST*
G04 Aperture macros list*
%AMRotRect*
0 Rectangle, with rotation*
0 The origin of the aperture is its center*
0 $1 length*
0 $2 width*
0 $3 Rotation angle, in degrees counterclockwise*
0 Add horizontal line*
21,1,$1,$2,0,0,$3*%
G04 Aperture macros list end*
%TA.AperFunction,ComponentPad*%
%ADD10C,2.540000*%
%TD*%
%TA.AperFunction,ComponentPad*%
%ADD11C,0.250000*%
%TD*%
%TA.AperFunction,ComponentPad*%
%ADD12C,1.540000*%
%TD*%
%TA.AperFunction,ComponentPad*%
%ADD13O,1.325000X1.700000*%
%TD*%
%TA.AperFunction,ComponentPad*%
%ADD14O,1.400000X1.150000*%
%TD*%
%TA.AperFunction,ComponentPad*%
%ADD15C,1.000000*%
%TD*%
%TA.AperFunction,ComponentPad*%
%ADD16R,1.000000X1.000000*%
%TD*%
%TA.AperFunction,ComponentPad*%
%ADD17RotRect,1.000000X1.000000X85.000000*%
%TD*%
%TA.AperFunction,ViaPad*%
%ADD18C,0.600000*%
%TD*%
%TA.AperFunction,ViaPad*%
%ADD19C,0.500000*%
%TD*%
%TA.AperFunction,Conductor*%
%ADD20C,0.500000*%
%TD*%
%TA.AperFunction,Conductor*%
%ADD21C,0.200000*%
%TD*%
G04 APERTURE END LIST*
D10*
%TO.N,GND*%
%TO.C,BT1*%
X121892160Y-79689360D03*
%TO.N,BAT+*%
X126892160Y-79689360D03*
%TD*%
D11*
%TO.N,GND*%
%TO.C,U10*%
X135492950Y-85728600D03*
X136692950Y-85728600D03*
X136092950Y-85728600D03*
X135492950Y-86238600D03*
X136692950Y-86238600D03*
X136092950Y-86238600D03*
X135492950Y-86748600D03*
X135492950Y-87258600D03*
X135492950Y-87768600D03*
X136692950Y-86748600D03*
X136692950Y-87258600D03*
X136692950Y-87768600D03*
X136692950Y-88278600D03*
X136092950Y-88278600D03*
X136092950Y-86748600D03*
X136092950Y-87258600D03*
X135492950Y-88278600D03*
X136092950Y-87768600D03*
%TD*%
D12*
%TO.N,/logic/ESP32_EN*%
%TO.C,P3*%
X167092950Y-107503600D03*
%TO.N,VCC*%
X156932950Y-107503600D03*
%TO.N,/logic/ESP32_IO0*%
X164552950Y-107503600D03*
%TO.N,/logic/ESP32_U0RXD*%
X162012950Y-107503600D03*
%TO.N,Net-(P3-Pad4)*%
X159472950Y-107503600D03*
%TO.N,GND*%
X154392950Y-107503600D03*
%TD*%
D13*
%TO.N,GND*%
%TO.C,USB1*%
X152944950Y-79153600D03*
D14*
X151944950Y-82053600D03*
X146944950Y-82053600D03*
D13*
X145944940Y-79153600D03*
%TD*%
D15*
%TO.N,/power/ENCB-M1*%
%TO.C,P2*%
X150809280Y-131289340D03*
D16*
%TO.N,PGND*%
X152059260Y-131289340D03*
D15*
%TO.N,ENCB-OUTB*%
X153309250Y-131289340D03*
%TO.N,ENCB-OUTA*%
X154559280Y-131289340D03*
%TO.N,VCC*%
X155809270Y-131289340D03*
%TO.N,/power/ENCB-M2*%
X157059250Y-131289340D03*
%TD*%
%TO.N,/power/ENCA-M1*%
%TO.C,P1*%
X165410160Y-131141660D03*
D17*
%TO.N,PGND*%
X165519130Y-129896460D03*
D15*
%TO.N,ENCA-OUTB*%
X165628090Y-128651200D03*
%TO.N,ENCA-OUTA*%
X165737008Y-127405940D03*
%TO.N,VCC*%
X165845970Y-126160730D03*
%TO.N,/power/ENCA-M2*%
X165954890Y-124915470D03*
%TD*%
D18*
%TO.N,NRF_CE*%
X148892950Y-104603600D03*
X157819410Y-101277040D03*
%TO.N,/logic/SCL_1*%
X156692930Y-84703610D03*
%TO.N,/logic/SDA_1*%
X153988950Y-84503610D03*
%TO.N,Net-(P3-Pad4)*%
X169349140Y-88603580D03*
X159676970Y-101295600D03*
X169392930Y-83703610D03*
D19*
%TO.N,MB_CW*%
X154396920Y-114403570D03*
D18*
X156817950Y-121819660D03*
D19*
%TO.N,MA_CW*%
X156392960Y-113803580D03*
D18*
X159392950Y-121903590D03*
%TO.N,/logic/ESP32_U0RXD*%
X162000660Y-101095860D03*
%TO.N,/logic/ESP32_IO0*%
X164592940Y-99961590D03*
%TO.N,/logic/ESP32_EN*%
X171359260Y-89299370D03*
D19*
%TO.N,+12*%
X140309270Y-101089350D03*
X151809270Y-122089360D03*
X141309270Y-101089350D03*
X153309300Y-123089360D03*
X154809270Y-124089360D03*
X142309270Y-101089350D03*
X152309300Y-123089360D03*
X151809270Y-124089360D03*
X152809270Y-122089360D03*
X138309280Y-101089350D03*
X139309270Y-101089350D03*
X153309300Y-121089360D03*
X152309300Y-121089360D03*
X153809270Y-122089360D03*
X152809270Y-124089360D03*
X153809270Y-124089360D03*
D18*
%TO.N,VCC*%
X143092960Y-111432590D03*
X170792930Y-107603590D03*
X145492950Y-108403590D03*
X151805410Y-99416050D03*
X147992950Y-103803600D03*
X119592950Y-89503600D03*
X155592960Y-81503620D03*
X159592950Y-94403600D03*
D19*
X136892950Y-82603600D03*
D18*
X172587190Y-94789190D03*
X157692930Y-83103610D03*
X120792950Y-94103600D03*
X157692930Y-118003620D03*
X142292950Y-85903600D03*
X135792950Y-96603600D03*
X154980510Y-116916040D03*
X146203390Y-115689170D03*
X146292950Y-91703590D03*
X151092950Y-93382080D03*
X169692960Y-102503570D03*
%TO.N,SMPS_EN*%
X153192960Y-103818380D03*
X148269480Y-99527060D03*
X155092940Y-123103580D03*
X157446950Y-99703600D03*
X158092950Y-122703600D03*
X154792950Y-100903600D03*
X157446950Y-95207600D03*
X133986070Y-90286990D03*
X144092950Y-90803600D03*
D19*
%TO.N,/logic/SDA*%
X159063930Y-93549590D03*
X129192950Y-91703600D03*
X129181500Y-89653600D03*
D18*
%TO.N,/logic/SCL*%
X159092930Y-89103600D03*
%TO.N,/logic/RED*%
X149392970Y-116003620D03*
%TO.N,PGND*%
X153592960Y-86603580D03*
X160692920Y-98907600D03*
X146092950Y-84403580D03*
X160492920Y-89003570D03*
%TO.N,/logic/MISO*%
X148226380Y-114037030D03*
X148815990Y-111184480D03*
%TO.N,/logic/IR_TX*%
X156492930Y-90303600D03*
%TO.N,/logic/IR_RX*%
X148573920Y-89449600D03*
%TO.N,/logic/GREEN*%
X149180480Y-116891150D03*
%TO.N,GND*%
X158592950Y-113803580D03*
D19*
X131065960Y-81330590D03*
D18*
X147359470Y-115670120D03*
D19*
X126592950Y-91903600D03*
X158309290Y-127089350D03*
D18*
X172092950Y-86203580D03*
D19*
X162809300Y-128089350D03*
X164192940Y-97903580D03*
D18*
X157471950Y-119103590D03*
X147480530Y-83416070D03*
X151092940Y-88403580D03*
D19*
X145992930Y-113503600D03*
D18*
X142092960Y-112006580D03*
D19*
X156809260Y-126089350D03*
X162092970Y-95703590D03*
X121792950Y-92103600D03*
X144792930Y-112330580D03*
X154309290Y-127089350D03*
X164892970Y-97103580D03*
D18*
X146592930Y-108503610D03*
D19*
X162792950Y-97903580D03*
X126439260Y-89409370D03*
X144938530Y-113358000D03*
D18*
X158092930Y-90303600D03*
D19*
X145992930Y-112303600D03*
X162792950Y-96403610D03*
D18*
X147141260Y-121855270D03*
D19*
X163492970Y-95703590D03*
X153309300Y-127089350D03*
X152809270Y-126089350D03*
X132992950Y-94003600D03*
D18*
X138192950Y-81703600D03*
D19*
X154809270Y-126089350D03*
D18*
X144492960Y-108403590D03*
D19*
X157309290Y-127089350D03*
X164892970Y-95803610D03*
D18*
X170792930Y-106703620D03*
D19*
X161309280Y-127089350D03*
X162092970Y-97103580D03*
X158809310Y-126089350D03*
X153809270Y-126089350D03*
X132092950Y-83503600D03*
D18*
X147292950Y-98803600D03*
D19*
X160809310Y-126089350D03*
D18*
X143392930Y-108503610D03*
D19*
X164192940Y-95003610D03*
X161809300Y-126089350D03*
D18*
X151592950Y-96903600D03*
D19*
X152309300Y-127089350D03*
D18*
X171230930Y-104903620D03*
X144292950Y-119303600D03*
X155092940Y-115057570D03*
X171192930Y-85003580D03*
D19*
X151809270Y-126089350D03*
X121792950Y-83203600D03*
D18*
X171230930Y-102503620D03*
X161092920Y-130403590D03*
D19*
X134992950Y-95603600D03*
X157809310Y-126089350D03*
X123192950Y-94803600D03*
X164192940Y-96403610D03*
D18*
X139092950Y-84853600D03*
X146466170Y-100251930D03*
X148064450Y-116596460D03*
X159249260Y-80259370D03*
X164992930Y-89103580D03*
X136280530Y-78116070D03*
X141892960Y-115903600D03*
X148781240Y-122691900D03*
D19*
X151809270Y-128089350D03*
X163492970Y-97203610D03*
X130792950Y-89003600D03*
D18*
X171992930Y-103703620D03*
D19*
X162309280Y-127089350D03*
X133892950Y-94003600D03*
%TO.N,/logic/FREQ*%
X129092950Y-92703600D03*
D18*
X168092960Y-100057600D03*
D19*
X128092950Y-88903600D03*
D18*
%TO.N,ENCB-OUTB*%
X158492930Y-101949600D03*
%TO.N,ENCB-OUTA*%
X161092920Y-102603600D03*
%TO.N,ENCA-OUTB*%
X164792940Y-104903620D03*
%TO.N,ENCA-OUTA*%
X167392940Y-105103620D03*
%TO.N,D_N*%
X157492950Y-92003600D03*
%TO.N,D_P*%
X156692950Y-92803600D03*
%TO.N,/logic/CSN*%
X148791800Y-112102490D03*
X148392950Y-115503600D03*
%TO.N,CRG_STDBY*%
X151692950Y-89903600D03*
X154792960Y-99403600D03*
X155092940Y-90357600D03*
%TO.N,/logic/BLUE*%
X149892950Y-118103590D03*
%TO.N,+5*%
X147792920Y-87503600D03*
X151192970Y-87503600D03*
%TO.N,/logic/EN_LIGHT*%
X167892960Y-90503600D03*
%TD*%
D20*
%TO.N,VCC*%
X169922930Y-106970640D02*
X170536740Y-107584460D01*
X170536740Y-107584460D02*
X170773800Y-107584460D01*
X169922930Y-105303040D02*
X169922930Y-106970640D01*
X169692960Y-105073070D02*
X169922930Y-105303040D01*
X169692960Y-104925670D02*
X169692960Y-105073070D01*
X170773800Y-107584460D02*
X170792930Y-107603590D01*
X169692960Y-104925670D02*
X169692960Y-102503570D01*
D21*
%TO.N,Net-(P3-Pad4)*%
X159472960Y-107503610D02*
X159482970Y-107493610D01*
X159482970Y-101995600D02*
X159600430Y-101878140D01*
X159600430Y-101372140D02*
X159676970Y-101295600D01*
X159482970Y-107493610D02*
X159482970Y-101995600D01*
X159600430Y-101878140D02*
X159600430Y-101372140D01*
%TO.N,/logic/ESP32_U0RXD*%
X162002950Y-107493610D02*
X162002950Y-101098160D01*
X162002950Y-107493610D02*
X162012960Y-107503610D01*
X162000660Y-101095860D02*
X162002950Y-101098160D01*
%TO.N,/logic/ESP32_IO0*%
X164570890Y-99983640D02*
X164592940Y-99961590D01*
X164570890Y-100561590D02*
X164570890Y-99983640D01*
X164138940Y-100993540D02*
X164570890Y-100561590D01*
X164138940Y-105679840D02*
X164138940Y-100993540D01*
X164138940Y-105679840D02*
X164552960Y-106093860D01*
X164552960Y-107503610D02*
X164552960Y-106093860D01*
D20*
%TO.N,VCC*%
X169692960Y-101103590D02*
X171092950Y-99703600D01*
X171092950Y-99703600D02*
X171092950Y-96283430D01*
X136950940Y-82545610D02*
X138934960Y-82545610D01*
X144337570Y-110187980D02*
X145473820Y-109051720D01*
X157692930Y-118003620D02*
X157712060Y-118022750D01*
X149792970Y-91703590D02*
X150592970Y-92503590D01*
X149292950Y-119503600D02*
X152992950Y-119503600D01*
X146292950Y-91703590D02*
X149792970Y-91703590D01*
X165780280Y-126160730D02*
X165845970Y-126160730D01*
X152114470Y-94403600D02*
X159592950Y-94403600D01*
X150592970Y-92855040D02*
X150592970Y-92503590D01*
X143092960Y-111432590D02*
X144337570Y-110187980D01*
X146203390Y-115689170D02*
X147292950Y-114599620D01*
X142292950Y-85903600D02*
X146292950Y-89903600D01*
X147292950Y-114599620D02*
X147292950Y-113203600D01*
X151114470Y-93403600D02*
X152114470Y-94403600D01*
X140792950Y-96603600D02*
X147992950Y-103803600D01*
X150632140Y-98242780D02*
X151805410Y-99416050D01*
X155592960Y-81503620D02*
X157116420Y-83027080D01*
X147500050Y-110187980D02*
X147792950Y-110480870D01*
X171092950Y-96283430D02*
X172587190Y-94789190D01*
X161392950Y-94403600D02*
X162392950Y-93403600D01*
X154077160Y-118419380D02*
X154077160Y-117819390D01*
X171201600Y-93403600D02*
X172587190Y-94789190D01*
X151092950Y-93382080D02*
X151092950Y-93355020D01*
D21*
X157616390Y-83027080D02*
X157692930Y-83103610D01*
D20*
X154980510Y-116916040D02*
X156605350Y-116916040D01*
X159792950Y-126672010D02*
X159792950Y-125203600D01*
X155809270Y-131289340D02*
X155904940Y-131193670D01*
X147992950Y-103803600D02*
X151786280Y-100010260D01*
X147792950Y-112703600D02*
X147792950Y-110480870D01*
X157712060Y-118092510D02*
X157712060Y-118022750D01*
X162392950Y-93403600D02*
X171201600Y-93403600D01*
X157146960Y-116374440D02*
X157146960Y-111057470D01*
X135792950Y-96603600D02*
X140792950Y-96603600D01*
X155904940Y-131193670D02*
X155904940Y-130560020D01*
X119592950Y-90003600D02*
X119592950Y-89503600D01*
X155904940Y-130560020D02*
X159792950Y-126672010D01*
X146222520Y-116433180D02*
X149292950Y-119503600D01*
X150592970Y-92503590D02*
X157692930Y-85403630D01*
X146222520Y-116433180D02*
X146222520Y-115708300D01*
X146292950Y-91703590D02*
X146292950Y-89903600D01*
X157712060Y-118092510D02*
X161808050Y-122188500D01*
X150632140Y-98242780D02*
X150632140Y-93869950D01*
X120792950Y-94113600D02*
X120792950Y-94103600D01*
X161808050Y-122188500D02*
X165780280Y-126160730D01*
X151786280Y-99435180D02*
X151805410Y-99416050D01*
X120792950Y-94113600D02*
X121707190Y-95027840D01*
X136892950Y-82603600D02*
X136950940Y-82545610D01*
X122807180Y-96603600D02*
X135792950Y-96603600D01*
X150592970Y-92855040D02*
X151092950Y-93355020D01*
X146203390Y-115689170D02*
X146222520Y-115708300D01*
X159592950Y-94403600D02*
X161392950Y-94403600D01*
X144337570Y-110187980D02*
X147500050Y-110187980D01*
X119592950Y-90003600D02*
X120792950Y-91203600D01*
X154077160Y-117819390D02*
X154980510Y-116916040D01*
X120792950Y-94103600D02*
X120792950Y-91203600D01*
X159792950Y-125203600D02*
X161808050Y-123188490D01*
X121707190Y-95503600D02*
X122807180Y-96603600D01*
X156932960Y-110843470D02*
X157146960Y-111057470D01*
X157116420Y-83027080D02*
X157616390Y-83027080D01*
X161808050Y-123188490D02*
X161808050Y-122188500D01*
X156605350Y-116916040D02*
X157146960Y-116374440D01*
X152992950Y-119503600D02*
X154077160Y-118419380D01*
X145473820Y-108422720D02*
X145492950Y-108403590D01*
X151092950Y-93403600D02*
X151114470Y-93403600D01*
X151092950Y-93403600D02*
X151092950Y-93382080D01*
X147292950Y-113203600D02*
X147792950Y-112703600D01*
X145492950Y-108403590D02*
X145492950Y-106303590D01*
X151786280Y-100010260D02*
X151786280Y-99435180D01*
X156932960Y-110843470D02*
X156932960Y-107503610D01*
X150632140Y-93869950D02*
X151092950Y-93409140D01*
X156605350Y-116916040D02*
X157692930Y-118003620D01*
X121707190Y-95503600D02*
X121707190Y-95027840D01*
X157692930Y-85403630D02*
X157692930Y-83103610D01*
X145492950Y-106303590D02*
X147992950Y-103803600D01*
X169692960Y-102503570D02*
X169692960Y-101103590D01*
X138934960Y-82545610D02*
X142292950Y-85903600D01*
X145473820Y-109051720D02*
X145473820Y-108422720D01*
X151092950Y-93409140D02*
X151092950Y-93403600D01*
%TD*%
M02*
