M48
; DRILL file {KiCad 9.0.6} date 2025-12-03T15:23:21+0100
; FORMAT={-:-/ absolute / metric / decimal}
; #@! TF.CreationDate,2025-12-03T15:23:21+01:00
; #@! TF.GenerationSoftware,Kicad,Pcbnew,9.0.6
; #@! TF.FileFunction,Plated,1,4,PTH
FMAT,2
METRIC
; #@! TA.AperFunction,Plated,PTH,ComponentDrill
T1C0.200
; #@! TA.AperFunction,Plated,PTH,ViaDrill
T2C0.300
; #@! TA.AperFunction,Plated,PTH,ComponentDrill
T3C0.600
; #@! TA.AperFunction,Plated,PTH,ComponentDrill
T4C0.750
; #@! TA.AperFunction,Plated,PTH,ComponentDrill
T5C0.800
; #@! TA.AperFunction,Plated,PTH,ComponentDrill
T6C1.800
%
G90
G05
T1
X135.493Y-85.729
X135.493Y-86.239
X135.493Y-86.749
X135.493Y-87.259
X135.493Y-87.769
X135.493Y-88.279
X136.093Y-85.729
X136.093Y-86.239
X136.093Y-86.749
X136.093Y-87.259
X136.093Y-87.769
X136.093Y-88.279
X136.693Y-85.729
X136.693Y-86.239
X136.693Y-86.749
X136.693Y-87.259
X136.693Y-87.769
X136.693Y-88.279
T2
X119.593Y-89.504
X120.793Y-94.104
X121.793Y-83.204
X121.793Y-92.104
X123.193Y-94.804
X126.439Y-89.409
X126.593Y-91.904
X128.093Y-88.904
X129.093Y-92.704
X129.181Y-89.654
X129.193Y-91.704
X130.793Y-89.004
X131.066Y-81.331
X132.093Y-83.504
X132.993Y-94.004
X133.893Y-94.004
X133.986Y-90.287
X134.993Y-95.604
X135.793Y-96.604
X136.281Y-78.116
X136.893Y-82.604
X138.193Y-81.704
X138.309Y-101.089
X139.093Y-84.854
X139.309Y-101.089
X140.309Y-101.089
X141.309Y-101.089
X141.893Y-115.904
X142.093Y-112.007
X142.293Y-85.904
X142.309Y-101.089
X143.093Y-111.433
X143.393Y-108.504
X144.093Y-90.804
X144.293Y-119.304
X144.493Y-108.404
X144.793Y-112.331
X144.939Y-113.358
X145.493Y-108.404
X145.993Y-112.304
X145.993Y-113.504
X146.093Y-84.404
X146.203Y-115.689
X146.293Y-91.704
X146.466Y-100.252
X146.593Y-108.504
X147.141Y-121.855
X147.293Y-98.804
X147.359Y-115.67
X147.481Y-83.416
X147.793Y-87.504
X147.993Y-103.804
X148.064Y-116.596
X148.226Y-114.037
X148.269Y-99.527
X148.393Y-115.504
X148.574Y-89.45
X148.781Y-122.692
X148.792Y-112.102
X148.816Y-111.184
X148.893Y-104.604
X149.18Y-116.891
X149.393Y-116.004
X149.893Y-118.104
X151.093Y-88.404
X151.093Y-93.382
X151.193Y-87.504
X151.593Y-96.904
X151.693Y-89.904
X151.805Y-99.416
X151.809Y-122.089
X151.809Y-124.089
X151.809Y-126.089
X151.809Y-128.089
X152.309Y-121.089
X152.309Y-123.089
X152.309Y-127.089
X152.809Y-122.089
X152.809Y-124.089
X152.809Y-126.089
X153.193Y-103.818
X153.309Y-121.089
X153.309Y-123.089
X153.309Y-127.089
X153.593Y-86.604
X153.809Y-122.089
X153.809Y-124.089
X153.809Y-126.089
X153.989Y-84.504
X154.309Y-127.089
X154.397Y-114.404
X154.793Y-100.904
X154.793Y-99.404
X154.809Y-124.089
X154.809Y-126.089
X154.981Y-116.916
X155.093Y-90.358
X155.093Y-115.058
X155.093Y-123.104
X155.593Y-81.504
X156.393Y-113.804
X156.493Y-90.304
X156.693Y-84.704
X156.693Y-92.804
X156.809Y-126.089
X156.818Y-121.82
X157.309Y-127.089
X157.447Y-95.208
X157.447Y-99.704
X157.472Y-119.104
X157.493Y-92.004
X157.693Y-83.104
X157.693Y-118.004
X157.809Y-126.089
X157.819Y-101.277
X158.093Y-90.304
X158.093Y-122.704
X158.309Y-127.089
X158.493Y-101.95
X158.593Y-113.804
X158.809Y-126.089
X159.064Y-93.55
X159.093Y-89.104
X159.249Y-80.259
X159.393Y-121.904
X159.593Y-94.404
X159.677Y-101.296
X160.493Y-89.004
X160.693Y-98.908
X160.809Y-126.089
X161.093Y-102.604
X161.093Y-130.404
X161.309Y-127.089
X161.809Y-126.089
X162.001Y-101.096
X162.093Y-95.704
X162.093Y-97.104
X162.309Y-127.089
X162.793Y-96.404
X162.793Y-97.904
X162.809Y-128.089
X163.493Y-95.704
X163.493Y-97.204
X164.193Y-95.004
X164.193Y-96.404
X164.193Y-97.904
X164.593Y-99.962
X164.793Y-104.904
X164.893Y-95.804
X164.893Y-97.104
X164.993Y-89.104
X167.393Y-105.104
X167.893Y-90.504
X168.093Y-100.058
X169.349Y-88.604
X169.393Y-83.704
X169.693Y-102.504
X170.793Y-106.704
X170.793Y-107.604
X171.193Y-85.004
X171.231Y-102.504
X171.231Y-104.904
X171.359Y-89.299
X171.993Y-103.704
X172.093Y-86.204
X172.587Y-94.789
T3
X150.809Y-131.289
X152.059Y-131.289
X153.309Y-131.289
X154.559Y-131.289
X155.809Y-131.289
X157.059Y-131.289
X165.41Y-131.142
X165.519Y-129.896
X165.628Y-128.651
X165.737Y-127.406
X165.846Y-126.161
X165.955Y-124.915
T5
X154.393Y-107.504
X156.933Y-107.504
X159.473Y-107.504
X162.013Y-107.504
X164.553Y-107.504
X167.093Y-107.504
T6
X121.892Y-79.689
X126.892Y-79.689
T4
G00X145.945Y-79.429
M15
G01X145.945Y-78.879
M16
G05
G00X147.07Y-82.054
M15
G01X146.82Y-82.054
M16
G05
G00X152.07Y-82.054
M15
G01X151.82Y-82.054
M16
G05
G00X152.945Y-79.429
M15
G01X152.945Y-78.879
M16
G05
M30
