%TF.GenerationSoftware,KiCad,Pcbnew,9.0.6*%
%TF.CreationDate,2025-12-03T15:23:28+01:00*%
%TF.ProjectId,Spinmodule,5370696e-6d6f-4647-956c-652e6b696361,rev?*%
%TF.SameCoordinates,Original*%
%TF.FileFunction,Legend,Top*%
%TF.FilePolarity,Positive*%
%FSLAX46Y46*%
G04 Gerber Fmt 4.6, Leading zero omitted, Abs format (unit mm)*
G04 Created by KiCad (PCBNEW 9.0.6) date 2025-12-03 15:23:28*
%MOMM*%
%LPD*%
G01*
G04 APERTURE LIST*
%ADD10C,0.240030*%
%ADD11C,0.150000*%
%ADD12C,0.043750*%
%ADD13C,0.087500*%
%ADD14C,0.078750*%
%ADD15C,0.254000*%
%ADD16C,0.250000*%
%ADD17C,0.200000*%
G04 APERTURE END LIST*
D10*
G36*
X138092969Y-130980383D02*
G01*
X137139287Y-131122912D01*
X137043413Y-130481403D01*
X137153810Y-130464904D01*
X137230880Y-130980593D01*
X137528674Y-130936087D01*
X137461976Y-130489803D01*
X137572373Y-130473304D01*
X137639071Y-130919589D01*
X138074165Y-130854563D01*
X138092969Y-130980383D01*
G37*
G36*
X137904185Y-129717195D02*
G01*
X137867631Y-129737620D01*
X137821922Y-129753378D01*
X137880229Y-129812047D01*
X137918448Y-129866575D01*
X137944613Y-129925700D01*
X137960423Y-129991955D01*
X137964968Y-130049598D01*
X137960910Y-130098239D01*
X137949414Y-130139510D01*
X137931017Y-130174773D01*
X137905275Y-130205921D01*
X137875049Y-130229673D01*
X137839732Y-130246664D01*
X137798301Y-130256907D01*
X137748671Y-130258357D01*
X137702380Y-130247710D01*
X137660416Y-130226580D01*
X137626226Y-130197443D01*
X137598266Y-130161432D01*
X137575343Y-130119156D01*
X137542322Y-130017985D01*
X137502488Y-129889208D01*
X137471255Y-129815744D01*
X137440827Y-129819580D01*
X137395300Y-129830877D01*
X137364925Y-129847175D01*
X137345698Y-129867644D01*
X137329767Y-129902913D01*
X137322639Y-129948151D01*
X137326199Y-130006480D01*
X137338243Y-130060364D01*
X137354378Y-130098168D01*
X137373601Y-130123758D01*
X137399247Y-130142697D01*
X137435544Y-130157233D01*
X137485715Y-130166338D01*
X137487238Y-130282827D01*
X137436919Y-130276736D01*
X137394893Y-130265432D01*
X137359854Y-130249523D01*
X137328732Y-130227277D01*
X137300244Y-130196849D01*
X137274281Y-130156859D01*
X137245567Y-130088846D01*
X137226268Y-130004165D01*
X137219528Y-129919574D01*
X137225662Y-129857723D01*
X137242926Y-129804265D01*
X137244288Y-129802156D01*
X137562170Y-129802156D01*
X137595296Y-129870702D01*
X137635085Y-129986220D01*
X137657306Y-130050867D01*
X137673784Y-130084527D01*
X137693985Y-130108808D01*
X137718709Y-130124938D01*
X137746859Y-130133109D01*
X137776731Y-130132804D01*
X137805793Y-130124405D01*
X137829746Y-130108963D01*
X137849555Y-130085821D01*
X137862286Y-130057947D01*
X137868005Y-130022656D01*
X137865339Y-129977653D01*
X137855301Y-129933960D01*
X137839410Y-129895695D01*
X137817773Y-129862059D01*
X137790460Y-129833132D01*
X137759770Y-129811657D01*
X137725181Y-129797000D01*
X137678392Y-129790341D01*
X137605135Y-129795735D01*
X137562170Y-129802156D01*
X137244288Y-129802156D01*
X137265789Y-129768858D01*
X137297247Y-129742021D01*
X137339849Y-129720623D01*
X137375098Y-129711228D01*
X137446762Y-129698658D01*
X137602558Y-129675374D01*
X137750577Y-129650717D01*
X137807632Y-129637138D01*
X137848062Y-129619792D01*
X137885961Y-129595260D01*
X137904185Y-129717195D01*
G37*
G36*
X137585774Y-128907379D02*
G01*
X137650767Y-128925549D01*
X137706643Y-128954662D01*
X137756769Y-128995295D01*
X137793998Y-129040931D01*
X137819794Y-129092209D01*
X137834644Y-129150351D01*
X137836756Y-129209646D01*
X137825193Y-129262741D01*
X137800116Y-129311496D01*
X137759983Y-129357182D01*
X137848405Y-129343967D01*
X137864592Y-129452277D01*
X136910910Y-129594806D01*
X136893458Y-129478031D01*
X137236187Y-129426809D01*
X137188229Y-129392660D01*
X137152698Y-129352730D01*
X137128052Y-129306359D01*
X137113877Y-129252143D01*
X137111498Y-129199228D01*
X137212680Y-129199228D01*
X137212838Y-129247964D01*
X137222335Y-129283903D01*
X137239348Y-129315845D01*
X137264407Y-129344559D01*
X137298769Y-129370391D01*
X137336365Y-129388329D01*
X137381058Y-129399442D01*
X137434427Y-129402979D01*
X137498329Y-129397590D01*
X137579996Y-129380590D01*
X137635449Y-129359993D01*
X137671347Y-129337234D01*
X137707215Y-129299879D01*
X137729395Y-129261068D01*
X137739781Y-129219824D01*
X137738691Y-129174650D01*
X137729195Y-129138707D01*
X137712191Y-129106762D01*
X137687150Y-129078047D01*
X137652817Y-129052215D01*
X137615283Y-129034468D01*
X137569802Y-129023458D01*
X137514555Y-129020087D01*
X137447401Y-129025890D01*
X137379372Y-129040216D01*
X137326860Y-129059376D01*
X137286981Y-129082441D01*
X137257392Y-129108999D01*
X137227075Y-129153530D01*
X137212680Y-129199228D01*
X137111498Y-129199228D01*
X137111044Y-129189131D01*
X137121516Y-129127943D01*
X137144787Y-129071270D01*
X137179569Y-129023772D01*
X137224839Y-128984159D01*
X137282837Y-128949655D01*
X137347611Y-128924164D01*
X137419818Y-128907961D01*
X137509613Y-128900932D01*
X137585774Y-128907379D01*
G37*
G36*
X137754515Y-128715736D02*
G01*
X136800833Y-128858265D01*
X136783390Y-128741547D01*
X137737072Y-128599019D01*
X137754515Y-128715736D01*
G37*
G36*
X137484318Y-127872166D02*
G01*
X137543653Y-127899278D01*
X137593789Y-127938158D01*
X137624516Y-127974208D01*
X137649494Y-128016913D01*
X137668683Y-128067286D01*
X137681647Y-128126627D01*
X137686467Y-128202081D01*
X137678014Y-128268296D01*
X137657345Y-128327177D01*
X137624410Y-128380231D01*
X137581163Y-128424827D01*
X137526865Y-128461081D01*
X137459560Y-128489008D01*
X137376608Y-128507781D01*
X137288703Y-128514444D01*
X137213719Y-128507531D01*
X137149284Y-128488694D01*
X137093440Y-128458577D01*
X137044488Y-128417025D01*
X137006773Y-128367704D01*
X136979470Y-128309520D01*
X136962718Y-128240711D01*
X136959313Y-128181184D01*
X137057796Y-128181184D01*
X137059936Y-128224877D01*
X137073695Y-128275434D01*
X137097945Y-128317328D01*
X137133197Y-128352162D01*
X137176144Y-128376966D01*
X137225745Y-128390302D01*
X137284026Y-128391624D01*
X137226540Y-128006973D01*
X137171927Y-128024622D01*
X137132415Y-128045933D01*
X137104763Y-128070283D01*
X137080022Y-128104848D01*
X137064573Y-128141539D01*
X137057796Y-128181184D01*
X136959313Y-128181184D01*
X136958806Y-128172318D01*
X136967758Y-128110549D01*
X136988995Y-128053832D01*
X137023029Y-128000933D01*
X137066711Y-127956776D01*
X137121700Y-127920698D01*
X137190025Y-127892748D01*
X137274390Y-127873800D01*
X137305631Y-127869842D01*
X137382406Y-128383560D01*
X137437845Y-128368000D01*
X137482433Y-128347553D01*
X137517939Y-128322714D01*
X137545715Y-128293534D01*
X137572792Y-128246892D01*
X137585534Y-128196539D01*
X137584143Y-128140547D01*
X137574003Y-128099403D01*
X137557383Y-128064894D01*
X137534359Y-128035895D01*
X137505251Y-128012842D01*
X137466821Y-127993973D01*
X137416910Y-127979826D01*
X137413779Y-127856939D01*
X137484318Y-127872166D01*
G37*
G36*
X137239974Y-127384516D02*
G01*
X137211791Y-127267330D01*
X137258171Y-127251596D01*
X137295548Y-127232476D01*
X137325317Y-127210292D01*
X137349920Y-127182801D01*
X137370377Y-127147652D01*
X137386453Y-127103348D01*
X137395577Y-127056898D01*
X137398035Y-127007020D01*
X137393393Y-126953053D01*
X137377392Y-126884531D01*
X137352945Y-126829163D01*
X137330818Y-126796676D01*
X137307154Y-126772703D01*
X137281832Y-126755914D01*
X137239431Y-126741506D01*
X137196106Y-126741162D01*
X137154784Y-126754074D01*
X137121655Y-126778845D01*
X137097144Y-126815293D01*
X137078145Y-126872840D01*
X137069713Y-126925152D01*
X137056947Y-127049096D01*
X137041271Y-127174754D01*
X137024834Y-127241566D01*
X137004458Y-127288529D01*
X136979882Y-127326347D01*
X136951238Y-127356358D01*
X136917449Y-127380301D01*
X136879798Y-127397303D01*
X136837541Y-127407494D01*
X136789890Y-127410005D01*
X136743142Y-127403219D01*
X136696459Y-127386848D01*
X136653979Y-127361706D01*
X136616394Y-127327089D01*
X136583295Y-127281709D01*
X136557539Y-127231134D01*
X136537924Y-127174840D01*
X136524684Y-127112046D01*
X136518290Y-127041615D01*
X136520621Y-126978092D01*
X136530909Y-126920482D01*
X136550208Y-126865851D01*
X136577386Y-126819881D01*
X136612540Y-126781311D01*
X136654595Y-126750095D01*
X136701886Y-126727102D01*
X136755323Y-126712195D01*
X136782459Y-126831495D01*
X136726729Y-126852507D01*
X136685414Y-126881276D01*
X136655756Y-126917769D01*
X136637477Y-126961420D01*
X136629532Y-127017677D01*
X136634310Y-127090387D01*
X136651197Y-127164912D01*
X136673920Y-127216384D01*
X136701043Y-127250538D01*
X136736236Y-127275610D01*
X136771978Y-127287526D01*
X136809788Y-127287635D01*
X136841679Y-127278563D01*
X136867580Y-127262208D01*
X136888622Y-127238034D01*
X136902312Y-127207520D01*
X136916117Y-127146335D01*
X136928108Y-127038180D01*
X136942971Y-126891925D01*
X136957301Y-126818642D01*
X136978655Y-126761644D01*
X137005011Y-126716602D01*
X137036044Y-126681563D01*
X137073502Y-126653649D01*
X137116293Y-126633729D01*
X137165454Y-126621736D01*
X137215556Y-126619132D01*
X137265147Y-126626366D01*
X137315110Y-126643828D01*
X137360822Y-126670302D01*
X137401727Y-126706318D01*
X137438250Y-126753047D01*
X137466915Y-126805395D01*
X137488561Y-126864307D01*
X137502923Y-126930755D01*
X137511041Y-127017023D01*
X137508707Y-127090344D01*
X137497450Y-127152735D01*
X137475756Y-127211693D01*
X137444751Y-127262605D01*
X137404082Y-127306582D01*
X137355689Y-127342153D01*
X137301342Y-127368076D01*
X137239974Y-127384516D01*
G37*
G36*
X137107806Y-125876169D02*
G01*
X137168472Y-125888329D01*
X137225728Y-125910106D01*
X137274040Y-125940334D01*
X137314658Y-125979226D01*
X137347389Y-126025158D01*
X137369750Y-126073370D01*
X137382439Y-126124578D01*
X137384403Y-126181537D01*
X137373099Y-126233028D01*
X137350822Y-126279958D01*
X137321294Y-126318719D01*
X137658109Y-126268382D01*
X137675562Y-126385157D01*
X136721879Y-126527686D01*
X136705978Y-126421289D01*
X136795676Y-126407884D01*
X136742978Y-126373863D01*
X136704590Y-126334656D01*
X136685605Y-126304205D01*
X136671045Y-126267598D01*
X136661274Y-126223703D01*
X136661125Y-126221132D01*
X136753836Y-126221132D01*
X136763257Y-126255869D01*
X136780637Y-126287309D01*
X136806761Y-126316173D01*
X136843203Y-126342749D01*
X136882586Y-126361024D01*
X136929671Y-126372308D01*
X136986167Y-126375759D01*
X137054079Y-126369917D01*
X137121282Y-126355707D01*
X137173254Y-126336592D01*
X137212814Y-126313487D01*
X137242248Y-126286787D01*
X137272221Y-126242109D01*
X137286446Y-126196102D01*
X137286191Y-126146906D01*
X137276575Y-126110242D01*
X137259523Y-126077905D01*
X137234582Y-126049091D01*
X137200576Y-126023424D01*
X137163380Y-126006008D01*
X137117167Y-125995182D01*
X137059771Y-125992044D01*
X136988652Y-125998368D01*
X136922281Y-126012436D01*
X136870343Y-126031556D01*
X136830250Y-126054867D01*
X136799906Y-126082000D01*
X136768664Y-126127166D01*
X136753853Y-126172916D01*
X136753836Y-126221132D01*
X136661125Y-126221132D01*
X136657911Y-126165530D01*
X136665389Y-126111783D01*
X136683415Y-126061295D01*
X136711227Y-126015396D01*
X136748462Y-125975212D01*
X136796272Y-125940279D01*
X136849501Y-125913021D01*
X136907984Y-125892474D01*
X136972442Y-125878800D01*
X137042751Y-125872808D01*
X137107806Y-125876169D01*
G37*
G36*
X136481534Y-125807946D02*
G01*
X136347944Y-125827911D01*
X136330500Y-125711194D01*
X136464090Y-125691229D01*
X136481534Y-125807946D01*
G37*
G36*
X137301626Y-125685382D02*
G01*
X136611412Y-125788536D01*
X136593969Y-125671818D01*
X137284183Y-125568665D01*
X137301626Y-125685382D01*
G37*
G36*
X137257640Y-125391067D02*
G01*
X136567427Y-125494221D01*
X136551716Y-125389100D01*
X136649358Y-125374507D01*
X136603589Y-125347257D01*
X136566938Y-125314047D01*
X136538324Y-125274485D01*
X136517303Y-125227635D01*
X136504109Y-125172090D01*
X136500820Y-125110838D01*
X136509443Y-125054280D01*
X136529221Y-125003421D01*
X136556497Y-124967343D01*
X136592293Y-124939731D01*
X136637398Y-124918086D01*
X136675269Y-124907831D01*
X136750014Y-124894616D01*
X137173976Y-124831255D01*
X137191428Y-124948030D01*
X136771293Y-125010819D01*
X136704967Y-125024820D01*
X136666353Y-125040433D01*
X136637492Y-125063816D01*
X136616981Y-125097189D01*
X136606825Y-125136551D01*
X136607984Y-125181758D01*
X136620543Y-125228913D01*
X136642633Y-125269049D01*
X136674717Y-125303438D01*
X136703199Y-125321038D01*
X136741854Y-125332523D01*
X136793824Y-125336536D01*
X136862960Y-125330670D01*
X137240188Y-125274292D01*
X137257640Y-125391067D01*
G37*
G36*
X137049246Y-123996667D02*
G01*
X136150624Y-124507611D01*
X136130269Y-124371412D01*
X136786383Y-124020658D01*
X136935124Y-123947392D01*
X136771261Y-123919480D01*
X136039819Y-123766199D01*
X136020625Y-123637770D01*
X137029948Y-123867541D01*
X137049246Y-123996667D01*
G37*
G36*
X136712797Y-123466808D02*
G01*
X136679806Y-123352355D01*
X136740609Y-123324719D01*
X136782976Y-123294776D01*
X136810940Y-123262811D01*
X136829713Y-123224902D01*
X136838297Y-123183939D01*
X136836595Y-123138585D01*
X136822289Y-123086976D01*
X136796647Y-123043979D01*
X136758926Y-123007988D01*
X136713332Y-122982612D01*
X136664102Y-122970750D01*
X136609432Y-122972298D01*
X136559074Y-122986029D01*
X136518199Y-123009995D01*
X136485026Y-123044596D01*
X136461978Y-123086660D01*
X136451205Y-123133175D01*
X136452924Y-123185967D01*
X136461015Y-123220354D01*
X136478225Y-123266418D01*
X136373839Y-123268800D01*
X136372357Y-123249756D01*
X136360692Y-123201866D01*
X136341113Y-123159353D01*
X136313448Y-123121335D01*
X136287732Y-123098686D01*
X136258450Y-123084295D01*
X136224587Y-123077701D01*
X136184675Y-123079525D01*
X136144475Y-123090633D01*
X136111677Y-123110275D01*
X136084894Y-123138895D01*
X136066480Y-123173541D01*
X136057909Y-123212506D01*
X136059567Y-123257381D01*
X136071019Y-123300384D01*
X136090748Y-123335636D01*
X136118976Y-123364566D01*
X136153853Y-123385384D01*
X136198348Y-123398869D01*
X136255030Y-123403924D01*
X136251716Y-123523743D01*
X136191949Y-123517501D01*
X136140074Y-123503471D01*
X136094846Y-123482174D01*
X136055287Y-123453633D01*
X136021524Y-123418215D01*
X135994904Y-123377155D01*
X135975168Y-123329642D01*
X135962547Y-123274548D01*
X135958719Y-123222885D01*
X135962803Y-123173634D01*
X135974631Y-123126150D01*
X135994014Y-123081456D01*
X136019411Y-123043812D01*
X136050978Y-123012310D01*
X136087799Y-122986942D01*
X136126832Y-122969384D01*
X136168651Y-122959217D01*
X136209390Y-122956936D01*
X136248293Y-122962360D01*
X136286083Y-122975514D01*
X136320546Y-122995765D01*
X136352202Y-123024011D01*
X136381314Y-123061400D01*
X136391507Y-123005516D01*
X136411909Y-122958396D01*
X136442449Y-122918357D01*
X136481647Y-122886515D01*
X136529762Y-122863208D01*
X136588710Y-122848721D01*
X136649922Y-122845476D01*
X136706947Y-122854208D01*
X136761058Y-122874766D01*
X136813276Y-122907987D01*
X136857940Y-122950248D01*
X136892728Y-122999679D01*
X136918185Y-123057308D01*
X136934099Y-123124665D01*
X136938395Y-123187153D01*
X136932336Y-123243718D01*
X136916547Y-123295562D01*
X136890957Y-123343679D01*
X136856773Y-123386387D01*
X136816233Y-123420831D01*
X136768625Y-123447624D01*
X136712797Y-123466808D01*
G37*
G36*
X136356532Y-121646197D02*
G01*
X136369502Y-121515628D01*
X136448972Y-121529271D01*
X136517287Y-121551992D01*
X136576086Y-121583179D01*
X136626654Y-121622780D01*
X136669619Y-121670848D01*
X136703655Y-121726014D01*
X136729014Y-121789280D01*
X136745392Y-121861999D01*
X136752575Y-121940199D01*
X136750084Y-122008560D01*
X136739058Y-122068539D01*
X136720204Y-122121424D01*
X136692670Y-122171128D01*
X136657387Y-122216420D01*
X136613742Y-122257692D01*
X136560802Y-122295098D01*
X136484464Y-122334888D01*
X136402273Y-122364355D01*
X136313369Y-122383470D01*
X136214668Y-122391355D01*
X136126038Y-122384956D01*
X136045766Y-122365432D01*
X135988395Y-122341469D01*
X135937688Y-122310870D01*
X135892917Y-122273524D01*
X135853593Y-122229007D01*
X135811143Y-122162026D01*
X135780559Y-122088412D01*
X135761729Y-122006993D01*
X135755979Y-121935306D01*
X135760532Y-121870353D01*
X135774632Y-121810988D01*
X135798050Y-121756218D01*
X135830478Y-121706072D01*
X135871145Y-121661947D01*
X135920818Y-121623396D01*
X135980668Y-121590337D01*
X136028400Y-121709818D01*
X135966483Y-121746776D01*
X135922194Y-121786247D01*
X135892288Y-121828323D01*
X135873304Y-121876275D01*
X135865162Y-121930775D01*
X135868805Y-121993658D01*
X135885766Y-122064149D01*
X135912609Y-122121881D01*
X135948902Y-122169061D01*
X135994511Y-122207338D01*
X136046393Y-122234640D01*
X136105778Y-122251365D01*
X136168035Y-122258985D01*
X136230419Y-122259807D01*
X136293280Y-122253811D01*
X136373211Y-122237534D01*
X136441758Y-122214987D01*
X136500390Y-122186759D01*
X136552615Y-122149640D01*
X136591795Y-122106454D01*
X136619521Y-122056566D01*
X136636850Y-122001562D01*
X136643722Y-121945777D01*
X136640257Y-121888322D01*
X136628438Y-121836748D01*
X136609835Y-121791842D01*
X136584616Y-121752624D01*
X136552502Y-121718391D01*
X136515014Y-121690866D01*
X136470688Y-121669452D01*
X136418349Y-121654346D01*
X136356532Y-121646197D01*
G37*
D11*
X245499736Y-87524189D02*
X245499736Y-86524189D01*
X245499736Y-86524189D02*
X245833069Y-87238474D01*
X245833069Y-87238474D02*
X246166402Y-86524189D01*
X246166402Y-86524189D02*
X246166402Y-87524189D01*
X247166402Y-87524189D02*
X246594974Y-87524189D01*
X246880688Y-87524189D02*
X246880688Y-86524189D01*
X246880688Y-86524189D02*
X246785450Y-86667046D01*
X246785450Y-86667046D02*
X246690212Y-86762284D01*
X246690212Y-86762284D02*
X246594974Y-86809903D01*
D12*
X119668901Y-87332702D02*
X119952235Y-87332702D01*
X119952235Y-87332702D02*
X119985568Y-87316036D01*
X119985568Y-87316036D02*
X120002235Y-87299369D01*
X120002235Y-87299369D02*
X120018901Y-87266036D01*
X120018901Y-87266036D02*
X120018901Y-87199369D01*
X120018901Y-87199369D02*
X120002235Y-87166036D01*
X120002235Y-87166036D02*
X119985568Y-87149369D01*
X119985568Y-87149369D02*
X119952235Y-87132702D01*
X119952235Y-87132702D02*
X119668901Y-87132702D01*
X120018901Y-86782702D02*
X120018901Y-86982702D01*
X120018901Y-86882702D02*
X119668901Y-86882702D01*
X119668901Y-86882702D02*
X119718901Y-86916035D01*
X119718901Y-86916035D02*
X119752235Y-86949369D01*
X119752235Y-86949369D02*
X119768901Y-86982702D01*
X120018901Y-86449369D02*
X120018901Y-86649369D01*
X120018901Y-86549369D02*
X119668901Y-86549369D01*
X119668901Y-86549369D02*
X119718901Y-86582702D01*
X119718901Y-86582702D02*
X119752235Y-86616036D01*
X119752235Y-86616036D02*
X119768901Y-86649369D01*
D13*
X124142593Y-91096736D02*
X124142593Y-91380070D01*
X124142593Y-91380070D02*
X124159260Y-91413403D01*
X124159260Y-91413403D02*
X124175926Y-91430070D01*
X124175926Y-91430070D02*
X124209260Y-91446736D01*
X124209260Y-91446736D02*
X124275926Y-91446736D01*
X124275926Y-91446736D02*
X124309260Y-91430070D01*
X124309260Y-91430070D02*
X124325926Y-91413403D01*
X124325926Y-91413403D02*
X124342593Y-91380070D01*
X124342593Y-91380070D02*
X124342593Y-91096736D01*
X124475927Y-91096736D02*
X124709260Y-91096736D01*
X124709260Y-91096736D02*
X124559260Y-91446736D01*
D12*
X146602591Y-93470266D02*
X146885925Y-93470266D01*
X146885925Y-93470266D02*
X146919258Y-93453600D01*
X146919258Y-93453600D02*
X146935925Y-93436933D01*
X146935925Y-93436933D02*
X146952591Y-93403600D01*
X146952591Y-93403600D02*
X146952591Y-93336933D01*
X146952591Y-93336933D02*
X146935925Y-93303600D01*
X146935925Y-93303600D02*
X146919258Y-93286933D01*
X146919258Y-93286933D02*
X146885925Y-93270266D01*
X146885925Y-93270266D02*
X146602591Y-93270266D01*
X146602591Y-92953599D02*
X146602591Y-93020266D01*
X146602591Y-93020266D02*
X146619258Y-93053599D01*
X146619258Y-93053599D02*
X146635925Y-93070266D01*
X146635925Y-93070266D02*
X146685925Y-93103599D01*
X146685925Y-93103599D02*
X146752591Y-93120266D01*
X146752591Y-93120266D02*
X146885925Y-93120266D01*
X146885925Y-93120266D02*
X146919258Y-93103599D01*
X146919258Y-93103599D02*
X146935925Y-93086933D01*
X146935925Y-93086933D02*
X146952591Y-93053599D01*
X146952591Y-93053599D02*
X146952591Y-92986933D01*
X146952591Y-92986933D02*
X146935925Y-92953599D01*
X146935925Y-92953599D02*
X146919258Y-92936933D01*
X146919258Y-92936933D02*
X146885925Y-92920266D01*
X146885925Y-92920266D02*
X146802591Y-92920266D01*
X146802591Y-92920266D02*
X146769258Y-92936933D01*
X146769258Y-92936933D02*
X146752591Y-92953599D01*
X146752591Y-92953599D02*
X146735925Y-92986933D01*
X146735925Y-92986933D02*
X146735925Y-93053599D01*
X146735925Y-93053599D02*
X146752591Y-93086933D01*
X146752591Y-93086933D02*
X146769258Y-93103599D01*
X146769258Y-93103599D02*
X146802591Y-93120266D01*
X133758763Y-77758191D02*
X133758763Y-78041525D01*
X133758763Y-78041525D02*
X133775430Y-78074858D01*
X133775430Y-78074858D02*
X133792096Y-78091525D01*
X133792096Y-78091525D02*
X133825430Y-78108191D01*
X133825430Y-78108191D02*
X133892096Y-78108191D01*
X133892096Y-78108191D02*
X133925430Y-78091525D01*
X133925430Y-78091525D02*
X133942096Y-78074858D01*
X133942096Y-78074858D02*
X133958763Y-78041525D01*
X133958763Y-78041525D02*
X133958763Y-77758191D01*
X134092097Y-77758191D02*
X134308763Y-77758191D01*
X134308763Y-77758191D02*
X134192097Y-77891525D01*
X134192097Y-77891525D02*
X134242097Y-77891525D01*
X134242097Y-77891525D02*
X134275430Y-77908191D01*
X134275430Y-77908191D02*
X134292097Y-77924858D01*
X134292097Y-77924858D02*
X134308763Y-77958191D01*
X134308763Y-77958191D02*
X134308763Y-78041525D01*
X134308763Y-78041525D02*
X134292097Y-78074858D01*
X134292097Y-78074858D02*
X134275430Y-78091525D01*
X134275430Y-78091525D02*
X134242097Y-78108191D01*
X134242097Y-78108191D02*
X134142097Y-78108191D01*
X134142097Y-78108191D02*
X134108763Y-78091525D01*
X134108763Y-78091525D02*
X134092097Y-78074858D01*
D13*
X150684260Y-105646736D02*
X150567593Y-105480070D01*
X150484260Y-105646736D02*
X150484260Y-105296736D01*
X150484260Y-105296736D02*
X150617593Y-105296736D01*
X150617593Y-105296736D02*
X150650927Y-105313403D01*
X150650927Y-105313403D02*
X150667593Y-105330070D01*
X150667593Y-105330070D02*
X150684260Y-105363403D01*
X150684260Y-105363403D02*
X150684260Y-105413403D01*
X150684260Y-105413403D02*
X150667593Y-105446736D01*
X150667593Y-105446736D02*
X150650927Y-105463403D01*
X150650927Y-105463403D02*
X150617593Y-105480070D01*
X150617593Y-105480070D02*
X150484260Y-105480070D01*
X151017593Y-105646736D02*
X150817593Y-105646736D01*
X150917593Y-105646736D02*
X150917593Y-105296736D01*
X150917593Y-105296736D02*
X150884260Y-105346736D01*
X150884260Y-105346736D02*
X150850927Y-105380070D01*
X150850927Y-105380070D02*
X150817593Y-105396736D01*
X151150926Y-105330070D02*
X151167593Y-105313403D01*
X151167593Y-105313403D02*
X151200926Y-105296736D01*
X151200926Y-105296736D02*
X151284260Y-105296736D01*
X151284260Y-105296736D02*
X151317593Y-105313403D01*
X151317593Y-105313403D02*
X151334260Y-105330070D01*
X151334260Y-105330070D02*
X151350926Y-105363403D01*
X151350926Y-105363403D02*
X151350926Y-105396736D01*
X151350926Y-105396736D02*
X151334260Y-105446736D01*
X151334260Y-105446736D02*
X151134260Y-105646736D01*
X151134260Y-105646736D02*
X151350926Y-105646736D01*
D12*
X154868901Y-82647702D02*
X154702235Y-82764369D01*
X154868901Y-82847702D02*
X154518901Y-82847702D01*
X154518901Y-82847702D02*
X154518901Y-82714369D01*
X154518901Y-82714369D02*
X154535568Y-82681036D01*
X154535568Y-82681036D02*
X154552235Y-82664369D01*
X154552235Y-82664369D02*
X154585568Y-82647702D01*
X154585568Y-82647702D02*
X154635568Y-82647702D01*
X154635568Y-82647702D02*
X154668901Y-82664369D01*
X154668901Y-82664369D02*
X154685568Y-82681036D01*
X154685568Y-82681036D02*
X154702235Y-82714369D01*
X154702235Y-82714369D02*
X154702235Y-82847702D01*
X154868901Y-82314369D02*
X154868901Y-82514369D01*
X154868901Y-82414369D02*
X154518901Y-82414369D01*
X154518901Y-82414369D02*
X154568901Y-82447702D01*
X154568901Y-82447702D02*
X154602235Y-82481036D01*
X154602235Y-82481036D02*
X154618901Y-82514369D01*
X151085568Y-86406036D02*
X151085568Y-86522702D01*
X151268901Y-86522702D02*
X150918901Y-86522702D01*
X150918901Y-86522702D02*
X150918901Y-86356036D01*
X151268901Y-86039369D02*
X151268901Y-86239369D01*
X151268901Y-86139369D02*
X150918901Y-86139369D01*
X150918901Y-86139369D02*
X150968901Y-86172702D01*
X150968901Y-86172702D02*
X151002235Y-86206036D01*
X151002235Y-86206036D02*
X151018901Y-86239369D01*
X130969258Y-79961932D02*
X130985925Y-79978599D01*
X130985925Y-79978599D02*
X131002591Y-80028599D01*
X131002591Y-80028599D02*
X131002591Y-80061932D01*
X131002591Y-80061932D02*
X130985925Y-80111932D01*
X130985925Y-80111932D02*
X130952591Y-80145266D01*
X130952591Y-80145266D02*
X130919258Y-80161932D01*
X130919258Y-80161932D02*
X130852591Y-80178599D01*
X130852591Y-80178599D02*
X130802591Y-80178599D01*
X130802591Y-80178599D02*
X130735925Y-80161932D01*
X130735925Y-80161932D02*
X130702591Y-80145266D01*
X130702591Y-80145266D02*
X130669258Y-80111932D01*
X130669258Y-80111932D02*
X130652591Y-80061932D01*
X130652591Y-80061932D02*
X130652591Y-80028599D01*
X130652591Y-80028599D02*
X130669258Y-79978599D01*
X130669258Y-79978599D02*
X130685925Y-79961932D01*
X130652591Y-79845266D02*
X130652591Y-79628599D01*
X130652591Y-79628599D02*
X130785925Y-79745266D01*
X130785925Y-79745266D02*
X130785925Y-79695266D01*
X130785925Y-79695266D02*
X130802591Y-79661932D01*
X130802591Y-79661932D02*
X130819258Y-79645266D01*
X130819258Y-79645266D02*
X130852591Y-79628599D01*
X130852591Y-79628599D02*
X130935925Y-79628599D01*
X130935925Y-79628599D02*
X130969258Y-79645266D01*
X130969258Y-79645266D02*
X130985925Y-79661932D01*
X130985925Y-79661932D02*
X131002591Y-79695266D01*
X131002591Y-79695266D02*
X131002591Y-79795266D01*
X131002591Y-79795266D02*
X130985925Y-79828599D01*
X130985925Y-79828599D02*
X130969258Y-79845266D01*
X133050927Y-83515678D02*
X133034260Y-83532345D01*
X133034260Y-83532345D02*
X132984260Y-83549011D01*
X132984260Y-83549011D02*
X132950927Y-83549011D01*
X132950927Y-83549011D02*
X132900927Y-83532345D01*
X132900927Y-83532345D02*
X132867594Y-83499011D01*
X132867594Y-83499011D02*
X132850927Y-83465678D01*
X132850927Y-83465678D02*
X132834260Y-83399011D01*
X132834260Y-83399011D02*
X132834260Y-83349011D01*
X132834260Y-83349011D02*
X132850927Y-83282345D01*
X132850927Y-83282345D02*
X132867594Y-83249011D01*
X132867594Y-83249011D02*
X132900927Y-83215678D01*
X132900927Y-83215678D02*
X132950927Y-83199011D01*
X132950927Y-83199011D02*
X132984260Y-83199011D01*
X132984260Y-83199011D02*
X133034260Y-83215678D01*
X133034260Y-83215678D02*
X133050927Y-83232345D01*
X133184260Y-83232345D02*
X133200927Y-83215678D01*
X133200927Y-83215678D02*
X133234260Y-83199011D01*
X133234260Y-83199011D02*
X133317594Y-83199011D01*
X133317594Y-83199011D02*
X133350927Y-83215678D01*
X133350927Y-83215678D02*
X133367594Y-83232345D01*
X133367594Y-83232345D02*
X133384260Y-83265678D01*
X133384260Y-83265678D02*
X133384260Y-83299011D01*
X133384260Y-83299011D02*
X133367594Y-83349011D01*
X133367594Y-83349011D02*
X133167594Y-83549011D01*
X133167594Y-83549011D02*
X133384260Y-83549011D01*
D14*
G36*
X151272933Y-96059901D02*
G01*
X151314671Y-96070441D01*
X151306390Y-96095566D01*
X151295705Y-96116631D01*
X151282734Y-96134198D01*
X151267432Y-96148686D01*
X151249752Y-96160296D01*
X151230201Y-96168665D01*
X151208442Y-96173825D01*
X151184052Y-96175613D01*
X151158330Y-96174152D01*
X151136269Y-96170028D01*
X151117341Y-96163542D01*
X151101095Y-96154860D01*
X151086303Y-96143515D01*
X151073317Y-96129870D01*
X151062042Y-96113707D01*
X151052472Y-96094715D01*
X151043262Y-96068015D01*
X151037687Y-96039917D01*
X151035796Y-96010142D01*
X151038023Y-95977733D01*
X151044398Y-95949285D01*
X151054626Y-95924185D01*
X151065183Y-95906731D01*
X151077571Y-95891762D01*
X151091860Y-95879045D01*
X151108212Y-95868444D01*
X151132005Y-95857918D01*
X151157374Y-95851564D01*
X151184706Y-95849403D01*
X151208246Y-95851013D01*
X151229101Y-95855640D01*
X151247680Y-95863094D01*
X151264316Y-95873349D01*
X151279015Y-95886303D01*
X151291361Y-95901639D01*
X151301461Y-95919626D01*
X151309286Y-95940649D01*
X151268202Y-95950343D01*
X151259212Y-95928460D01*
X151248552Y-95912175D01*
X151236350Y-95900431D01*
X151221711Y-95891946D01*
X151204421Y-95886661D01*
X151183841Y-95884793D01*
X151160145Y-95886878D01*
X151140111Y-95892789D01*
X151123042Y-95902277D01*
X151108410Y-95915220D01*
X151097035Y-95930731D01*
X151088728Y-95949189D01*
X151083236Y-95969021D01*
X151079945Y-95989223D01*
X151078842Y-96009911D01*
X151080247Y-96036637D01*
X151084239Y-96059972D01*
X151090555Y-96080366D01*
X151100067Y-96099112D01*
X151112180Y-96113919D01*
X151127023Y-96125335D01*
X151144030Y-96133626D01*
X151161798Y-96138561D01*
X151180609Y-96140223D01*
X151197917Y-96138888D01*
X151213390Y-96135030D01*
X151227339Y-96128749D01*
X151240004Y-96119988D01*
X151250753Y-96109159D01*
X151259851Y-96095815D01*
X151267291Y-96079564D01*
X151272933Y-96059901D01*
G37*
G36*
X151513244Y-96059901D02*
G01*
X151555848Y-96059901D01*
X151555848Y-96095292D01*
X151513244Y-96095292D01*
X151513244Y-96170690D01*
X151474507Y-96170690D01*
X151474507Y-96095292D01*
X151337656Y-96095292D01*
X151337656Y-96059901D01*
X151375740Y-96059901D01*
X151474507Y-96059901D01*
X151474507Y-95917722D01*
X151375740Y-96059901D01*
X151337656Y-96059901D01*
X151481604Y-95855558D01*
X151513244Y-95855558D01*
X151513244Y-96059901D01*
G37*
G36*
X151714852Y-95854298D02*
G01*
X151729591Y-95857753D01*
X151742707Y-95863328D01*
X151754659Y-95871095D01*
X151765171Y-95880873D01*
X151774348Y-95892853D01*
X151785208Y-95913573D01*
X151793928Y-95939822D01*
X151799013Y-95969915D01*
X151801025Y-96014470D01*
X151799553Y-96051631D01*
X151795566Y-96081113D01*
X151789619Y-96104197D01*
X151780382Y-96125952D01*
X151768997Y-96143323D01*
X151755517Y-96156976D01*
X151739479Y-96167133D01*
X151720610Y-96173406D01*
X151698180Y-96175613D01*
X151675984Y-96173442D01*
X151657042Y-96167236D01*
X151640696Y-96157138D01*
X151626514Y-96142858D01*
X151616414Y-96127291D01*
X151607926Y-96107571D01*
X151601293Y-96082862D01*
X151596913Y-96052193D01*
X151595316Y-96014470D01*
X151595321Y-96014355D01*
X151635131Y-96014355D01*
X151636727Y-96055781D01*
X151640833Y-96084984D01*
X151646571Y-96104793D01*
X151653307Y-96117623D01*
X151663412Y-96129311D01*
X151674111Y-96137162D01*
X151685586Y-96141753D01*
X151698180Y-96143300D01*
X151710758Y-96141748D01*
X151722224Y-96137141D01*
X151732922Y-96129256D01*
X151743034Y-96117507D01*
X151749786Y-96104623D01*
X151755530Y-96084795D01*
X151759635Y-96055636D01*
X151761230Y-96014355D01*
X151759629Y-95972798D01*
X151755515Y-95943556D01*
X151749770Y-95923768D01*
X151743034Y-95910990D01*
X151732939Y-95899381D01*
X151722176Y-95891556D01*
X151710559Y-95886962D01*
X151697738Y-95885409D01*
X151684977Y-95886841D01*
X151673847Y-95890997D01*
X151663971Y-95897918D01*
X151655134Y-95907971D01*
X151647557Y-95922360D01*
X151641251Y-95943448D01*
X151636827Y-95973309D01*
X151635131Y-96014355D01*
X151595321Y-96014355D01*
X151596805Y-95976994D01*
X151600829Y-95947381D01*
X151606818Y-95924300D01*
X151616128Y-95902547D01*
X151627552Y-95885217D01*
X151641036Y-95871637D01*
X151657076Y-95861526D01*
X151675887Y-95855288D01*
X151698180Y-95853096D01*
X151714852Y-95854298D01*
G37*
G36*
X141699323Y-79324383D02*
G01*
X141688783Y-79366121D01*
X141663658Y-79357840D01*
X141642593Y-79347155D01*
X141625026Y-79334184D01*
X141610538Y-79318882D01*
X141598928Y-79301202D01*
X141590559Y-79281651D01*
X141585399Y-79259892D01*
X141583611Y-79235502D01*
X141585072Y-79209780D01*
X141589196Y-79187719D01*
X141595682Y-79168791D01*
X141604364Y-79152545D01*
X141615709Y-79137753D01*
X141629354Y-79124767D01*
X141645517Y-79113492D01*
X141664509Y-79103922D01*
X141691209Y-79094712D01*
X141719307Y-79089137D01*
X141749082Y-79087246D01*
X141781491Y-79089473D01*
X141809939Y-79095848D01*
X141835039Y-79106076D01*
X141852493Y-79116633D01*
X141867462Y-79129021D01*
X141880179Y-79143310D01*
X141890780Y-79159662D01*
X141901306Y-79183455D01*
X141907660Y-79208824D01*
X141909821Y-79236156D01*
X141908211Y-79259696D01*
X141903584Y-79280551D01*
X141896130Y-79299130D01*
X141885875Y-79315766D01*
X141872921Y-79330465D01*
X141857585Y-79342811D01*
X141839598Y-79352911D01*
X141818575Y-79360736D01*
X141808881Y-79319652D01*
X141830764Y-79310662D01*
X141847049Y-79300002D01*
X141858793Y-79287800D01*
X141867278Y-79273161D01*
X141872563Y-79255871D01*
X141874431Y-79235291D01*
X141872346Y-79211595D01*
X141866435Y-79191561D01*
X141856947Y-79174492D01*
X141844004Y-79159860D01*
X141828493Y-79148485D01*
X141810035Y-79140178D01*
X141790203Y-79134686D01*
X141770001Y-79131395D01*
X141749313Y-79130292D01*
X141722587Y-79131697D01*
X141699252Y-79135689D01*
X141678858Y-79142005D01*
X141660112Y-79151517D01*
X141645305Y-79163630D01*
X141633889Y-79178473D01*
X141625598Y-79195480D01*
X141620663Y-79213248D01*
X141619001Y-79232059D01*
X141620336Y-79249367D01*
X141624194Y-79264840D01*
X141630475Y-79278789D01*
X141639236Y-79291454D01*
X141650065Y-79302203D01*
X141663409Y-79311301D01*
X141679660Y-79318741D01*
X141699323Y-79324383D01*
G37*
G36*
X141775421Y-79401777D02*
G01*
X141807041Y-79406475D01*
X141832722Y-79413627D01*
X141853415Y-79422833D01*
X141869930Y-79433864D01*
X141882985Y-79446503D01*
X141892983Y-79460524D01*
X141900166Y-79476113D01*
X141904592Y-79493566D01*
X141906128Y-79513262D01*
X141904724Y-79531710D01*
X141900708Y-79547777D01*
X141894250Y-79561862D01*
X141885336Y-79574273D01*
X141874219Y-79584761D01*
X141861156Y-79592996D01*
X141845848Y-79599038D01*
X141827884Y-79602778D01*
X141824883Y-79564271D01*
X141845344Y-79557528D01*
X141857504Y-79549634D01*
X141866589Y-79538307D01*
X141871971Y-79525555D01*
X141873815Y-79510896D01*
X141872641Y-79498900D01*
X141869218Y-79488161D01*
X141863544Y-79478410D01*
X141853682Y-79467396D01*
X141840920Y-79457777D01*
X141824768Y-79449559D01*
X141807399Y-79444112D01*
X141783734Y-79440256D01*
X141752198Y-79438595D01*
X141765413Y-79448840D01*
X141775843Y-79460210D01*
X141783780Y-79472794D01*
X141789545Y-79486582D01*
X141792966Y-79500664D01*
X141794109Y-79515205D01*
X141792298Y-79533974D01*
X141786998Y-79550982D01*
X141778180Y-79566621D01*
X141765527Y-79581159D01*
X141750485Y-79592888D01*
X141733438Y-79601326D01*
X141714003Y-79606550D01*
X141691668Y-79608375D01*
X141672125Y-79606927D01*
X141653757Y-79602655D01*
X141636331Y-79595565D01*
X141620383Y-79585788D01*
X141607448Y-79574098D01*
X141597190Y-79560386D01*
X141589712Y-79544978D01*
X141585169Y-79528162D01*
X141583611Y-79509608D01*
X141583675Y-79508954D01*
X141615924Y-79508954D01*
X141618094Y-79524449D01*
X141624544Y-79538341D01*
X141635716Y-79551134D01*
X141649884Y-79560633D01*
X141667514Y-79566619D01*
X141689552Y-79568772D01*
X141710704Y-79566648D01*
X141727576Y-79560740D01*
X141741100Y-79551346D01*
X141751581Y-79538709D01*
X141757806Y-79524275D01*
X141759949Y-79507454D01*
X141757830Y-79490742D01*
X141751622Y-79476071D01*
X141741100Y-79462907D01*
X141727554Y-79452913D01*
X141711341Y-79446779D01*
X141691706Y-79444616D01*
X141672131Y-79446737D01*
X141653373Y-79453117D01*
X141641924Y-79459693D01*
X141632726Y-79467597D01*
X141625502Y-79476891D01*
X141618275Y-79492697D01*
X141615924Y-79508954D01*
X141583675Y-79508954D01*
X141585919Y-79486128D01*
X141592597Y-79465501D01*
X141603591Y-79447132D01*
X141619271Y-79430632D01*
X141633475Y-79420695D01*
X141651490Y-79412381D01*
X141674087Y-79405902D01*
X141702177Y-79401628D01*
X141736791Y-79400069D01*
X141775421Y-79401777D01*
G37*
G36*
X141782230Y-79648255D02*
G01*
X141811843Y-79652279D01*
X141834924Y-79658268D01*
X141856677Y-79667578D01*
X141874007Y-79679002D01*
X141887587Y-79692486D01*
X141897698Y-79708526D01*
X141903936Y-79727337D01*
X141906128Y-79749630D01*
X141904926Y-79766302D01*
X141901471Y-79781041D01*
X141895896Y-79794157D01*
X141888129Y-79806109D01*
X141878351Y-79816621D01*
X141866371Y-79825798D01*
X141845651Y-79836658D01*
X141819402Y-79845378D01*
X141789309Y-79850463D01*
X141744754Y-79852475D01*
X141707593Y-79851003D01*
X141678111Y-79847016D01*
X141655027Y-79841069D01*
X141633272Y-79831832D01*
X141615901Y-79820447D01*
X141602248Y-79806967D01*
X141592091Y-79790929D01*
X141585818Y-79772060D01*
X141583611Y-79749630D01*
X141615924Y-79749630D01*
X141617476Y-79762208D01*
X141622083Y-79773674D01*
X141629968Y-79784372D01*
X141641717Y-79794484D01*
X141654601Y-79801236D01*
X141674429Y-79806980D01*
X141703588Y-79811085D01*
X141744869Y-79812680D01*
X141786426Y-79811079D01*
X141815668Y-79806965D01*
X141835456Y-79801220D01*
X141848234Y-79794484D01*
X141859843Y-79784389D01*
X141867668Y-79773626D01*
X141872262Y-79762009D01*
X141873815Y-79749188D01*
X141872383Y-79736427D01*
X141868227Y-79725297D01*
X141861306Y-79715421D01*
X141851253Y-79706584D01*
X141836864Y-79699007D01*
X141815776Y-79692701D01*
X141785915Y-79688277D01*
X141744869Y-79686581D01*
X141703443Y-79688177D01*
X141674240Y-79692283D01*
X141654431Y-79698021D01*
X141641601Y-79704757D01*
X141629913Y-79714862D01*
X141622062Y-79725561D01*
X141617471Y-79737036D01*
X141615924Y-79749630D01*
X141583611Y-79749630D01*
X141585782Y-79727434D01*
X141591988Y-79708492D01*
X141602086Y-79692146D01*
X141616366Y-79677964D01*
X141631933Y-79667864D01*
X141651653Y-79659376D01*
X141676362Y-79652743D01*
X141707031Y-79648363D01*
X141744754Y-79646766D01*
X141782230Y-79648255D01*
G37*
G36*
X148554779Y-83413732D02*
G01*
X148596517Y-83413732D01*
X148596517Y-83596244D01*
X148595116Y-83628074D01*
X148591347Y-83652867D01*
X148585765Y-83671892D01*
X148576812Y-83689192D01*
X148564030Y-83704303D01*
X148546932Y-83717458D01*
X148527436Y-83726801D01*
X148503232Y-83732833D01*
X148473226Y-83735018D01*
X148443954Y-83733115D01*
X148420095Y-83727854D01*
X148400695Y-83719727D01*
X148383582Y-83707898D01*
X148370295Y-83693246D01*
X148360457Y-83675431D01*
X148354212Y-83655693D01*
X148349990Y-83629771D01*
X148348416Y-83596244D01*
X148348416Y-83413732D01*
X148390173Y-83413732D01*
X148390173Y-83596725D01*
X148391237Y-83624535D01*
X148393976Y-83644211D01*
X148397809Y-83657620D01*
X148404127Y-83669689D01*
X148412790Y-83679669D01*
X148424045Y-83687799D01*
X148436866Y-83693515D01*
X148451894Y-83697120D01*
X148469572Y-83698397D01*
X148493011Y-83696793D01*
X148511065Y-83692461D01*
X148524838Y-83685926D01*
X148535199Y-83677412D01*
X148542725Y-83666578D01*
X148548863Y-83650659D01*
X148553140Y-83628029D01*
X148554779Y-83596725D01*
X148554779Y-83413732D01*
G37*
G36*
X148651777Y-83627692D02*
G01*
X148691168Y-83624230D01*
X148694024Y-83640042D01*
X148698416Y-83653098D01*
X148704171Y-83663833D01*
X148711898Y-83673149D01*
X148722311Y-83681492D01*
X148735907Y-83688857D01*
X148750537Y-83694070D01*
X148766602Y-83697286D01*
X148784338Y-83698397D01*
X148807348Y-83696528D01*
X148826500Y-83691280D01*
X148838114Y-83685676D01*
X148847040Y-83679160D01*
X148853716Y-83671757D01*
X148860447Y-83658698D01*
X148862660Y-83644657D01*
X148860474Y-83630622D01*
X148854043Y-83618671D01*
X148843405Y-83608950D01*
X148825653Y-83599995D01*
X148809088Y-83594722D01*
X148769490Y-83584569D01*
X148729476Y-83573389D01*
X148708594Y-83564816D01*
X148694344Y-83555927D01*
X148683264Y-83546118D01*
X148674915Y-83535368D01*
X148668785Y-83523243D01*
X148665094Y-83510202D01*
X148663837Y-83495996D01*
X148665333Y-83480413D01*
X148669801Y-83465573D01*
X148677377Y-83451219D01*
X148687596Y-83438654D01*
X148700651Y-83428138D01*
X148716980Y-83419598D01*
X148734640Y-83413693D01*
X148753858Y-83410059D01*
X148774875Y-83408808D01*
X148798039Y-83410148D01*
X148818537Y-83413985D01*
X148836732Y-83420117D01*
X148853523Y-83429029D01*
X148867121Y-83440077D01*
X148877932Y-83453354D01*
X148886021Y-83468514D01*
X148891189Y-83484974D01*
X148893434Y-83503036D01*
X148853408Y-83506055D01*
X148849292Y-83486953D01*
X148841961Y-83472152D01*
X148831558Y-83460759D01*
X148818281Y-83452711D01*
X148800411Y-83447405D01*
X148776587Y-83445429D01*
X148751586Y-83447295D01*
X148733782Y-83452172D01*
X148721385Y-83459316D01*
X148711543Y-83469520D01*
X148705943Y-83480540D01*
X148704074Y-83492803D01*
X148705471Y-83503591D01*
X148709522Y-83512789D01*
X148716346Y-83520789D01*
X148725583Y-83526711D01*
X148744767Y-83534157D01*
X148779280Y-83543293D01*
X148826016Y-83555208D01*
X148849100Y-83563412D01*
X148866559Y-83573105D01*
X148879896Y-83583841D01*
X148889761Y-83595610D01*
X148897002Y-83609118D01*
X148901390Y-83623969D01*
X148902897Y-83640502D01*
X148901313Y-83656885D01*
X148896561Y-83672626D01*
X148888472Y-83687991D01*
X148877665Y-83701540D01*
X148863995Y-83713066D01*
X148847061Y-83722651D01*
X148828685Y-83729414D01*
X148808520Y-83733580D01*
X148786262Y-83735018D01*
X148757876Y-83733469D01*
X148734198Y-83729156D01*
X148714499Y-83722478D01*
X148696420Y-83712579D01*
X148681404Y-83700050D01*
X148669107Y-83684721D01*
X148659911Y-83667294D01*
X148654135Y-83648402D01*
X148651777Y-83627692D01*
G37*
G36*
X149100581Y-83414964D02*
G01*
X149119610Y-83418308D01*
X149134496Y-83423329D01*
X149148085Y-83430918D01*
X149159410Y-83440695D01*
X149168713Y-83452835D01*
X149175667Y-83466518D01*
X149179732Y-83480332D01*
X149181081Y-83494496D01*
X149179868Y-83507694D01*
X149176241Y-83520342D01*
X149170098Y-83532637D01*
X149161787Y-83543527D01*
X149150879Y-83553130D01*
X149136977Y-83561488D01*
X149155074Y-83568679D01*
X149169555Y-83578261D01*
X149180984Y-83590243D01*
X149189464Y-83604451D01*
X149194601Y-83620301D01*
X149196372Y-83638232D01*
X149194005Y-83659817D01*
X149187005Y-83679624D01*
X149176228Y-83696951D01*
X149163866Y-83709129D01*
X149148821Y-83718014D01*
X149129322Y-83724805D01*
X149107371Y-83728650D01*
X149078447Y-83730095D01*
X148958157Y-83730095D01*
X148958157Y-83693473D01*
X148999914Y-83693473D01*
X149078447Y-83693473D01*
X149106856Y-83691934D01*
X149120458Y-83688304D01*
X149130937Y-83683202D01*
X149139621Y-83675852D01*
X149146863Y-83665391D01*
X149151495Y-83653034D01*
X149153114Y-83638386D01*
X149152065Y-83626717D01*
X149149034Y-83616426D01*
X149144074Y-83607246D01*
X149137308Y-83599336D01*
X149129026Y-83593175D01*
X149118993Y-83588666D01*
X149101181Y-83584853D01*
X149072850Y-83583300D01*
X148999914Y-83583300D01*
X148999914Y-83693473D01*
X148958157Y-83693473D01*
X148958157Y-83546678D01*
X148999914Y-83546678D01*
X149068119Y-83546678D01*
X149093913Y-83545560D01*
X149107933Y-83542985D01*
X149122188Y-83536426D01*
X149131918Y-83527117D01*
X149137874Y-83514960D01*
X149139997Y-83499285D01*
X149138059Y-83484162D01*
X149132457Y-83471338D01*
X149126717Y-83464137D01*
X149119616Y-83458671D01*
X149110934Y-83454816D01*
X149094451Y-83451720D01*
X149062945Y-83450353D01*
X148999914Y-83450353D01*
X148999914Y-83546678D01*
X148958157Y-83546678D01*
X148958157Y-83413732D01*
X149076505Y-83413732D01*
X149100581Y-83414964D01*
G37*
G36*
X149383962Y-83730095D02*
G01*
X149345225Y-83730095D01*
X149345225Y-83482628D01*
X149329810Y-83495453D01*
X149308545Y-83509383D01*
X149286166Y-83521492D01*
X149267769Y-83529444D01*
X149267769Y-83492515D01*
X149288837Y-83481307D01*
X149307712Y-83468840D01*
X149324567Y-83455123D01*
X149340030Y-83439713D01*
X149351277Y-83425566D01*
X149358996Y-83412501D01*
X149383962Y-83412501D01*
X149383962Y-83730095D01*
G37*
G36*
X149398676Y-85553732D02*
G01*
X149440414Y-85553732D01*
X149440414Y-85736244D01*
X149439013Y-85768074D01*
X149435244Y-85792867D01*
X149429662Y-85811892D01*
X149420709Y-85829192D01*
X149407927Y-85844303D01*
X149390829Y-85857458D01*
X149371333Y-85866801D01*
X149347129Y-85872833D01*
X149317123Y-85875018D01*
X149287851Y-85873115D01*
X149263992Y-85867854D01*
X149244592Y-85859727D01*
X149227479Y-85847898D01*
X149214192Y-85833246D01*
X149204354Y-85815431D01*
X149198109Y-85795693D01*
X149193887Y-85769771D01*
X149192313Y-85736244D01*
X149192313Y-85553732D01*
X149234070Y-85553732D01*
X149234070Y-85736725D01*
X149235134Y-85764535D01*
X149237873Y-85784211D01*
X149241706Y-85797620D01*
X149248024Y-85809689D01*
X149256687Y-85819669D01*
X149267942Y-85827799D01*
X149280763Y-85833515D01*
X149295791Y-85837120D01*
X149313469Y-85838397D01*
X149336908Y-85836793D01*
X149354962Y-85832461D01*
X149368735Y-85825926D01*
X149379096Y-85817412D01*
X149386622Y-85806578D01*
X149392760Y-85790659D01*
X149397037Y-85768029D01*
X149398676Y-85736725D01*
X149398676Y-85553732D01*
G37*
G36*
X149697728Y-85833473D02*
G01*
X149697728Y-85870095D01*
X149489230Y-85870095D01*
X149490142Y-85856381D01*
X149493750Y-85843244D01*
X149503823Y-85822612D01*
X149519236Y-85801371D01*
X149539197Y-85780540D01*
X149569917Y-85753690D01*
X149603955Y-85724244D01*
X149626129Y-85702401D01*
X149639410Y-85686562D01*
X149649937Y-85669380D01*
X149655689Y-85653923D01*
X149657490Y-85639727D01*
X149655632Y-85625010D01*
X149650204Y-85612167D01*
X149641026Y-85600721D01*
X149629206Y-85592022D01*
X149615116Y-85586691D01*
X149598115Y-85584814D01*
X149580159Y-85586821D01*
X149565476Y-85592494D01*
X149553338Y-85601721D01*
X149544253Y-85613948D01*
X149538512Y-85629255D01*
X149536354Y-85648517D01*
X149496539Y-85644401D01*
X149500272Y-85622214D01*
X149506762Y-85603821D01*
X149515775Y-85588583D01*
X149527314Y-85576024D01*
X149541220Y-85566060D01*
X149557480Y-85558744D01*
X149576539Y-85554133D01*
X149598961Y-85552501D01*
X149621517Y-85554248D01*
X149640638Y-85559188D01*
X149656926Y-85567048D01*
X149670839Y-85577813D01*
X149682478Y-85591303D01*
X149690651Y-85606047D01*
X149695603Y-85622320D01*
X149697305Y-85640516D01*
X149695390Y-85659271D01*
X149689554Y-85677926D01*
X149679763Y-85696021D01*
X149663838Y-85716645D01*
X149642459Y-85738369D01*
X149604135Y-85772424D01*
X149572548Y-85799789D01*
X149559358Y-85812373D01*
X149550178Y-85823089D01*
X149543028Y-85833473D01*
X149697728Y-85833473D01*
G37*
G36*
X156818011Y-81294878D02*
G01*
X156838869Y-81297885D01*
X156853827Y-81302195D01*
X156867387Y-81309216D01*
X156879005Y-81319070D01*
X156888891Y-81332084D01*
X156896176Y-81346820D01*
X156900545Y-81362501D01*
X156902028Y-81379400D01*
X156900616Y-81395753D01*
X156896516Y-81410392D01*
X156889788Y-81423640D01*
X156880293Y-81435737D01*
X156868845Y-81445531D01*
X156854271Y-81453749D01*
X156835963Y-81460283D01*
X156813166Y-81464858D01*
X156828494Y-81473342D01*
X156838325Y-81480745D01*
X156855703Y-81499326D01*
X156872984Y-81523214D01*
X156927840Y-81610095D01*
X156875350Y-81610095D01*
X156833593Y-81543621D01*
X156803472Y-81499614D01*
X156791496Y-81485875D01*
X156782276Y-81478245D01*
X156772698Y-81473011D01*
X156763235Y-81469743D01*
X156740000Y-81468224D01*
X156691587Y-81468224D01*
X156691587Y-81610095D01*
X156649830Y-81610095D01*
X156649830Y-81432833D01*
X156691587Y-81432833D01*
X156781315Y-81432833D01*
X156808316Y-81431161D01*
X156826072Y-81426966D01*
X156836167Y-81422137D01*
X156844248Y-81415881D01*
X156850596Y-81408136D01*
X156856894Y-81394606D01*
X156858982Y-81380016D01*
X156857135Y-81365924D01*
X156851775Y-81353909D01*
X156842729Y-81343452D01*
X156831008Y-81336013D01*
X156814440Y-81331017D01*
X156791432Y-81329122D01*
X156691587Y-81329122D01*
X156691587Y-81432833D01*
X156649830Y-81432833D01*
X156649830Y-81293732D01*
X156789701Y-81293732D01*
X156818011Y-81294878D01*
G37*
G36*
X156951902Y-81526618D02*
G01*
X156990640Y-81521464D01*
X156996658Y-81542533D01*
X157004320Y-81557733D01*
X157013336Y-81568356D01*
X157024726Y-81576286D01*
X157037602Y-81581058D01*
X157052400Y-81582705D01*
X157069840Y-81580566D01*
X157085036Y-81574331D01*
X157098543Y-81563836D01*
X157108988Y-81550273D01*
X157115225Y-81534874D01*
X157117373Y-81517059D01*
X157115360Y-81500053D01*
X157109566Y-81485628D01*
X157099947Y-81473186D01*
X157087416Y-81463668D01*
X157072845Y-81457916D01*
X157055632Y-81455914D01*
X157044082Y-81456872D01*
X157028300Y-81460222D01*
X157032589Y-81426236D01*
X157038840Y-81426678D01*
X157054945Y-81425215D01*
X157069690Y-81420924D01*
X157083367Y-81413791D01*
X157091963Y-81406545D01*
X157098053Y-81397741D01*
X157101835Y-81387073D01*
X157103178Y-81374034D01*
X157101524Y-81360451D01*
X157096741Y-81348857D01*
X157088753Y-81338778D01*
X157078404Y-81331123D01*
X157066176Y-81326452D01*
X157051535Y-81324814D01*
X157037026Y-81326445D01*
X157024630Y-81331137D01*
X157013874Y-81338893D01*
X157005428Y-81349201D01*
X156998895Y-81362985D01*
X156994506Y-81381131D01*
X156955787Y-81374246D01*
X156960711Y-81355155D01*
X156967779Y-81339003D01*
X156976883Y-81325360D01*
X156988062Y-81313908D01*
X157001192Y-81304671D01*
X157015806Y-81298024D01*
X157032180Y-81293924D01*
X157050669Y-81292501D01*
X157067618Y-81293764D01*
X157083401Y-81297477D01*
X157098235Y-81303618D01*
X157111798Y-81312075D01*
X157122781Y-81322141D01*
X157131472Y-81333912D01*
X157137918Y-81347089D01*
X157141722Y-81360606D01*
X157142993Y-81374669D01*
X157141758Y-81387998D01*
X157138111Y-81400359D01*
X157132010Y-81411983D01*
X157123768Y-81422183D01*
X157113068Y-81431085D01*
X157099524Y-81438718D01*
X157117163Y-81444736D01*
X157131463Y-81453641D01*
X157142974Y-81465492D01*
X157151405Y-81479755D01*
X157156635Y-81496498D01*
X157158477Y-81516328D01*
X157156561Y-81536348D01*
X157150962Y-81554427D01*
X157141668Y-81570988D01*
X157128356Y-81586321D01*
X157112477Y-81598764D01*
X157094751Y-81607655D01*
X157074817Y-81613121D01*
X157052189Y-81615018D01*
X157031705Y-81613382D01*
X157013644Y-81608673D01*
X156997587Y-81601036D01*
X156983215Y-81590399D01*
X156971015Y-81577236D01*
X156961805Y-81562411D01*
X156955420Y-81545664D01*
X156951902Y-81526618D01*
G37*
G36*
X157342547Y-81610095D02*
G01*
X157303810Y-81610095D01*
X157303810Y-81362628D01*
X157288395Y-81375453D01*
X157267130Y-81389383D01*
X157244751Y-81401492D01*
X157226354Y-81409444D01*
X157226354Y-81372515D01*
X157247422Y-81361307D01*
X157266297Y-81348840D01*
X157283152Y-81335123D01*
X157298615Y-81319713D01*
X157309862Y-81305566D01*
X157317581Y-81292501D01*
X157342547Y-81292501D01*
X157342547Y-81610095D01*
G37*
G36*
X124535958Y-89958623D02*
G01*
X124525418Y-90000361D01*
X124500293Y-89992080D01*
X124479228Y-89981395D01*
X124461661Y-89968424D01*
X124447173Y-89953122D01*
X124435563Y-89935442D01*
X124427194Y-89915891D01*
X124422034Y-89894132D01*
X124420246Y-89869742D01*
X124421707Y-89844020D01*
X124425831Y-89821959D01*
X124432317Y-89803031D01*
X124440999Y-89786785D01*
X124452344Y-89771993D01*
X124465989Y-89759007D01*
X124482152Y-89747732D01*
X124501144Y-89738162D01*
X124527844Y-89728952D01*
X124555942Y-89723377D01*
X124585717Y-89721486D01*
X124618126Y-89723713D01*
X124646574Y-89730088D01*
X124671674Y-89740316D01*
X124689128Y-89750873D01*
X124704097Y-89763261D01*
X124716814Y-89777550D01*
X124727415Y-89793902D01*
X124737941Y-89817695D01*
X124744295Y-89843064D01*
X124746456Y-89870396D01*
X124744846Y-89893936D01*
X124740219Y-89914791D01*
X124732765Y-89933370D01*
X124722510Y-89950006D01*
X124709556Y-89964705D01*
X124694220Y-89977051D01*
X124676233Y-89987151D01*
X124655210Y-89994976D01*
X124645516Y-89953892D01*
X124667399Y-89944902D01*
X124683684Y-89934242D01*
X124695428Y-89922040D01*
X124703913Y-89907401D01*
X124709198Y-89890111D01*
X124711066Y-89869531D01*
X124708981Y-89845835D01*
X124703070Y-89825801D01*
X124693582Y-89808732D01*
X124680639Y-89794100D01*
X124665128Y-89782725D01*
X124646670Y-89774418D01*
X124626838Y-89768926D01*
X124606636Y-89765635D01*
X124585948Y-89764532D01*
X124559222Y-89765937D01*
X124535887Y-89769929D01*
X124515493Y-89776245D01*
X124496747Y-89785757D01*
X124481940Y-89797870D01*
X124470524Y-89812713D01*
X124462233Y-89829720D01*
X124457298Y-89847488D01*
X124455636Y-89866299D01*
X124456971Y-89883607D01*
X124460829Y-89899080D01*
X124467110Y-89913029D01*
X124475871Y-89925694D01*
X124486700Y-89936443D01*
X124500044Y-89945541D01*
X124516295Y-89952981D01*
X124535958Y-89958623D01*
G37*
G36*
X124740301Y-90167294D02*
G01*
X124740301Y-90198934D01*
X124535958Y-90198934D01*
X124535958Y-90241538D01*
X124500567Y-90241538D01*
X124500567Y-90198934D01*
X124425170Y-90198934D01*
X124425170Y-90160197D01*
X124500567Y-90160197D01*
X124535958Y-90160197D01*
X124678137Y-90160197D01*
X124535958Y-90061430D01*
X124535958Y-90160197D01*
X124500567Y-90160197D01*
X124500567Y-90023346D01*
X124535958Y-90023346D01*
X124740301Y-90167294D01*
G37*
G36*
X124508646Y-90281218D02*
G01*
X124513800Y-90319955D01*
X124492731Y-90325974D01*
X124477531Y-90333636D01*
X124466908Y-90342652D01*
X124458978Y-90354042D01*
X124454206Y-90366917D01*
X124452559Y-90381716D01*
X124454698Y-90399156D01*
X124460933Y-90414351D01*
X124471428Y-90427859D01*
X124484991Y-90438304D01*
X124500390Y-90444540D01*
X124518205Y-90446689D01*
X124535211Y-90444676D01*
X124549636Y-90438882D01*
X124562078Y-90429263D01*
X124571596Y-90416732D01*
X124577348Y-90402161D01*
X124579350Y-90384948D01*
X124578392Y-90373397D01*
X124575042Y-90357616D01*
X124609028Y-90361905D01*
X124608586Y-90368156D01*
X124610049Y-90384261D01*
X124614340Y-90399005D01*
X124621473Y-90412683D01*
X124628719Y-90421279D01*
X124637523Y-90427369D01*
X124648191Y-90431151D01*
X124661230Y-90432494D01*
X124674813Y-90430839D01*
X124686407Y-90426057D01*
X124696486Y-90418069D01*
X124704141Y-90407720D01*
X124708812Y-90395492D01*
X124710450Y-90380851D01*
X124708819Y-90366342D01*
X124704127Y-90353946D01*
X124696371Y-90343190D01*
X124686063Y-90334744D01*
X124672279Y-90328210D01*
X124654133Y-90323821D01*
X124661018Y-90285103D01*
X124680109Y-90290027D01*
X124696261Y-90297095D01*
X124709904Y-90306199D01*
X124721356Y-90317378D01*
X124730593Y-90330508D01*
X124737240Y-90345122D01*
X124741340Y-90361496D01*
X124742763Y-90379985D01*
X124741500Y-90396934D01*
X124737787Y-90412717D01*
X124731646Y-90427551D01*
X124723189Y-90441114D01*
X124713123Y-90452097D01*
X124701352Y-90460788D01*
X124688175Y-90467233D01*
X124674658Y-90471038D01*
X124660595Y-90472309D01*
X124647266Y-90471073D01*
X124634905Y-90467427D01*
X124623281Y-90461326D01*
X124613081Y-90453084D01*
X124604179Y-90442383D01*
X124596546Y-90428840D01*
X124590528Y-90446479D01*
X124581623Y-90460779D01*
X124569772Y-90472290D01*
X124555509Y-90480721D01*
X124538766Y-90485950D01*
X124518936Y-90487792D01*
X124498916Y-90485877D01*
X124480837Y-90480278D01*
X124464276Y-90470983D01*
X124448943Y-90457672D01*
X124436500Y-90441793D01*
X124427609Y-90424066D01*
X124422143Y-90404133D01*
X124420246Y-90381505D01*
X124421882Y-90361020D01*
X124426591Y-90342960D01*
X124434228Y-90326903D01*
X124444865Y-90312531D01*
X124458028Y-90300331D01*
X124472853Y-90291121D01*
X124489600Y-90284735D01*
X124508646Y-90281218D01*
G37*
G36*
X144629985Y-79853279D02*
G01*
X144563511Y-79895036D01*
X144519504Y-79925157D01*
X144505765Y-79937133D01*
X144498135Y-79946353D01*
X144492901Y-79955931D01*
X144489633Y-79965394D01*
X144488114Y-79988629D01*
X144488114Y-80037042D01*
X144629985Y-80037042D01*
X144629985Y-80078799D01*
X144313622Y-80078799D01*
X144313622Y-79938928D01*
X144313692Y-79937197D01*
X144349012Y-79937197D01*
X144349012Y-80037042D01*
X144452723Y-80037042D01*
X144452723Y-79947314D01*
X144451051Y-79920313D01*
X144446856Y-79902557D01*
X144442027Y-79892462D01*
X144435771Y-79884381D01*
X144428026Y-79878033D01*
X144414496Y-79871735D01*
X144399906Y-79869647D01*
X144385814Y-79871494D01*
X144373799Y-79876854D01*
X144363342Y-79885900D01*
X144355903Y-79897621D01*
X144350907Y-79914189D01*
X144349012Y-79937197D01*
X144313692Y-79937197D01*
X144314768Y-79910618D01*
X144317775Y-79889760D01*
X144322085Y-79874802D01*
X144329106Y-79861242D01*
X144338960Y-79849624D01*
X144351974Y-79839738D01*
X144366710Y-79832453D01*
X144382391Y-79828084D01*
X144399290Y-79826601D01*
X144415643Y-79828013D01*
X144430282Y-79832113D01*
X144443530Y-79838841D01*
X144455627Y-79848336D01*
X144465421Y-79859784D01*
X144473639Y-79874358D01*
X144480173Y-79892666D01*
X144484748Y-79915463D01*
X144493232Y-79900135D01*
X144500635Y-79890304D01*
X144519216Y-79872926D01*
X144543104Y-79855645D01*
X144629985Y-79800789D01*
X144629985Y-79853279D01*
G37*
G36*
X144554587Y-79614045D02*
G01*
X144629985Y-79614045D01*
X144629985Y-79652782D01*
X144554587Y-79652782D01*
X144554587Y-79789633D01*
X144519196Y-79789633D01*
X144324928Y-79652782D01*
X144377017Y-79652782D01*
X144519196Y-79751549D01*
X144519196Y-79652782D01*
X144377017Y-79652782D01*
X144324928Y-79652782D01*
X144314853Y-79645685D01*
X144314853Y-79614045D01*
X144519196Y-79614045D01*
X144519196Y-79571441D01*
X144554587Y-79571441D01*
X144554587Y-79614045D01*
G37*
G36*
X144510926Y-79327736D02*
G01*
X144540408Y-79331723D01*
X144563492Y-79337670D01*
X144585247Y-79346907D01*
X144602618Y-79358292D01*
X144616271Y-79371772D01*
X144626428Y-79387810D01*
X144632701Y-79406679D01*
X144634908Y-79429109D01*
X144632737Y-79451305D01*
X144626531Y-79470247D01*
X144616433Y-79486593D01*
X144602153Y-79500775D01*
X144586586Y-79510875D01*
X144566866Y-79519363D01*
X144542157Y-79525996D01*
X144511488Y-79530376D01*
X144473765Y-79531973D01*
X144436289Y-79530484D01*
X144406676Y-79526460D01*
X144383595Y-79520471D01*
X144361842Y-79511161D01*
X144344512Y-79499737D01*
X144330932Y-79486253D01*
X144320821Y-79470213D01*
X144314583Y-79451402D01*
X144312434Y-79429551D01*
X144344704Y-79429551D01*
X144346136Y-79442312D01*
X144350292Y-79453442D01*
X144357213Y-79463318D01*
X144367266Y-79472155D01*
X144381655Y-79479732D01*
X144402743Y-79486038D01*
X144432604Y-79490462D01*
X144473650Y-79492158D01*
X144515076Y-79490562D01*
X144544279Y-79486456D01*
X144564088Y-79480718D01*
X144576918Y-79473982D01*
X144588606Y-79463877D01*
X144596457Y-79453178D01*
X144601048Y-79441703D01*
X144602595Y-79429109D01*
X144601043Y-79416531D01*
X144596436Y-79405065D01*
X144588551Y-79394367D01*
X144576802Y-79384255D01*
X144563918Y-79377503D01*
X144544090Y-79371759D01*
X144514931Y-79367654D01*
X144473650Y-79366059D01*
X144432093Y-79367660D01*
X144402851Y-79371774D01*
X144383063Y-79377519D01*
X144370285Y-79384255D01*
X144358676Y-79394350D01*
X144350851Y-79405113D01*
X144346257Y-79416730D01*
X144344704Y-79429551D01*
X144312434Y-79429551D01*
X144312391Y-79429109D01*
X144313593Y-79412437D01*
X144317048Y-79397698D01*
X144322623Y-79384582D01*
X144330390Y-79372630D01*
X144340168Y-79362118D01*
X144352148Y-79352941D01*
X144372868Y-79342081D01*
X144399117Y-79333361D01*
X144429210Y-79328276D01*
X144473765Y-79326264D01*
X144510926Y-79327736D01*
G37*
D15*
%TO.C,D4*%
X146711260Y-120540390D02*
X151911260Y-120540390D01*
X151911260Y-122340390D02*
X151911260Y-120540390D01*
X146711260Y-122340390D02*
X151911260Y-122340390D01*
X146711260Y-122340390D02*
X146711260Y-120540390D01*
D16*
%TO.C,U11*%
X123117950Y-88828600D02*
G75*
G02*
X122867950Y-88828600I-125000J0D01*
G01*
X122867950Y-88828600D02*
G75*
G02*
X123117950Y-88828600I125000J0D01*
G01*
D17*
X122442950Y-88378600D02*
X122417950Y-88378600D01*
X125567950Y-88378600D02*
X125542950Y-88378600D01*
X125567950Y-85753600D02*
X125567950Y-85228600D01*
X125567950Y-88378600D02*
X125567950Y-87853600D01*
X122442950Y-85228600D02*
X122417950Y-85228600D01*
X125567950Y-85228600D02*
X125542950Y-85228600D01*
X122417950Y-85753600D02*
X122417950Y-85228600D01*
X122417950Y-88378600D02*
X122417950Y-87853600D01*
D16*
%TO.C,U8*%
X172536880Y-92553600D02*
G75*
G02*
X172286880Y-92553600I-125000J0D01*
G01*
X172286880Y-92553600D02*
G75*
G02*
X172536880Y-92553600I125000J0D01*
G01*
D17*
X173317950Y-94203600D02*
X175317950Y-94203600D01*
X173317950Y-92203600D02*
X175317950Y-92203600D01*
D16*
%TO.C,U7*%
X122536880Y-92553600D02*
G75*
G02*
X122286880Y-92553600I-125000J0D01*
G01*
X122286880Y-92553600D02*
G75*
G02*
X122536880Y-92553600I125000J0D01*
G01*
D17*
X123317950Y-94203600D02*
X125317950Y-94203600D01*
X123317950Y-92203600D02*
X125317950Y-92203600D01*
D16*
%TO.C,U6*%
X151392950Y-91528600D02*
G75*
G02*
X151142950Y-91528600I-125000J0D01*
G01*
X151142950Y-91528600D02*
G75*
G02*
X151392950Y-91528600I125000J0D01*
G01*
D17*
X150767950Y-95603600D02*
X147867950Y-95603600D01*
X150767950Y-95603600D02*
X150767950Y-90803600D01*
X150767950Y-90803600D02*
X147867950Y-90803600D01*
X147867950Y-95603600D02*
X147867950Y-90803600D01*
D15*
%TO.C,P3*%
X153192950Y-106303600D02*
X168292950Y-106303600D01*
X153192950Y-106303600D02*
X153192950Y-108803600D01*
X153192950Y-108803600D02*
X168292950Y-108803600D01*
X168292950Y-106303600D02*
X168292950Y-108803600D01*
%TO.C,USB1*%
X148619950Y-77928600D02*
X150219950Y-77928600D01*
%TO.C,U2*%
X150992940Y-89053600D02*
G75*
G02*
X150942940Y-89053600I-25000J0D01*
G01*
X150942940Y-89053600D02*
G75*
G02*
X150992940Y-89053600I25000J0D01*
G01*
%TD*%
M02*
